Poppins_1.ufo
<glyph name="exclam" format="1">
  <advance width="425"/>
  <unicode hex="0021"/>
  <outline>
    <contour>
      <point x="149" y="252" type="line"/>
      <point x="294" y="252" type="line"/>
      <point x="314" y="752" type="line"/>
      <point x="129" y="752" type="line"/>
    </contour>
    <contour>
      <point x="225" y="0" type="curve" smooth="yes"/>
      <point x="278" y="0"/>
      <point x="319" y="41"/>
      <point x="319" y="93" type="curve" smooth="yes"/>
      <point x="319" y="146"/>
      <point x="278" y="187"/>
      <point x="225" y="187" type="curve" smooth="yes"/>
      <point x="173" y="187"/>
      <point x="132" y="146"/>
      <point x="132" y="93" type="curve" smooth="yes"/>
      <point x="132" y="41"/>
      <point x="173" y="0"/>
    </contour>
  </outline>
</glyph>
<glyph name="numbersign" format="1">
  <advance width="929"/>
  <unicode hex="0023"/>
  <outline>
    <contour>
      <point x="135" y="0" type="line"/>
      <point x="135" y="0"/>
      <point x="295" y="0"/>
      <point x="295" y="0" type="curve"/>
      <point x="453" y="740" type="line"/>
      <point x="453" y="740"/>
      <point x="293" y="740"/>
      <point x="293" y="740" type="curve"/>
    </contour>
    <contour>
      <point x="461" y="0" type="line"/>
      <point x="461" y="0"/>
      <point x="621" y="0"/>
      <point x="621" y="0" type="curve"/>
      <point x="779" y="740" type="line"/>
      <point x="779" y="740"/>
      <point x="619" y="740"/>
      <point x="619" y="740" type="curve"/>
    </contour>
    <contour>
      <point x="15" y="142" type="line"/>
      <point x="802" y="142" type="line"/>
      <point x="802" y="296" type="line"/>
      <point x="15" y="296" type="line"/>
    </contour>
    <contour>
      <point x="80" y="449" type="line"/>
      <point x="867" y="449" type="line"/>
      <point x="867" y="603" type="line"/>
      <point x="80" y="603" type="line"/>
    </contour>
  </outline>
</glyph>
<glyph name="dollar" format="1">
  <advance width="643"/>
  <unicode hex="0024"/>
  <outline>
    <contour>
      <point x="298" y="-87" type="line"/>
      <point x="357" y="-87" type="line"/>
      <point x="357" y="792" type="line"/>
      <point x="357" y="792"/>
      <point x="298" y="792"/>
      <point x="298" y="792" type="curve"/>
    </contour>
    <contour>
      <point x="240" y="508" type="curve" smooth="yes"/>
      <point x="240" y="558"/>
      <point x="280" y="577"/>
      <point x="326" y="577" type="curve" smooth="yes"/>
      <point x="369" y="577"/>
      <point x="405" y="548"/>
      <point x="411" y="498" type="curve"/>
      <point x="587" y="498" type="line"/>
      <point x="583" y="654"/>
      <point x="473" y="712"/>
      <point x="327" y="712" type="curve" smooth="yes"/>
      <point x="185" y="712"/>
      <point x="60" y="630"/>
      <point x="60" y="496" type="curve" smooth="yes"/>
      <point x="60" y="250"/>
      <point x="407" y="338"/>
      <point x="407" y="199" type="curve" smooth="yes"/>
      <point x="407" y="156"/>
      <point x="377" y="128"/>
      <point x="328" y="128" type="curve" smooth="yes"/>
      <point x="279" y="128"/>
      <point x="247" y="152"/>
      <point x="242" y="212" type="curve"/>
      <point x="60" y="212" type="line"/>
      <point x="60" y="69"/>
      <point x="168" y="-7"/>
      <point x="328" y="-7" type="curve" smooth="yes"/>
      <point x="483" y="-7"/>
      <point x="587" y="93"/>
      <point x="587" y="209" type="curve" smooth="yes"/>
      <point x="587" y="460"/>
      <point x="240" y="364"/>
    </contour>
  </outline>
</glyph>
<glyph name="percent" format="1">
  <advance width="814"/>
  <unicode hex="0025"/>
  <outline>
    <contour>
      <point x="30" y="546" type="curve" smooth="yes"/>
      <point x="30" y="436"/>
      <point x="102" y="378"/>
      <point x="197" y="378" type="curve" smooth="yes"/>
      <point x="292" y="378"/>
      <point x="363" y="436"/>
      <point x="363" y="546" type="curve" smooth="yes"/>
      <point x="363" y="656"/>
      <point x="292" y="714"/>
      <point x="197" y="714" type="curve" smooth="yes"/>
      <point x="102" y="714"/>
      <point x="30" y="656"/>
    </contour>
    <contour>
      <point x="196" y="613" type="curve" smooth="yes"/>
      <point x="226" y="613"/>
      <point x="245" y="592"/>
      <point x="245" y="546" type="curve" smooth="yes"/>
      <point x="245" y="500"/>
      <point x="226" y="479"/>
      <point x="196" y="479" type="curve" smooth="yes"/>
      <point x="166" y="479"/>
      <point x="148" y="500"/>
      <point x="148" y="546" type="curve" smooth="yes"/>
      <point x="148" y="592"/>
      <point x="166" y="613"/>
    </contour>
    <contour>
      <point x="132" y="0" type="line"/>
      <point x="132" y="0"/>
      <point x="297" y="0"/>
      <point x="297" y="0" type="curve"/>
      <point x="682" y="704" type="line"/>
      <point x="682" y="704"/>
      <point x="517" y="704"/>
      <point x="517" y="704" type="curve"/>
    </contour>
    <contour>
      <point x="451" y="158" type="curve" smooth="yes"/>
      <point x="451" y="48"/>
      <point x="523" y="-10"/>
      <point x="618" y="-10" type="curve" smooth="yes"/>
      <point x="713" y="-10"/>
      <point x="784" y="48"/>
      <point x="784" y="158" type="curve" smooth="yes"/>
      <point x="784" y="268"/>
      <point x="713" y="326"/>
      <point x="618" y="326" type="curve" smooth="yes"/>
      <point x="523" y="326"/>
      <point x="451" y="268"/>
    </contour>
    <contour>
      <point x="617" y="225" type="curve" smooth="yes"/>
      <point x="647" y="225"/>
      <point x="666" y="204"/>
      <point x="666" y="158" type="curve" smooth="yes"/>
      <point x="666" y="112"/>
      <point x="647" y="91"/>
      <point x="617" y="91" type="curve" smooth="yes"/>
      <point x="587" y="91"/>
      <point x="569" y="112"/>
      <point x="569" y="158" type="curve" smooth="yes"/>
      <point x="569" y="204"/>
      <point x="587" y="225"/>
    </contour>
  </outline>
</glyph>
<glyph name="ampersand" format="1">
  <advance width="700"/>
  <unicode hex="0026"/>
  <outline>
    <contour>
      <point x="172" y="221" type="curve" smooth="yes"/>
      <point x="172" y="268"/>
      <point x="210" y="306"/>
      <point x="258" y="306" type="curve" smooth="yes"/>
      <point x="305" y="306"/>
      <point x="344" y="268"/>
      <point x="344" y="221" type="curve" smooth="yes"/>
      <point x="344" y="173"/>
      <point x="305" y="134"/>
      <point x="258" y="134" type="curve" smooth="yes"/>
      <point x="210" y="134"/>
      <point x="172" y="173"/>
    </contour>
    <contour>
      <point x="141" y="558" type="curve" smooth="yes"/>
      <point x="141" y="516"/>
      <point x="158" y="478"/>
      <point x="201" y="414" type="curve"/>
      <point x="288" y="399" type="line"/>
      <point x="273" y="424"/>
      <point x="257" y="439"/>
      <point x="227" y="439" type="curve" smooth="yes"/>
      <point x="124" y="439"/>
      <point x="30" y="345"/>
      <point x="30" y="219" type="curve" smooth="yes"/>
      <point x="30" y="93"/>
      <point x="131" y="-7"/>
      <point x="257" y="-7" type="curve" smooth="yes"/>
      <point x="354" y="-7"/>
      <point x="437" y="57"/>
      <point x="466" y="135" type="curve"/>
      <point x="412" y="131" type="line"/>
      <point x="503" y="0" type="line"/>
      <point x="700" y="0" type="line"/>
      <point x="326" y="504" type="line" smooth="yes"/>
      <point x="311" y="524"/>
      <point x="306" y="536"/>
      <point x="306" y="554" type="curve" smooth="yes"/>
      <point x="306" y="574"/>
      <point x="322" y="594"/>
      <point x="346" y="594" type="curve" smooth="yes"/>
      <point x="371" y="594"/>
      <point x="388" y="577"/>
      <point x="388" y="551" type="curve" smooth="yes"/>
      <point x="388" y="537"/>
      <point x="384" y="523"/>
      <point x="377" y="512" type="curve"/>
      <point x="539" y="512" type="line"/>
      <point x="548" y="530"/>
      <point x="553" y="552"/>
      <point x="553" y="576" type="curve" smooth="yes"/>
      <point x="553" y="658"/>
      <point x="481" y="740"/>
      <point x="346" y="740" type="curve" smooth="yes"/>
      <point x="211" y="740"/>
      <point x="141" y="651"/>
    </contour>
  </outline>
</glyph>
<glyph name="parenleft" format="1">
  <advance width="480"/>
  <unicode hex="0028"/>
  <outline>
    <contour>
      <point x="339" y="-187" type="curve"/>
      <point x="508" y="-187" type="line"/>
      <point x="508" y="-171" type="line"/>
      <point x="320" y="-17"/>
      <point x="232" y="180"/>
      <point x="232" y="402" type="curve"/>
      <point x="232" y="624"/>
      <point x="320" y="821"/>
      <point x="508" y="975" type="curve"/>
      <point x="508" y="991" type="line"/>
      <point x="339" y="991" type="line"/>
      <point x="183" y="873"/>
      <point x="67" y="661"/>
      <point x="67" y="403" type="curve"/>
      <point x="67" y="143"/>
      <point x="183" y="-69"/>
    </contour>
  </outline>
</glyph>
<glyph name="plus" format="1">
  <advance width="650"/>
  <unicode hex="002B"/>
  <outline>
    <contour>
      <point x="243" y="605" type="line"/>
      <point x="243" y="95" type="line"/>
      <point x="407" y="95" type="line"/>
      <point x="407" y="605" type="line"/>
    </contour>
    <contour>
      <point x="70" y="272" type="line"/>
      <point x="580" y="272" type="line"/>
      <point x="580" y="427" type="line"/>
      <point x="70" y="427" type="line"/>
    </contour>
  </outline>
</glyph>
<glyph name="slash" format="1">
  <advance width="453"/>
  <unicode hex="002F"/>
  <outline>
    <contour>
      <point x="10" y="-187" type="line"/>
      <point x="10" y="-187"/>
      <point x="175" y="-187"/>
      <point x="175" y="-187" type="curve"/>
      <point x="443" y="950" type="line"/>
      <point x="443" y="950"/>
      <point x="278" y="950"/>
      <point x="278" y="950" type="curve"/>
    </contour>
  </outline>
</glyph>
<glyph name="one" format="1">
  <advance width="421"/>
  <unicode hex="0031"/>
  <outline>
    <contour>
      <point x="149" y="0" type="line"/>
      <point x="326" y="0" type="line"/>
      <point x="326" y="710" type="line"/>
      <point x="28" y="710" type="line"/>
      <point x="28" y="551" type="line"/>
      <point x="149" y="551" type="line"/>
    </contour>
  </outline>
</glyph>
<glyph name="eight" format="1">
  <advance width="648"/>
  <unicode hex="0038"/>
  <outline>
    <contour>
      <point x="165" y="397" type="curve"/>
      <point x="95" y="363"/>
      <point x="54" y="302"/>
      <point x="54" y="216" type="curve" smooth="yes"/>
      <point x="54" y="73"/>
      <point x="175" y="-14"/>
      <point x="324" y="-14" type="curve" smooth="yes"/>
      <point x="474" y="-14"/>
      <point x="594" y="73"/>
      <point x="594" y="216" type="curve" smooth="yes"/>
      <point x="594" y="301"/>
      <point x="555" y="362"/>
      <point x="483" y="397" type="curve"/>
      <point x="538" y="428"/>
      <point x="576" y="480"/>
      <point x="576" y="553" type="curve" smooth="yes"/>
      <point x="576" y="653"/>
      <point x="496" y="754"/>
      <point x="324" y="754" type="curve" smooth="yes"/>
      <point x="152" y="754"/>
      <point x="71" y="654"/>
      <point x="71" y="554" type="curve"/>
      <point x="71" y="473"/>
      <point x="109" y="428"/>
    </contour>
    <contour>
      <point x="324" y="614" type="curve" smooth="yes"/>
      <point x="375" y="614"/>
      <point x="410" y="582"/>
      <point x="410" y="528" type="curve" smooth="yes"/>
      <point x="410" y="476"/>
      <point x="370" y="442"/>
      <point x="324" y="442" type="curve" smooth="yes"/>
      <point x="278" y="442"/>
      <point x="238" y="474"/>
      <point x="238" y="527" type="curve"/>
      <point x="238" y="583"/>
      <point x="276" y="614"/>
    </contour>
    <contour>
      <point x="323" y="323" type="curve" smooth="yes"/>
      <point x="390" y="323"/>
      <point x="422" y="280"/>
      <point x="422" y="226" type="curve" smooth="yes"/>
      <point x="422" y="171"/>
      <point x="389" y="126"/>
      <point x="323" y="126" type="curve" smooth="yes"/>
      <point x="256" y="126"/>
      <point x="219" y="169"/>
      <point x="219" y="225" type="curve"/>
      <point x="219" y="287"/>
      <point x="261" y="323"/>
    </contour>
  </outline>
</glyph>
<glyph name="colon" format="1">
  <advance width="320"/>
  <unicode hex="003A"/>
  <outline>
    <contour>
      <point x="160" y="0" type="curve" smooth="yes"/>
      <point x="213" y="0"/>
      <point x="254" y="41"/>
      <point x="254" y="93" type="curve" smooth="yes"/>
      <point x="254" y="146"/>
      <point x="213" y="187"/>
      <point x="160" y="187" type="curve" smooth="yes"/>
      <point x="108" y="187"/>
      <point x="67" y="146"/>
      <point x="67" y="93" type="curve" smooth="yes"/>
      <point x="67" y="41"/>
      <point x="108" y="0"/>
    </contour>
    <contour>
      <point x="160" y="399" type="curve" smooth="yes"/>
      <point x="213" y="399"/>
      <point x="254" y="440"/>
      <point x="254" y="492" type="curve" smooth="yes"/>
      <point x="254" y="545"/>
      <point x="213" y="586"/>
      <point x="160" y="586" type="curve" smooth="yes"/>
      <point x="108" y="586"/>
      <point x="67" y="545"/>
      <point x="67" y="492" type="curve" smooth="yes"/>
      <point x="67" y="440"/>
      <point x="108" y="399"/>
    </contour>
  </outline>
</glyph>
<glyph name="less" format="1">
  <advance width="553"/>
  <unicode hex="003C"/>
  <outline>
    <contour>
      <point x="278" y="350" type="line"/>
      <point x="482" y="571" type="line"/>
      <point x="268" y="571" type="line"/>
      <point x="64" y="350" type="line"/>
      <point x="268" y="129" type="line"/>
      <point x="482" y="129" type="line"/>
    </contour>
  </outline>
</glyph>
<glyph name="equal" format="1">
  <advance width="780"/>
  <unicode hex="003D"/>
  <outline>
    <contour>
      <point x="110" y="145" type="line"/>
      <point x="670" y="145" type="line"/>
      <point x="670" y="299" type="line"/>
      <point x="110" y="299" type="line"/>
    </contour>
    <contour>
      <point x="110" y="400" type="line"/>
      <point x="670" y="400" type="line"/>
      <point x="670" y="554" type="line"/>
      <point x="110" y="554" type="line"/>
    </contour>
  </outline>
</glyph>
<glyph name="greater" format="1">
  <advance width="560"/>
  <unicode hex="003E"/>
  <outline>
    <contour>
      <point x="64" y="129" type="line"/>
      <point x="278" y="129" type="line"/>
      <point x="482" y="350" type="line"/>
      <point x="278" y="571" type="line"/>
      <point x="64" y="571" type="line"/>
      <point x="268" y="350" type="line"/>
    </contour>
  </outline>
</glyph>
<glyph name="at" format="1">
  <advance width="1277"/>
  <unicode hex="0040"/>
  <outline>
    <contour>
      <point x="746" y="279" type="curve" smooth="yes"/>
      <point x="734" y="185"/>
      <point x="667" y="141"/>
      <point x="612" y="141" type="curve" smooth="yes"/>
      <point x="556" y="141"/>
      <point x="501" y="184"/>
      <point x="514" y="278" type="curve" smooth="yes"/>
      <point x="526" y="372"/>
      <point x="593" y="416"/>
      <point x="648" y="416" type="curve" smooth="yes"/>
      <point x="703" y="416"/>
      <point x="759" y="373"/>
    </contour>
    <contour>
      <point x="348" y="278" type="curve" smooth="yes"/>
      <point x="325" y="108"/>
      <point x="434" y="-7"/>
      <point x="562" y="-7" type="curve" smooth="yes"/>
      <point x="671" y="-7"/>
      <point x="739" y="65"/>
      <point x="779" y="166" type="curve"/>
      <point x="753" y="166" type="line"/>
      <point x="749" y="57"/>
      <point x="800" y="-7"/>
      <point x="918" y="-7" type="curve" smooth="yes"/>
      <point x="1084" y="-7"/>
      <point x="1242" y="148"/>
      <point x="1242" y="358" type="curve" smooth="yes"/>
      <point x="1242" y="647"/>
      <point x="1032" y="814"/>
      <point x="723" y="814" type="curve" smooth="yes"/>
      <point x="348" y="814"/>
      <point x="35" y="590"/>
      <point x="35" y="231" type="curve" smooth="yes"/>
      <point x="35" y="-65"/>
      <point x="250" y="-266"/>
      <point x="588" y="-266" type="curve"/>
      <point x="621" y="-133" type="line"/>
      <point x="345" y="-133"/>
      <point x="209" y="19"/>
      <point x="209" y="231" type="curve" smooth="yes"/>
      <point x="209" y="481"/>
      <point x="415" y="681"/>
      <point x="703" y="681" type="curve" smooth="yes"/>
      <point x="927" y="681"/>
      <point x="1068" y="552"/>
      <point x="1068" y="359" type="curve" smooth="yes"/>
      <point x="1068" y="216"/>
      <point x="979" y="141"/>
      <point x="930" y="141" type="curve" smooth="yes"/>
      <point x="905" y="141"/>
      <point x="893" y="158"/>
      <point x="897" y="188" type="curve" smooth="yes"/>
      <point x="913" y="310" type="line" smooth="yes"/>
      <point x="934" y="472"/>
      <point x="827" y="563"/>
      <point x="678" y="563" type="curve" smooth="yes"/>
      <point x="509" y="563"/>
      <point x="370" y="448"/>
    </contour>
  </outline>
</glyph>
<glyph name="B" format="1">
  <advance width="674"/>
  <unicode hex="0042"/>
  <outline>
    <contour>
      <point x="440" y="495" type="curve" smooth="yes"/>
      <point x="440" y="443"/>
      <point x="405" y="420"/>
      <point x="358" y="420" type="curve" smooth="yes"/>
      <point x="246" y="420" type="line"/>
      <point x="246" y="572" type="line"/>
      <point x="358" y="572" type="line" smooth="yes"/>
      <point x="405" y="572"/>
      <point x="440" y="547"/>
    </contour>
    <contour>
      <point x="630" y="183" type="curve" smooth="yes"/>
      <point x="630" y="275"/>
      <point x="563" y="355"/>
      <point x="452" y="359" type="curve"/>
      <point x="435" y="347" type="line"/>
      <point x="544" y="368"/>
      <point x="614" y="424"/>
      <point x="614" y="518" type="curve" smooth="yes"/>
      <point x="614" y="621"/>
      <point x="527" y="702"/>
      <point x="380" y="702" type="curve" smooth="yes"/>
      <point x="75" y="702" type="line"/>
      <point x="75" y="0" type="line"/>
      <point x="397" y="0" type="line" smooth="yes"/>
      <point x="545" y="0"/>
      <point x="630" y="72"/>
    </contour>
    <contour>
      <point x="456" y="209" type="curve" smooth="yes"/>
      <point x="456" y="159"/>
      <point x="421" y="130"/>
      <point x="375" y="130" type="curve" smooth="yes"/>
      <point x="246" y="130" type="line"/>
      <point x="246" y="290" type="line"/>
      <point x="377" y="290" type="line" smooth="yes"/>
      <point x="422" y="290"/>
      <point x="456" y="260"/>
    </contour>
  </outline>
</glyph>
<glyph name="E" format="1">
  <advance width="572"/>
  <unicode hex="0045"/>
  <outline>
    <contour>
      <point x="500" y="0" type="move" name="ogonek"/>
    </contour>
    <contour>
      <point x="286" y="0" type="move" name="bottom"/>
    </contour>
    <contour>
      <point x="286" y="704" type="move" name="top"/>
    </contour>
    <contour>
      <point x="500" y="704" type="line"/>
      <point x="75" y="704" type="line"/>
      <point x="75" y="0" type="line"/>
      <point x="500" y="0" type="line"/>
      <point x="500" y="130" type="line"/>
      <point x="246" y="130" type="line"/>
      <point x="246" y="293" type="line"/>
      <point x="470" y="293" type="line"/>
      <point x="470" y="423" type="line"/>
      <point x="246" y="423" type="line"/>
      <point x="246" y="574" type="line"/>
      <point x="500" y="574" type="line"/>
    </contour>
  </outline>
</glyph>
<glyph name="F" format="1">
  <advance width="575"/>
  <unicode hex="0046"/>
  <outline>
    <contour>
      <point x="75" y="0" type="line"/>
      <point x="246" y="0" type="line"/>
      <point x="246" y="291" type="line"/>
      <point x="460" y="291" type="line"/>
      <point x="460" y="421" type="line"/>
      <point x="246" y="421" type="line"/>
      <point x="246" y="572" type="line"/>
      <point x="532" y="572" type="line"/>
      <point x="532" y="702" type="line"/>
      <point x="75" y="702" type="line"/>
    </contour>
  </outline>
</glyph>
<glyph name="G" format="1">
  <advance width="764"/>
  <unicode hex="0047"/>
  <outline>
    <contour>
      <point x="382" y="704" type="move" name="top"/>
    </contour>
    <contour>
      <point x="382" y="0" type="move" name="bottom"/>
    </contour>
    <contour>
      <point x="34" y="353" type="curve" smooth="yes"/>
      <point x="34" y="142"/>
      <point x="195" y="-6"/>
      <point x="394" y="-6" type="curve" smooth="yes"/>
      <point x="583" y="-6"/>
      <point x="706" y="144"/>
      <point x="729" y="263" type="curve"/>
      <point x="729" y="393" type="line"/>
      <point x="347" y="393" type="line"/>
      <point x="347" y="263" type="line"/>
      <point x="545" y="263" type="line"/>
      <point x="528" y="199"/>
      <point x="479" y="151"/>
      <point x="394" y="151" type="curve" smooth="yes"/>
      <point x="281" y="151"/>
      <point x="208" y="231"/>
      <point x="208" y="353" type="curve" smooth="yes"/>
      <point x="208" y="476"/>
      <point x="281" y="555"/>
      <point x="394" y="555" type="curve" smooth="yes"/>
      <point x="454" y="555"/>
      <point x="496" y="534"/>
      <point x="525" y="478" type="curve"/>
      <point x="729" y="478" type="line"/>
      <point x="680" y="628"/>
      <point x="547" y="712"/>
      <point x="394" y="712" type="curve" smooth="yes"/>
      <point x="195" y="712"/>
      <point x="34" y="564"/>
    </contour>
  </outline>
</glyph>
<glyph name="H" format="1">
  <advance width="763"/>
  <unicode hex="0048"/>
  <outline>
    <contour>
      <point x="75" y="0" type="line"/>
      <point x="246" y="0" type="line"/>
      <point x="246" y="702" type="line"/>
      <point x="75" y="702" type="line"/>
    </contour>
    <contour>
      <point x="517" y="0" type="line"/>
      <point x="688" y="0" type="line"/>
      <point x="688" y="702" type="line"/>
      <point x="517" y="702" type="line"/>
    </contour>
    <contour>
      <point x="226" y="291" type="line"/>
      <point x="541" y="291" type="line"/>
      <point x="541" y="421" type="line"/>
      <point x="226" y="421" type="line"/>
    </contour>
  </outline>
</glyph>
<glyph name="I" format="1">
  <advance width="321"/>
  <unicode hex="0049"/>
  <outline>
    <contour>
      <point x="246" y="0" type="move" name="ogonek"/>
    </contour>
    <contour>
      <point x="161" y="704" type="move" name="top"/>
    </contour>
    <contour>
      <point x="75" y="0" type="line"/>
      <point x="246" y="0" type="line"/>
      <point x="246" y="702" type="line"/>
      <point x="75" y="702" type="line"/>
    </contour>
  </outline>
</glyph>
<glyph name="K" format="1">
  <advance width="720"/>
  <unicode hex="004B"/>
  <outline>
    <contour>
      <point x="360" y="704" type="move" name="top"/>
    </contour>
    <contour>
      <point x="360" y="0" type="move" name="bottom"/>
    </contour>
    <contour>
      <point x="75" y="0" type="line"/>
      <point x="246" y="0" type="line"/>
      <point x="246" y="702" type="line"/>
      <point x="75" y="702" type="line"/>
    </contour>
    <contour>
      <point x="214" y="352" type="line"/>
      <point x="482" y="0" type="line"/>
      <point x="702" y="0" type="line"/>
      <point x="399" y="368" type="line"/>
      <point x="391" y="325" type="line"/>
      <point x="702" y="702" type="line"/>
      <point x="478" y="702" type="line"/>
    </contour>
  </outline>
</glyph>
<glyph name="L" format="1">
  <advance width="479"/>
  <unicode hex="004C"/>
  <outline>
    <contour>
      <point x="270" y="10" type="move" name="commaaccent"/>
    </contour>
    <contour>
      <point x="240" y="704" type="move" name="top"/>
    </contour>
    <contour>
      <point x="459" y="704" type="move" name="topright"/>
    </contour>
    <contour>
      <point x="270" y="0" type="move" name="bottom"/>
    </contour>
    <contour>
      <point x="75" y="702" type="line"/>
      <point x="75" y="0" type="line"/>
      <point x="459" y="0" type="line"/>
      <point x="459" y="130" type="line"/>
      <point x="246" y="130" type="line"/>
      <point x="246" y="702" type="line"/>
    </contour>
  </outline>
</glyph>
<glyph name="M" format="1">
  <advance width="945"/>
  <unicode hex="004D"/>
  <outline>
    <contour>
      <point x="75" y="0" type="line"/>
      <point x="246" y="0" type="line"/>
      <point x="246" y="581" type="line"/>
      <point x="174" y="571" type="line"/>
      <point x="409" y="0" type="line"/>
      <point x="536" y="0" type="line"/>
      <point x="771" y="571" type="line"/>
      <point x="699" y="581" type="line"/>
      <point x="699" y="0" type="line"/>
      <point x="870" y="0" type="line"/>
      <point x="870" y="702" type="line"/>
      <point x="674" y="702" type="line"/>
      <point x="437" y="133" type="line"/>
      <point x="508" y="133" type="line"/>
      <point x="271" y="702" type="line"/>
      <point x="75" y="702" type="line"/>
    </contour>
  </outline>
</glyph>
<glyph name="N" format="1">
  <advance width="778"/>
  <unicode hex="004E"/>
  <outline>
    <contour>
      <point x="389" y="704" type="move" name="top"/>
    </contour>
    <contour>
      <point x="389" y="0" type="move" name="bottom"/>
    </contour>
    <contour>
      <point x="532" y="704" type="line"/>
      <point x="532" y="261" type="line"/>
      <point x="246" y="704" type="line"/>
      <point x="75" y="704" type="line"/>
      <point x="75" y="0" type="line"/>
      <point x="246" y="0" type="line"/>
      <point x="246" y="443" type="line"/>
      <point x="532" y="0" type="line"/>
      <point x="703" y="0" type="line"/>
      <point x="703" y="704" type="line"/>
    </contour>
  </outline>
</glyph>
<glyph name="O" format="1">
  <advance width="788"/>
  <unicode hex="004F"/>
  <outline>
    <contour>
      <point x="394" y="704" type="move" name="top"/>
    </contour>
    <contour>
      <point x="34" y="353" type="curve" smooth="yes"/>
      <point x="34" y="142"/>
      <point x="195" y="-7"/>
      <point x="394" y="-7" type="curve" smooth="yes"/>
      <point x="593" y="-7"/>
      <point x="753" y="142"/>
      <point x="753" y="353" type="curve" smooth="yes"/>
      <point x="753" y="564"/>
      <point x="594" y="712"/>
      <point x="394" y="712" type="curve" smooth="yes"/>
      <point x="195" y="712"/>
      <point x="34" y="564"/>
    </contour>
    <contour>
      <point x="579" y="353" type="curve" smooth="yes"/>
      <point x="579" y="231"/>
      <point x="506" y="151"/>
      <point x="394" y="151" type="curve" smooth="yes"/>
      <point x="281" y="151"/>
      <point x="208" y="231"/>
      <point x="208" y="353" type="curve" smooth="yes"/>
      <point x="208" y="476"/>
      <point x="281" y="555"/>
      <point x="394" y="555" type="curve" smooth="yes"/>
      <point x="506" y="555"/>
      <point x="579" y="476"/>
    </contour>
  </outline>
</glyph>
<glyph name="P" format="1">
  <advance width="638"/>
  <unicode hex="0050"/>
  <outline>
    <contour>
      <point x="246" y="403" type="line"/>
      <point x="246" y="572" type="line"/>
      <point x="352" y="572" type="line" smooth="yes"/>
      <point x="404" y="572"/>
      <point x="436" y="536"/>
      <point x="436" y="487" type="curve" smooth="yes"/>
      <point x="436" y="437"/>
      <point x="404" y="403"/>
      <point x="352" y="403" type="curve" smooth="yes"/>
    </contour>
    <contour>
      <point x="610" y="487" type="curve" smooth="yes"/>
      <point x="610" y="598"/>
      <point x="524" y="702"/>
      <point x="352" y="702" type="curve" smooth="yes"/>
      <point x="75" y="702" type="line"/>
      <point x="75" y="0" type="line"/>
      <point x="246" y="0" type="line"/>
      <point x="246" y="273" type="line"/>
      <point x="352" y="273" type="line" smooth="yes"/>
      <point x="558" y="273"/>
      <point x="610" y="406"/>
    </contour>
  </outline>
</glyph>
<glyph name="Q" format="1">
  <advance width="794"/>
  <unicode hex="0051"/>
  <outline>
    <contour>
      <point x="417" y="75" type="line"/>
      <point x="556" y="-115" type="line"/>
      <point x="763" y="-115" type="line"/>
      <point x="590" y="107" type="line"/>
    </contour>
    <component base="O"/>
  </outline>
</glyph>
<glyph name="S" format="1">
  <advance width="647"/>
  <unicode hex="0053"/>
  <outline>
    <contour>
      <point x="324" y="704" type="move" name="top"/>
    </contour>
    <contour>
      <point x="324" y="0" type="move" name="bottom"/>
    </contour>
    <contour>
      <point x="240" y="508" type="curve" smooth="yes"/>
      <point x="240" y="558"/>
      <point x="274" y="577"/>
      <point x="314" y="577" type="curve" smooth="yes"/>
      <point x="354" y="577"/>
      <point x="385" y="550"/>
      <point x="390" y="498" type="curve"/>
      <point x="576" y="498" type="line"/>
      <point x="572" y="654"/>
      <point x="462" y="712"/>
      <point x="316" y="712" type="curve" smooth="yes"/>
      <point x="174" y="712"/>
      <point x="60" y="630"/>
      <point x="60" y="496" type="curve" smooth="yes"/>
      <point x="60" y="250"/>
      <point x="407" y="338"/>
      <point x="407" y="199" type="curve" smooth="yes"/>
      <point x="407" y="156"/>
      <point x="377" y="128"/>
      <point x="328" y="128" type="curve" smooth="yes"/>
      <point x="279" y="128"/>
      <point x="247" y="152"/>
      <point x="242" y="212" type="curve"/>
      <point x="60" y="212" type="line"/>
      <point x="60" y="69"/>
      <point x="168" y="-7"/>
      <point x="328" y="-7" type="curve" smooth="yes"/>
      <point x="483" y="-7"/>
      <point x="587" y="93"/>
      <point x="587" y="209" type="curve" smooth="yes"/>
      <point x="587" y="460"/>
      <point x="240" y="364"/>
    </contour>
  </outline>
</glyph>
<glyph name="U" format="1">
  <advance width="731"/>
  <unicode hex="0055"/>
  <outline>
    <contour>
      <point x="528" y="0" type="move" name="ogonek"/>
    </contour>
    <contour>
      <point x="366" y="704" type="move" name="top"/>
    </contour>
    <contour>
      <point x="72" y="283" type="line" smooth="yes"/>
      <point x="72" y="89"/>
      <point x="210" y="-7"/>
      <point x="362" y="-7" type="curve" smooth="yes"/>
      <point x="513" y="-7"/>
      <point x="660" y="89"/>
      <point x="660" y="283" type="curve" smooth="yes"/>
      <point x="660" y="702" type="line"/>
      <point x="489" y="702" type="line"/>
      <point x="489" y="283" type="line" smooth="yes"/>
      <point x="489" y="200"/>
      <point x="446" y="152"/>
      <point x="365" y="152" type="curve" smooth="yes"/>
      <point x="284" y="152"/>
      <point x="243" y="200"/>
      <point x="243" y="283" type="curve" smooth="yes"/>
      <point x="243" y="702" type="line"/>
      <point x="72" y="702" type="line"/>
    </contour>
  </outline>
</glyph>
<glyph name="V" format="1">
  <advance width="726"/>
  <unicode hex="0056"/>
  <outline>
    <contour>
      <point x="256" y="0" type="line"/>
      <point x="470" y="0" type="line"/>
      <point x="719" y="702" type="line"/>
      <point x="537" y="702" type="line"/>
      <point x="363" y="167" type="line"/>
      <point x="189" y="702" type="line"/>
      <point x="7" y="702" type="line"/>
    </contour>
  </outline>
</glyph>
<glyph name="Z" format="1">
  <advance width="596"/>
  <unicode hex="005A"/>
  <outline>
    <contour>
      <point x="298" y="704" type="move" name="top"/>
    </contour>
    <contour>
      <point x="546" y="702" type="line"/>
      <point x="50" y="702" type="line"/>
      <point x="50" y="572" type="line"/>
      <point x="349" y="572" type="line"/>
      <point x="50" y="130" type="line"/>
      <point x="50" y="0" type="line"/>
      <point x="546" y="0" type="line"/>
      <point x="546" y="130" type="line"/>
      <point x="247" y="130" type="line"/>
      <point x="546" y="572" type="line"/>
    </contour>
  </outline>
</glyph>
<glyph name="bracketleft" format="1">
  <advance width="510"/>
  <unicode hex="005B"/>
  <outline>
    <contour>
      <point x="120" y="-188" type="line"/>
      <point x="420" y="-188" type="line"/>
      <point x="420" y="-49" type="line"/>
      <point x="280" y="-49" type="line"/>
      <point x="280" y="811" type="line"/>
      <point x="420" y="811" type="line"/>
      <point x="420" y="950" type="line"/>
      <point x="120" y="950" type="line"/>
    </contour>
  </outline>
</glyph>
<glyph name="backslash" format="1">
  <advance width="802"/>
  <unicode hex="005C"/>
  <outline>
    <contour>
      <point x="348" y="950" type="line"/>
      <point x="348" y="950"/>
      <point x="183" y="950"/>
      <point x="183" y="950" type="curve"/>
      <point x="451" y="-187" type="line"/>
      <point x="451" y="-187"/>
      <point x="616" y="-187"/>
      <point x="616" y="-187" type="curve"/>
    </contour>
  </outline>
</glyph>
<glyph name="bracketright" format="1">
  <advance width="508"/>
  <unicode hex="005D"/>
  <outline>
    <contour>
      <point x="389" y="950" type="line"/>
      <point x="89" y="950" type="line"/>
      <point x="89" y="811" type="line"/>
      <point x="229" y="811" type="line"/>
      <point x="229" y="-49" type="line"/>
      <point x="89" y="-49" type="line"/>
      <point x="89" y="-188" type="line"/>
      <point x="389" y="-188" type="line"/>
    </contour>
  </outline>
</glyph>
<glyph name="asciicircum" format="1">
  <advance width="709"/>
  <unicode hex="005E"/>
  <outline>
    <contour>
      <point x="507" y="165" type="line"/>
      <point x="679" y="165" type="line"/>
      <point x="438" y="704" type="line"/>
      <point x="272" y="704" type="line"/>
      <point x="30" y="165" type="line"/>
      <point x="202" y="165" type="line"/>
      <point x="355" y="506" type="line"/>
    </contour>
  </outline>
</glyph>
<glyph name="underscore" format="1">
  <advance width="780"/>
  <unicode hex="005F"/>
  <outline>
    <contour>
      <point x="85" y="-205" type="line"/>
      <point x="705" y="-205" type="line"/>
      <point x="705" y="-41" type="line"/>
      <point x="85" y="-41" type="line"/>
    </contour>
  </outline>
</glyph>
<glyph name="grave" format="1">
  <advance width="291"/>
  <unicode hex="0060"/>
  <outline>
    <contour>
      <point x="135" y="558" type="move" name="_top"/>
    </contour>
    <contour>
      <point x="10" y="697" type="line"/>
      <point x="251" y="596" type="line"/>
      <point x="251" y="714" type="line"/>
      <point x="10" y="830" type="line"/>
    </contour>
  </outline>
</glyph>
<glyph name="b" format="1">
  <advance width="698"/>
  <unicode hex="0062"/>
  <outline>
    <contour>
      <point x="246" y="485" type="curve"/>
      <point x="246" y="740" type="line"/>
      <point x="75" y="740" type="line"/>
      <point x="75" y="0" type="line"/>
      <point x="246" y="0" type="line"/>
      <point x="246" y="81" type="line"/>
      <point x="283" y="27"/>
      <point x="336" y="-7"/>
      <point x="410" y="-7" type="curve" smooth="yes"/>
      <point x="549" y="-7"/>
      <point x="664" y="108"/>
      <point x="664" y="278" type="curve" smooth="yes"/>
      <point x="664" y="448"/>
      <point x="549" y="564"/>
      <point x="410" y="564" type="curve" smooth="yes"/>
      <point x="336" y="564"/>
      <point x="282" y="535"/>
    </contour>
    <contour>
      <point x="490" y="278" type="curve" smooth="yes"/>
      <point x="490" y="184"/>
      <point x="426" y="141"/>
      <point x="368" y="141" type="curve" smooth="yes"/>
      <point x="310" y="141"/>
      <point x="246" y="185"/>
      <point x="246" y="279" type="curve" smooth="yes"/>
      <point x="246" y="373"/>
      <point x="310" y="416"/>
      <point x="368" y="416" type="curve" smooth="yes"/>
      <point x="426" y="416"/>
      <point x="490" y="372"/>
    </contour>
  </outline>
</glyph>
<glyph name="c" format="1">
  <advance width="600"/>
  <unicode hex="0063"/>
  <outline>
    <contour>
      <point x="300" y="558" type="move" name="top"/>
    </contour>
    <contour>
      <point x="300" y="0" type="move" name="bottom"/>
    </contour>
    <contour>
      <point x="34" y="279" type="curve"/>
      <point x="34" y="103"/>
      <point x="151" y="-7"/>
      <point x="312" y="-7" type="curve" smooth="yes"/>
      <point x="446" y="-7"/>
      <point x="548" y="69"/>
      <point x="579" y="189" type="curve"/>
      <point x="394" y="189" type="line"/>
      <point x="375" y="152"/>
      <point x="355" y="139"/>
      <point x="312" y="139" type="curve" smooth="yes"/>
      <point x="242" y="139"/>
      <point x="208" y="198"/>
      <point x="208" y="279" type="curve" smooth="yes"/>
      <point x="208" y="359"/>
      <point x="242" y="419"/>
      <point x="312" y="419" type="curve" smooth="yes"/>
      <point x="355" y="419"/>
      <point x="380" y="398"/>
      <point x="394" y="369" type="curve"/>
      <point x="579" y="369" type="line"/>
      <point x="548" y="496"/>
      <point x="446" y="564"/>
      <point x="312" y="564" type="curve" smooth="yes"/>
      <point x="151" y="564"/>
      <point x="34" y="455"/>
    </contour>
  </outline>
</glyph>
<glyph name="f" format="1">
  <advance width="336"/>
  <unicode hex="0066"/>
  <outline>
    <contour>
      <point x="77" y="0" type="line"/>
      <point x="248" y="0" type="line"/>
      <point x="248" y="579" type="line" smooth="yes"/>
      <point x="248" y="624"/>
      <point x="266" y="638"/>
      <point x="311" y="638" type="curve"/>
      <point x="311" y="783" type="line"/>
      <point x="151" y="783"/>
      <point x="77" y="721"/>
      <point x="77" y="579" type="curve" smooth="yes"/>
    </contour>
    <contour>
      <point x="25" y="416" type="line"/>
      <point x="319" y="416" type="line"/>
      <point x="319" y="558" type="line"/>
      <point x="25" y="558" type="line"/>
    </contour>
  </outline>
</glyph>
<glyph name="j" format="1">
  <advance width="321"/>
  <unicode hex="006A"/>
  <outline>
    <contour>
      <point x="160" y="592" type="curve" smooth="yes"/>
      <point x="216" y="592"/>
      <point x="260" y="636"/>
      <point x="260" y="692" type="curve" smooth="yes"/>
      <point x="260" y="749"/>
      <point x="216" y="793"/>
      <point x="160" y="793" type="curve" smooth="yes"/>
      <point x="104" y="793"/>
      <point x="60" y="749"/>
      <point x="60" y="692" type="curve" smooth="yes"/>
      <point x="60" y="636"/>
      <point x="104" y="592"/>
    </contour>
    <contour>
      <point x="75" y="558" type="line"/>
      <point x="75" y="-82" type="line" smooth="yes"/>
      <point x="75" y="-108"/>
      <point x="61" y="-121"/>
      <point x="23" y="-121" type="curve" smooth="yes"/>
      <point x="-18" y="-121" type="line"/>
      <point x="-18" y="-266" type="line"/>
      <point x="49" y="-266" type="line" smooth="yes"/>
      <point x="165" y="-266"/>
      <point x="246" y="-224"/>
      <point x="246" y="-82" type="curve" smooth="yes"/>
      <point x="246" y="558" type="line"/>
    </contour>
  </outline>
</glyph>
<glyph name="m" format="1">
  <advance width="1084"/>
  <unicode hex="006D"/>
  <outline>
    <contour>
      <point x="75" y="0" type="line"/>
      <point x="246" y="0" type="line"/>
      <point x="246" y="558" type="line"/>
      <point x="75" y="558" type="line"/>
    </contour>
    <contour>
      <point x="460" y="0" type="line"/>
      <point x="630" y="0" type="line"/>
      <point x="630" y="326" type="line" smooth="yes"/>
      <point x="630" y="476"/>
      <point x="540" y="564"/>
      <point x="415" y="564" type="curve" smooth="yes"/>
      <point x="318" y="564"/>
      <point x="250" y="510"/>
      <point x="227" y="432" type="curve"/>
      <point x="246" y="303" type="line"/>
      <point x="246" y="376"/>
      <point x="288" y="416"/>
      <point x="353" y="416" type="curve" smooth="yes"/>
      <point x="418" y="416"/>
      <point x="460" y="376"/>
      <point x="460" y="303" type="curve" smooth="yes"/>
    </contour>
    <contour>
      <point x="844" y="0" type="line"/>
      <point x="1014" y="0" type="line"/>
      <point x="1014" y="326" type="line" smooth="yes"/>
      <point x="1014" y="476"/>
      <point x="927" y="564"/>
      <point x="792" y="564" type="curve" smooth="yes"/>
      <point x="687" y="564"/>
      <point x="609" y="494"/>
      <point x="579" y="409" type="curve"/>
      <point x="630" y="303" type="line"/>
      <point x="630" y="376"/>
      <point x="672" y="416"/>
      <point x="737" y="416" type="curve" smooth="yes"/>
      <point x="802" y="416"/>
      <point x="844" y="376"/>
      <point x="844" y="303" type="curve" smooth="yes"/>
    </contour>
  </outline>
</glyph>
<glyph name="n" format="1">
  <advance width="700"/>
  <unicode hex="006E"/>
  <outline>
    <contour>
      <point x="374" y="558" type="move" name="top"/>
    </contour>
    <contour>
      <point x="350" y="0" type="move" name="bottom"/>
    </contour>
    <contour>
      <point x="75" y="0" type="line"/>
      <point x="246" y="0" type="line"/>
      <point x="246" y="558" type="line"/>
      <point x="75" y="558" type="line"/>
    </contour>
    <contour>
      <point x="460" y="0" type="line"/>
      <point x="630" y="0" type="line"/>
      <point x="630" y="326" type="line" smooth="yes"/>
      <point x="630" y="476"/>
      <point x="540" y="564"/>
      <point x="415" y="564" type="curve" smooth="yes"/>
      <point x="318" y="564"/>
      <point x="250" y="510"/>
      <point x="227" y="432" type="curve"/>
      <point x="246" y="303" type="line"/>
      <point x="246" y="376"/>
      <point x="288" y="416"/>
      <point x="353" y="416" type="curve" smooth="yes"/>
      <point x="418" y="416"/>
      <point x="460" y="376"/>
      <point x="460" y="303" type="curve" smooth="yes"/>
    </contour>
  </outline>
</glyph>
<glyph name="r" format="1">
  <advance width="424"/>
  <unicode hex="0072"/>
  <outline>
    <contour>
      <point x="272" y="558" type="move" name="top"/>
    </contour>
    <contour>
      <point x="157" y="0" type="move" name="bottom"/>
    </contour>
    <contour>
      <point x="246" y="264" type="line"/>
      <point x="246" y="361"/>
      <point x="289" y="390"/>
      <point x="364" y="390" type="curve" smooth="yes"/>
      <point x="406" y="390" type="line"/>
      <point x="406" y="564" type="line"/>
      <point x="282" y="564"/>
      <point x="201" y="420"/>
      <point x="201" y="264" type="curve"/>
    </contour>
    <contour>
      <point x="75" y="0" type="line"/>
      <point x="246" y="0" type="line"/>
      <point x="246" y="558" type="line"/>
      <point x="75" y="558" type="line"/>
    </contour>
  </outline>
</glyph>
<glyph name="t" format="1">
  <advance width="415"/>
  <unicode hex="0074"/>
  <outline>
    <contour>
      <point x="208" y="0" type="move" name="bottom"/>
    </contour>
    <contour>
      <point x="245" y="888" type="move" name="topright"/>
    </contour>
    <contour>
      <point x="89" y="184" type="line" smooth="yes"/>
      <point x="89" y="42"/>
      <point x="170" y="0"/>
      <point x="286" y="0" type="curve" smooth="yes"/>
      <point x="373" y="0" type="line"/>
      <point x="373" y="145" type="line"/>
      <point x="312" y="145" type="line" smooth="yes"/>
      <point x="274" y="145"/>
      <point x="260" y="158"/>
      <point x="260" y="184" type="curve" smooth="yes"/>
      <point x="260" y="694" type="line"/>
      <point x="89" y="694" type="line"/>
    </contour>
    <contour>
      <point x="372" y="416" type="line"/>
      <point x="372" y="558" type="line"/>
      <point x="37" y="558" type="line"/>
      <point x="37" y="416" type="line"/>
    </contour>
  </outline>
</glyph>
<glyph name="u" format="1">
  <advance width="700"/>
  <unicode hex="0075"/>
  <outline>
    <contour>
      <point x="625" y="-2" type="move" name="ogonek"/>
    </contour>
    <contour>
      <point x="350" y="558" type="move" name="top"/>
    </contour>
    <contour>
      <point x="625" y="558" type="line"/>
      <point x="454" y="558" type="line"/>
      <point x="454" y="0" type="line"/>
      <point x="625" y="0" type="line"/>
    </contour>
    <contour>
      <point x="240" y="558" type="line"/>
      <point x="70" y="558" type="line"/>
      <point x="70" y="232" type="line" smooth="yes"/>
      <point x="70" y="82"/>
      <point x="160" y="-6"/>
      <point x="285" y="-6" type="curve" smooth="yes"/>
      <point x="382" y="-6"/>
      <point x="450" y="48"/>
      <point x="473" y="126" type="curve"/>
      <point x="454" y="255" type="line"/>
      <point x="454" y="182"/>
      <point x="412" y="142"/>
      <point x="347" y="142" type="curve" smooth="yes"/>
      <point x="282" y="142"/>
      <point x="240" y="182"/>
      <point x="240" y="255" type="curve" smooth="yes"/>
    </contour>
  </outline>
</glyph>
<glyph name="v" format="1">
  <advance width="626"/>
  <unicode hex="0076"/>
  <outline>
    <contour>
      <point x="4" y="558" type="line"/>
      <point x="202" y="0" type="line"/>
      <point x="424" y="0" type="line"/>
      <point x="622" y="558" type="line"/>
      <point x="440" y="558" type="line"/>
      <point x="313" y="143" type="line"/>
      <point x="186" y="558" type="line"/>
    </contour>
  </outline>
</glyph>
<glyph name="w" format="1">
  <advance width="866"/>
  <unicode hex="0077"/>
  <outline>
    <contour>
      <point x="171" y="0" type="line"/>
      <point x="355" y="0" type="line"/>
      <point x="461" y="441" type="line"/>
      <point x="408" y="441" type="line"/>
      <point x="512" y="0" type="line"/>
      <point x="696" y="0" type="line"/>
      <point x="863" y="558" type="line"/>
      <point x="702" y="558" type="line"/>
      <point x="587" y="39" type="line"/>
      <point x="643" y="39" type="line"/>
      <point x="529" y="558" type="line"/>
      <point x="348" y="558" type="line"/>
      <point x="234" y="39" type="line"/>
      <point x="290" y="39" type="line"/>
      <point x="175" y="558" type="line"/>
      <point x="4" y="558" type="line"/>
    </contour>
  </outline>
</glyph>
<glyph name="x" format="1">
  <advance width="549"/>
  <unicode hex="0078"/>
  <outline>
    <contour>
      <point x="354" y="0" type="line"/>
      <point x="546" y="0" type="line"/>
      <point x="196" y="558" type="line"/>
      <point x="4" y="558" type="line"/>
    </contour>
    <contour>
      <point x="232" y="340" type="line"/>
      <point x="4" y="0" type="line"/>
      <point x="173" y="0" type="line"/>
      <point x="305" y="213" type="line"/>
    </contour>
    <contour>
      <point x="319" y="218" type="line"/>
      <point x="546" y="558" type="line"/>
      <point x="377" y="558" type="line"/>
      <point x="245" y="345" type="line"/>
    </contour>
  </outline>
</glyph>
<glyph name="y" format="1">
  <advance width="641"/>
  <unicode hex="0079"/>
  <outline>
    <contour>
      <point x="321" y="558" type="move" name="top"/>
    </contour>
    <contour>
      <point x="221" y="11" type="line"/>
      <point x="102" y="-266" type="line"/>
      <point x="281" y="-266" type="line"/>
      <point x="637" y="558" type="line"/>
      <point x="458" y="558" type="line"/>
      <point x="322" y="193" type="line"/>
      <point x="198" y="558" type="line"/>
      <point x="4" y="558" type="line"/>
    </contour>
  </outline>
</glyph>
<glyph name="braceleft" format="1">
  <advance width="527"/>
  <unicode hex="007B"/>
  <outline>
    <contour>
      <point x="239" y="373" type="line"/>
      <point x="312" y="387"/>
      <point x="345" y="426"/>
      <point x="345" y="492" type="curve"/>
      <point x="345" y="557"/>
      <point x="329" y="609"/>
      <point x="329" y="683" type="curve" smooth="yes"/>
      <point x="329" y="819"/>
      <point x="387" y="916"/>
      <point x="465" y="945" type="curve"/>
      <point x="465" y="961" type="line"/>
      <point x="291" y="961" type="line"/>
      <point x="253" y="944"/>
      <point x="159" y="885"/>
      <point x="159" y="700" type="curve" smooth="yes"/>
      <point x="159" y="628"/>
      <point x="176" y="575"/>
      <point x="176" y="506" type="curve" smooth="yes"/>
      <point x="176" y="461"/>
      <point x="155" y="404"/>
      <point x="79" y="402" type="curve"/>
      <point x="79" y="342" type="line"/>
      <point x="155" y="340"/>
      <point x="176" y="283"/>
      <point x="176" y="238" type="curve" smooth="yes"/>
      <point x="176" y="169"/>
      <point x="159" y="116"/>
      <point x="159" y="44" type="curve" smooth="yes"/>
      <point x="159" y="-141"/>
      <point x="253" y="-200"/>
      <point x="291" y="-217" type="curve"/>
      <point x="465" y="-217" type="line"/>
      <point x="465" y="-201" type="line"/>
      <point x="387" y="-172"/>
      <point x="329" y="-75"/>
      <point x="329" y="61" type="curve" smooth="yes"/>
      <point x="329" y="135"/>
      <point x="345" y="187"/>
      <point x="345" y="252" type="curve" smooth="yes"/>
      <point x="345" y="318"/>
      <point x="312" y="357"/>
      <point x="239" y="371" type="curve"/>
    </contour>
  </outline>
</glyph>
<glyph name="asciitilde" format="1">
  <advance width="631"/>
  <unicode hex="007E"/>
  <outline>
    <contour>
      <point x="30" y="208" type="curve"/>
      <point x="150" y="208" type="line"/>
      <point x="157" y="253"/>
      <point x="180" y="274"/>
      <point x="214" y="274" type="curve" smooth="yes"/>
      <point x="273" y="274"/>
      <point x="318" y="208"/>
      <point x="406" y="208" type="curve" smooth="yes"/>
      <point x="505" y="208"/>
      <point x="576" y="271"/>
      <point x="601" y="425" type="curve"/>
      <point x="479" y="425" type="line"/>
      <point x="473" y="379"/>
      <point x="450" y="359"/>
      <point x="416" y="359" type="curve" smooth="yes"/>
      <point x="358" y="359"/>
      <point x="312" y="425"/>
      <point x="224" y="425" type="curve" smooth="yes"/>
      <point x="125" y="425"/>
      <point x="55" y="362"/>
    </contour>
  </outline>
</glyph>
<glyph name="cent" format="1">
  <advance width="630"/>
  <unicode hex="00A2"/>
  <outline>
    <contour>
      <point x="327" y="379" type="curve" smooth="yes"/>
      <point x="373" y="379"/>
      <point x="408" y="360"/>
      <point x="418" y="322" type="curve"/>
      <point x="575" y="322" type="line"/>
      <point x="570" y="444"/>
      <point x="458" y="517"/>
      <point x="327" y="517" type="curve" smooth="yes"/>
      <point x="150" y="517"/>
      <point x="55" y="414"/>
      <point x="55" y="256" type="curve"/>
      <point x="55" y="98"/>
      <point x="150" y="-5"/>
      <point x="327" y="-5" type="curve" smooth="yes"/>
      <point x="458" y="-5"/>
      <point x="570" y="68"/>
      <point x="575" y="190" type="curve"/>
      <point x="418" y="190" type="line"/>
      <point x="408" y="152"/>
      <point x="373" y="133"/>
      <point x="327" y="133" type="curve" smooth="yes"/>
      <point x="258" y="133"/>
      <point x="218" y="179"/>
      <point x="218" y="256" type="curve"/>
      <point x="218" y="333"/>
      <point x="258" y="379"/>
    </contour>
    <contour>
      <point x="286" y="406" type="line"/>
      <point x="365" y="406" type="line"/>
      <point x="365" y="597" type="line"/>
      <point x="365" y="597"/>
      <point x="286" y="597"/>
      <point x="286" y="597" type="curve"/>
    </contour>
    <contour>
      <point x="286" y="-85" type="line"/>
      <point x="365" y="-85" type="line"/>
      <point x="365" y="106" type="line"/>
      <point x="365" y="106"/>
      <point x="286" y="106"/>
      <point x="286" y="106" type="curve"/>
    </contour>
  </outline>
</glyph>
<glyph name="sterling" format="1">
  <advance width="663"/>
  <unicode hex="00A3"/>
  <outline>
    <contour>
      <point x="98" y="516" type="curve"/>
      <point x="98" y="409"/>
      <point x="145" y="341"/>
      <point x="145" y="285" type="curve" smooth="yes"/>
      <point x="145" y="190"/>
      <point x="115" y="134"/>
      <point x="54" y="80" type="curve"/>
      <point x="78" y="-4" type="line"/>
      <point x="588" y="-4" type="line"/>
      <point x="588" y="-4"/>
      <point x="588" y="130"/>
      <point x="588" y="130" type="curve"/>
      <point x="588" y="130"/>
      <point x="241" y="130"/>
      <point x="241" y="130" type="curve"/>
      <point x="291" y="175"/>
      <point x="307" y="239"/>
      <point x="307" y="284" type="curve"/>
      <point x="307" y="358"/>
      <point x="260" y="417"/>
      <point x="260" y="509" type="curve"/>
      <point x="260" y="575"/>
      <point x="290" y="607"/>
      <point x="345" y="607" type="curve" smooth="yes"/>
      <point x="405" y="607"/>
      <point x="427" y="570"/>
      <point x="427" y="520" type="curve"/>
      <point x="584" y="520" type="line"/>
      <point x="584" y="642"/>
      <point x="509" y="747"/>
      <point x="348" y="747" type="curve" smooth="yes"/>
      <point x="198" y="747"/>
      <point x="98" y="673"/>
    </contour>
    <contour>
      <point x="36" y="402" type="curve"/>
      <point x="36" y="287" type="line"/>
      <point x="463" y="287" type="line"/>
      <point x="463" y="402" type="line"/>
      <point x="463" y="402"/>
      <point x="36" y="402"/>
    </contour>
  </outline>
</glyph>
<glyph name="currency" format="1">
  <advance width="577"/>
  <unicode hex="00A4"/>
  <outline>
    <contour>
      <point x="82" y="378" type="curve" smooth="yes"/>
      <point x="82" y="267"/>
      <point x="168" y="196"/>
      <point x="290" y="196" type="curve" smooth="yes"/>
      <point x="412" y="196"/>
      <point x="495" y="267"/>
      <point x="495" y="378" type="curve" smooth="yes"/>
      <point x="495" y="490"/>
      <point x="411" y="558"/>
      <point x="289" y="558" type="curve" smooth="yes"/>
      <point x="167" y="558"/>
      <point x="82" y="490"/>
    </contour>
    <contour>
      <point x="363" y="377" type="curve" smooth="yes"/>
      <point x="363" y="316"/>
      <point x="326" y="289"/>
      <point x="290" y="289" type="curve" smooth="yes"/>
      <point x="253" y="289"/>
      <point x="214" y="316"/>
      <point x="214" y="377" type="curve" smooth="yes"/>
      <point x="214" y="439"/>
      <point x="252" y="466"/>
      <point x="289" y="466" type="curve" smooth="yes"/>
      <point x="325" y="466"/>
      <point x="363" y="439"/>
    </contour>
    <contour>
      <point x="352" y="249" type="line"/>
      <point x="451" y="150" type="line"/>
      <point x="517" y="217" type="line"/>
      <point x="423" y="311" type="line"/>
    </contour>
    <contour>
      <point x="159" y="316" type="line"/>
      <point x="60" y="217" type="line"/>
      <point x="126" y="150" type="line"/>
      <point x="241" y="265" type="line"/>
    </contour>
    <contour>
      <point x="232" y="502" type="line"/>
      <point x="126" y="608" type="line"/>
      <point x="60" y="541" type="line"/>
      <point x="155" y="446" type="line"/>
    </contour>
    <contour>
      <point x="410" y="434" type="line"/>
      <point x="517" y="541" type="line"/>
      <point x="451" y="608" type="line"/>
      <point x="345" y="502" type="line"/>
    </contour>
  </outline>
</glyph>
<glyph name="yen" format="1">
  <advance width="687"/>
  <unicode hex="00A5"/>
  <outline>
    <contour>
      <point x="435" y="310" type="line"/>
      <point x="629" y="310" type="line"/>
      <point x="629" y="425" type="line"/>
      <point x="435" y="425" type="line"/>
    </contour>
    <contour>
      <point x="58" y="139" type="line"/>
      <point x="629" y="139" type="line"/>
      <point x="629" y="254" type="line"/>
      <point x="58" y="254" type="line"/>
    </contour>
    <contour>
      <point x="258" y="226" type="line"/>
      <point x="258" y="0" type="line"/>
      <point x="429" y="0" type="line"/>
      <point x="429" y="226" type="line"/>
      <point x="672" y="702" type="line"/>
      <point x="478" y="702" type="line"/>
      <point x="309" y="304" type="line"/>
      <point x="378" y="304" type="line"/>
      <point x="209" y="702" type="line"/>
      <point x="15" y="702" type="line"/>
    </contour>
    <contour>
      <point x="58" y="310" type="line"/>
      <point x="293" y="310" type="line"/>
      <point x="293" y="425" type="line"/>
      <point x="58" y="425" type="line"/>
    </contour>
  </outline>
</glyph>
<glyph name="brokenbar" format="1">
  <advance width="381"/>
  <unicode hex="00A6"/>
  <outline>
    <contour>
      <point x="105" y="281" type="line"/>
      <point x="105" y="-129" type="line"/>
      <point x="276" y="-129" type="line"/>
      <point x="276" y="281" type="line"/>
    </contour>
    <contour>
      <point x="276" y="405" type="line"/>
      <point x="276" y="815" type="line"/>
      <point x="105" y="815" type="line"/>
      <point x="105" y="405" type="line"/>
    </contour>
  </outline>
</glyph>
<glyph name="section" format="1">
  <advance width="587"/>
  <unicode hex="00A7"/>
  <outline>
    <contour>
      <point x="66" y="526" type="curve" smooth="yes"/>
      <point x="66" y="449"/>
      <point x="118" y="391"/>
      <point x="213" y="348" type="curve"/>
      <point x="234" y="432" type="line"/>
      <point x="82" y="402"/>
      <point x="30" y="328"/>
      <point x="30" y="244" type="curve" smooth="yes"/>
      <point x="30" y="160"/>
      <point x="92" y="104"/>
      <point x="196" y="59" type="curve" smooth="yes"/>
      <point x="314" y="8"/>
      <point x="346" y="-13"/>
      <point x="346" y="-56" type="curve" smooth="yes"/>
      <point x="346" y="-91"/>
      <point x="327" y="-108"/>
      <point x="297" y="-108" type="curve" smooth="yes"/>
      <point x="267" y="-108"/>
      <point x="247" y="-87"/>
      <point x="243" y="-35" type="curve"/>
      <point x="66" y="-35" type="line"/>
      <point x="66" y="-159"/>
      <point x="159" y="-224"/>
      <point x="297" y="-224" type="curve" smooth="yes"/>
      <point x="431" y="-224"/>
      <point x="521" y="-136"/>
      <point x="521" y="-38" type="curve" smooth="yes"/>
      <point x="521" y="39"/>
      <point x="469" y="97"/>
      <point x="374" y="140" type="curve"/>
      <point x="353" y="46" type="line"/>
      <point x="505" y="96"/>
      <point x="557" y="160"/>
      <point x="557" y="244" type="curve" smooth="yes"/>
      <point x="557" y="328"/>
      <point x="495" y="384"/>
      <point x="391" y="429" type="curve" smooth="yes"/>
      <point x="273" y="480"/>
      <point x="241" y="501"/>
      <point x="241" y="544" type="curve" smooth="yes"/>
      <point x="241" y="579"/>
      <point x="260" y="596"/>
      <point x="290" y="596" type="curve" smooth="yes"/>
      <point x="320" y="596"/>
      <point x="340" y="575"/>
      <point x="344" y="523" type="curve"/>
      <point x="521" y="523" type="line"/>
      <point x="521" y="647"/>
      <point x="428" y="712"/>
      <point x="290" y="712" type="curve" smooth="yes"/>
      <point x="156" y="712"/>
      <point x="66" y="624"/>
    </contour>
    <contour>
      <point x="377" y="244" type="curve" smooth="yes"/>
      <point x="377" y="201"/>
      <point x="346" y="166"/>
      <point x="294" y="166" type="curve" smooth="yes"/>
      <point x="242" y="166"/>
      <point x="211" y="201"/>
      <point x="211" y="244" type="curve" smooth="yes"/>
      <point x="211" y="287"/>
      <point x="242" y="322"/>
      <point x="294" y="322" type="curve" smooth="yes"/>
      <point x="346" y="322"/>
      <point x="377" y="287"/>
    </contour>
  </outline>
</glyph>
<glyph name="ordfeminine" format="1">
  <advance width="469"/>
  <unicode hex="00AA"/>
  <outline>
    <contour>
      <point x="25" y="528" type="curve" smooth="yes"/>
      <point x="25" y="421"/>
      <point x="104" y="347"/>
      <point x="197" y="347" type="curve" smooth="yes"/>
      <point x="253" y="347"/>
      <point x="289" y="368"/>
      <point x="310" y="402" type="curve"/>
      <point x="310" y="352" type="line"/>
      <point x="439" y="352" type="line"/>
      <point x="439" y="704" type="line"/>
      <point x="310" y="704" type="line"/>
      <point x="310" y="654" type="line"/>
      <point x="289" y="688"/>
      <point x="253" y="709"/>
      <point x="197" y="709" type="curve" smooth="yes"/>
      <point x="104" y="709"/>
      <point x="25" y="635"/>
    </contour>
    <contour>
      <point x="310" y="528" type="curve" smooth="yes"/>
      <point x="310" y="468"/>
      <point x="271" y="441"/>
      <point x="233" y="441" type="curve" smooth="yes"/>
      <point x="196" y="441"/>
      <point x="157" y="467"/>
      <point x="157" y="527" type="curve" smooth="yes"/>
      <point x="157" y="586"/>
      <point x="196" y="614"/>
      <point x="233" y="614" type="curve" smooth="yes"/>
      <point x="271" y="614"/>
      <point x="310" y="587"/>
    </contour>
  </outline>
</glyph>
<glyph name="guillemotleft" format="1">
  <advance width="557"/>
  <unicode hex="00AB"/>
  <outline>
    <contour>
      <point x="200" y="295" type="line"/>
      <point x="287" y="470" type="line"/>
      <point x="129" y="470" type="line"/>
      <point x="45" y="295" type="line"/>
      <point x="129" y="120" type="line"/>
      <point x="287" y="120" type="line"/>
    </contour>
    <contour>
      <point x="420" y="295" type="line"/>
      <point x="507" y="470" type="line"/>
      <point x="349" y="470" type="line"/>
      <point x="265" y="295" type="line"/>
      <point x="349" y="120" type="line"/>
      <point x="507" y="120" type="line"/>
    </contour>
  </outline>
</glyph>
<glyph name="logicalnot" format="1">
  <advance width="772"/>
  <unicode hex="00AC"/>
  <outline>
    <contour>
      <point x="30" y="312" type="line"/>
      <point x="541" y="312" type="line"/>
      <point x="541" y="180" type="line"/>
      <point x="712" y="180" type="line"/>
      <point x="712" y="442" type="line"/>
      <point x="30" y="442" type="line"/>
    </contour>
  </outline>
</glyph>
<glyph name="macron" format="1">
  <advance width="420"/>
  <unicode hex="00AF"/>
  <outline>
    <contour>
      <point x="210" y="558" type="move" name="_top"/>
    </contour>
    <contour>
      <point x="10" y="628" type="line"/>
      <point x="410" y="628" type="line"/>
      <point x="410" y="746" type="line"/>
      <point x="10" y="746" type="line"/>
    </contour>
  </outline>
</glyph>
<glyph name="plusminus" format="1">
  <advance width="650"/>
  <unicode hex="00B1"/>
  <outline>
    <contour>
      <point x="243" y="615" type="line"/>
      <point x="243" y="155" type="line"/>
      <point x="407" y="155" type="line"/>
      <point x="407" y="615" type="line"/>
    </contour>
    <contour>
      <point x="70" y="356" type="line"/>
      <point x="580" y="356" type="line"/>
      <point x="580" y="510" type="line"/>
      <point x="70" y="510" type="line"/>
    </contour>
    <contour>
      <point x="70" y="109" type="line"/>
      <point x="580" y="109" type="line"/>
      <point x="580" y="263" type="line"/>
      <point x="70" y="263" type="line"/>
    </contour>
  </outline>
</glyph>
<glyph name="twosuperior" format="1">
  <advance width="383"/>
  <unicode hex="00B2"/>
  <outline>
    <contour>
      <point x="37" y="592" type="curve"/>
      <point x="167" y="592" type="line"/>
      <point x="167" y="610"/>
      <point x="176" y="622"/>
      <point x="192" y="622" type="curve" smooth="yes"/>
      <point x="208" y="622"/>
      <point x="217" y="610"/>
      <point x="217" y="592" type="curve" smooth="yes"/>
      <point x="217" y="567"/>
      <point x="197" y="550"/>
      <point x="161" y="528" type="curve" smooth="yes"/>
      <point x="39" y="453" type="line"/>
      <point x="39" y="352" type="line"/>
      <point x="348" y="352" type="line"/>
      <point x="348" y="452" type="line"/>
      <point x="145" y="452" type="line"/>
      <point x="116" y="423" type="line"/>
      <point x="252" y="491" type="line" smooth="yes"/>
      <point x="321" y="526"/>
      <point x="353" y="553"/>
      <point x="353" y="600" type="curve" smooth="yes"/>
      <point x="353" y="655"/>
      <point x="300" y="714"/>
      <point x="200" y="714" type="curve" smooth="yes"/>
      <point x="100" y="714"/>
      <point x="37" y="667"/>
    </contour>
  </outline>
</glyph>
<glyph name="threesuperior" format="1">
  <advance width="374"/>
  <unicode hex="00B3"/>
  <outline>
    <contour>
      <point x="21" y="592" type="curve"/>
      <point x="141" y="592" type="line"/>
      <point x="141" y="608"/>
      <point x="152" y="623"/>
      <point x="175" y="623" type="curve" smooth="yes"/>
      <point x="192" y="623"/>
      <point x="203" y="615"/>
      <point x="203" y="599" type="curve" smooth="yes"/>
      <point x="203" y="581"/>
      <point x="189" y="574"/>
      <point x="169" y="574" type="curve" smooth="yes"/>
      <point x="153" y="574" type="line"/>
      <point x="153" y="497" type="line"/>
      <point x="175" y="497" type="line" smooth="yes"/>
      <point x="197" y="497"/>
      <point x="210" y="485"/>
      <point x="210" y="468" type="curve" smooth="yes"/>
      <point x="210" y="450"/>
      <point x="197" y="439"/>
      <point x="180" y="439" type="curve" smooth="yes"/>
      <point x="160" y="439"/>
      <point x="148" y="450"/>
      <point x="145" y="470" type="curve"/>
      <point x="15" y="470" type="line"/>
      <point x="15" y="392"/>
      <point x="92" y="348"/>
      <point x="180" y="348" type="curve" smooth="yes"/>
      <point x="275" y="348"/>
      <point x="349" y="387"/>
      <point x="349" y="449" type="curve" smooth="yes"/>
      <point x="349" y="490"/>
      <point x="318" y="517"/>
      <point x="285" y="530" type="curve"/>
      <point x="285" y="533" type="line"/>
      <point x="317" y="542"/>
      <point x="343" y="561"/>
      <point x="343" y="603" type="curve" smooth="yes"/>
      <point x="343" y="661"/>
      <point x="283" y="714"/>
      <point x="190" y="714" type="curve" smooth="yes"/>
      <point x="79" y="714"/>
      <point x="21" y="659"/>
    </contour>
  </outline>
</glyph>
<glyph name="acute" format="1">
  <advance width="261"/>
  <unicode hex="00B4"/>
  <outline>
    <contour>
      <point x="135" y="558" type="move" name="_top"/>
    </contour>
    <contour>
      <point x="10" y="714" type="line"/>
      <point x="10" y="596" type="line"/>
      <point x="251" y="697" type="line"/>
      <point x="251" y="830" type="line"/>
    </contour>
  </outline>
</glyph>
<glyph name="mu.math" format="1">
  <advance width="705"/>
  <unicode hex="00B5"/>
  <outline>
    <contour>
      <point x="630" y="558" type="line"/>
      <point x="459" y="558" type="line"/>
      <point x="459" y="0" type="line"/>
      <point x="630" y="0" type="line"/>
    </contour>
    <contour>
      <point x="459" y="255" type="line"/>
      <point x="459" y="182"/>
      <point x="417" y="142"/>
      <point x="352" y="142" type="curve" smooth="yes"/>
      <point x="287" y="142"/>
      <point x="245" y="182"/>
      <point x="245" y="255" type="curve" smooth="yes"/>
      <point x="245" y="558" type="line"/>
      <point x="75" y="558" type="line"/>
      <point x="75" y="-266" type="line"/>
      <point x="245" y="-266" type="line"/>
      <point x="245" y="3" type="line"/>
      <point x="242" y="-1" type="line"/>
      <point x="257" y="-4"/>
      <point x="273" y="-6"/>
      <point x="290" y="-6" type="curve" smooth="yes"/>
      <point x="387" y="-6"/>
      <point x="455" y="48"/>
      <point x="478" y="126" type="curve"/>
    </contour>
  </outline>
</glyph>
<glyph name="paragraph" format="1">
  <advance width="708"/>
  <unicode hex="00B6"/>
  <outline>
    <contour>
      <point x="266" y="702" type="line" smooth="yes"/>
      <point x="97" y="702"/>
      <point x="28" y="598"/>
      <point x="28" y="487" type="curve" smooth="yes"/>
      <point x="28" y="376"/>
      <point x="97" y="273"/>
      <point x="266" y="273" type="curve" smooth="yes"/>
      <point x="289" y="273" type="line"/>
      <point x="289" y="0" type="line"/>
      <point x="430" y="0" type="line"/>
      <point x="430" y="572" type="line"/>
      <point x="492" y="572" type="line"/>
      <point x="492" y="0" type="line"/>
      <point x="633" y="0" type="line"/>
      <point x="633" y="702" type="line"/>
    </contour>
  </outline>
</glyph>
<glyph name="guillemotright" format="1">
  <advance width="557"/>
  <unicode hex="00BB"/>
  <outline>
    <contour>
      <point x="428" y="120" type="line"/>
      <point x="512" y="295" type="line"/>
      <point x="428" y="470" type="line"/>
      <point x="270" y="470" type="line"/>
      <point x="357" y="295" type="line"/>
      <point x="270" y="120" type="line"/>
    </contour>
    <contour>
      <point x="208" y="120" type="line"/>
      <point x="292" y="295" type="line"/>
      <point x="208" y="470" type="line"/>
      <point x="50" y="470" type="line"/>
      <point x="137" y="295" type="line"/>
      <point x="50" y="120" type="line"/>
    </contour>
  </outline>
</glyph>
<glyph name="onequarter" format="1">
  <advance width="786"/>
  <unicode hex="00BC"/>
  <outline>
    <contour>
      <point x="88" y="0" type="line"/>
      <point x="88" y="0"/>
      <point x="253" y="0"/>
      <point x="253" y="0" type="curve"/>
      <point x="638" y="704" type="line"/>
      <point x="638" y="704"/>
      <point x="473" y="704"/>
      <point x="473" y="704" type="curve"/>
    </contour>
    <contour>
      <point x="716" y="135" type="line"/>
      <point x="716" y="352" type="line"/>
      <point x="527" y="352" type="line"/>
      <point x="392" y="130" type="line"/>
      <point x="392" y="62" type="line"/>
      <point x="587" y="62" type="line"/>
      <point x="587" y="0" type="line"/>
      <point x="716" y="0" type="line"/>
      <point x="716" y="62" type="line"/>
      <point x="756" y="62" type="line"/>
      <point x="756" y="135" type="line"/>
    </contour>
    <contour>
      <point x="515" y="135" type="line"/>
      <point x="593" y="277" type="line"/>
      <point x="593" y="135" type="line"/>
    </contour>
    <component base="onesuperior" xOffset="20"/>
  </outline>
</glyph>
<glyph name="onehalf" format="1">
  <advance width="821"/>
  <unicode hex="00BD"/>
  <outline>
    <contour>
      <point x="88" y="0" type="line"/>
      <point x="88" y="0"/>
      <point x="253" y="0"/>
      <point x="253" y="0" type="curve"/>
      <point x="638" y="704" type="line"/>
      <point x="638" y="704"/>
      <point x="473" y="704"/>
      <point x="473" y="704" type="curve"/>
    </contour>
    <component base="onesuperior" xOffset="20"/>
    <component base="twosuperior" xOffset="409" yOffset="-353"/>
  </outline>
</glyph>
<glyph name="threequarters" format="1">
  <advance width="891"/>
  <unicode hex="00BE"/>
  <outline>
    <contour>
      <point x="203" y="0" type="line"/>
      <point x="203" y="0"/>
      <point x="368" y="0"/>
      <point x="368" y="0" type="curve"/>
      <point x="753" y="704" type="line"/>
      <point x="753" y="704"/>
      <point x="588" y="704"/>
      <point x="588" y="704" type="curve"/>
    </contour>
    <contour>
      <point x="831" y="135" type="line"/>
      <point x="831" y="352" type="line"/>
      <point x="642" y="352" type="line"/>
      <point x="507" y="130" type="line"/>
      <point x="507" y="62" type="line"/>
      <point x="702" y="62" type="line"/>
      <point x="702" y="0" type="line"/>
      <point x="831" y="0" type="line"/>
      <point x="831" y="62" type="line"/>
      <point x="871" y="62" type="line"/>
      <point x="871" y="135" type="line"/>
    </contour>
    <contour>
      <point x="630" y="135" type="line"/>
      <point x="708" y="277" type="line"/>
      <point x="708" y="135" type="line"/>
    </contour>
    <component base="threesuperior" xOffset="35"/>
  </outline>
</glyph>
<glyph name="AE" format="1">
  <advance width="982"/>
  <unicode hex="00C6"/>
  <outline>
    <contour>
      <point x="157" y="118" type="line"/>
      <point x="567" y="118" type="line"/>
      <point x="567" y="248" type="line"/>
      <point x="230" y="248" type="line"/>
    </contour>
    <contour>
      <point x="910" y="574" type="line"/>
      <point x="910" y="704" type="line"/>
      <point x="364" y="704" type="line"/>
      <point x="9" y="0" type="line"/>
      <point x="195" y="0" type="line"/>
      <point x="485" y="592" type="line"/>
      <point x="485" y="0" type="line"/>
      <point x="910" y="0" type="line"/>
      <point x="910" y="130" type="line"/>
      <point x="656" y="130" type="line"/>
      <point x="656" y="293" type="line"/>
      <point x="880" y="293" type="line"/>
      <point x="880" y="423" type="line"/>
      <point x="656" y="423" type="line"/>
      <point x="656" y="574" type="line"/>
    </contour>
  </outline>
</glyph>
<glyph name="multiply" format="1">
  <advance width="653"/>
  <unicode hex="00D7"/>
  <outline>
    <contour>
      <point x="81" y="489" type="line"/>
      <point x="464" y="106" type="line"/>
      <point x="576" y="217" type="line"/>
      <point x="193" y="600" type="line"/>
    </contour>
    <contour>
      <point x="188" y="107" type="line"/>
      <point x="569" y="490" type="line"/>
      <point x="458" y="600" type="line"/>
      <point x="77" y="217" type="line"/>
    </contour>
  </outline>
</glyph>
<glyph name="Oslash" format="1">
  <advance width="788"/>
  <unicode hex="00D8"/>
  <outline>
    <contour>
      <point x="23" y="0" type="line"/>
      <point x="127" y="0" type="line"/>
      <point x="765" y="704" type="line"/>
      <point x="661" y="704" type="line"/>
    </contour>
    <component base="O"/>
  </outline>
</glyph>
<glyph name="ae" format="1">
  <advance width="1099"/>
  <unicode hex="00E6"/>
  <outline>
    <contour>
      <point x="642" y="223" type="line"/>
      <point x="1060" y="223" type="line"/>
      <point x="1063" y="242"/>
      <point x="1064" y="260"/>
      <point x="1064" y="277" type="curve" smooth="yes"/>
      <point x="1064" y="452"/>
      <point x="948" y="564"/>
      <point x="798" y="564" type="curve" smooth="yes"/>
      <point x="731" y="564"/>
      <point x="670" y="540"/>
      <point x="623" y="485" type="curve"/>
      <point x="623" y="558" type="line"/>
      <point x="452" y="558" type="line"/>
      <point x="452" y="485" type="line"/>
      <point x="416" y="535"/>
      <point x="361" y="564"/>
      <point x="288" y="564" type="curve" smooth="yes"/>
      <point x="149" y="564"/>
      <point x="34" y="448"/>
      <point x="34" y="278" type="curve" smooth="yes"/>
      <point x="34" y="108"/>
      <point x="149" y="-7"/>
      <point x="288" y="-7" type="curve" smooth="yes"/>
      <point x="361" y="-7"/>
      <point x="414" y="27"/>
      <point x="452" y="81" type="curve"/>
      <point x="452" y="0" type="line"/>
      <point x="623" y="0" type="line"/>
      <point x="623" y="82" type="line"/>
      <point x="655" y="28"/>
      <point x="731" y="-7"/>
      <point x="809" y="-7" type="curve" smooth="yes"/>
      <point x="925" y="-7"/>
      <point x="1015" y="70"/>
      <point x="1046" y="180" type="curve"/>
      <point x="861" y="180" type="line"/>
      <point x="845" y="156"/>
      <point x="814" y="139"/>
      <point x="770" y="139" type="curve" smooth="yes"/>
      <point x="726" y="139"/>
      <point x="655" y="164"/>
      <point x="655" y="260" type="curve" smooth="yes"/>
      <point x="655" y="308" type="line" smooth="yes"/>
      <point x="655" y="372"/>
      <point x="711" y="418"/>
      <point x="775" y="418" type="curve" smooth="yes"/>
      <point x="839" y="418"/>
      <point x="882" y="383"/>
      <point x="887" y="330" type="curve"/>
      <point x="632" y="330" type="line"/>
    </contour>
    <contour>
      <point x="208" y="278" type="curve" smooth="yes"/>
      <point x="208" y="372"/>
      <point x="272" y="416"/>
      <point x="330" y="416" type="curve" smooth="yes"/>
      <point x="388" y="416"/>
      <point x="452" y="373"/>
      <point x="452" y="279" type="curve" smooth="yes"/>
      <point x="452" y="185"/>
      <point x="388" y="141"/>
      <point x="330" y="141" type="curve" smooth="yes"/>
      <point x="272" y="141"/>
      <point x="208" y="184"/>
    </contour>
  </outline>
</glyph>
<glyph name="divide" format="1">
  <advance width="608"/>
  <unicode hex="00F7"/>
  <outline>
    <contour>
      <point x="296" y="44" type="curve" smooth="yes"/>
      <point x="349" y="44"/>
      <point x="390" y="85"/>
      <point x="390" y="137" type="curve" smooth="yes"/>
      <point x="390" y="190"/>
      <point x="349" y="231"/>
      <point x="296" y="231" type="curve" smooth="yes"/>
      <point x="244" y="231"/>
      <point x="203" y="190"/>
      <point x="203" y="137" type="curve" smooth="yes"/>
      <point x="203" y="85"/>
      <point x="244" y="44"/>
    </contour>
    <contour>
      <point x="296" y="469" type="curve" smooth="yes"/>
      <point x="349" y="469"/>
      <point x="390" y="510"/>
      <point x="390" y="562" type="curve" smooth="yes"/>
      <point x="390" y="615"/>
      <point x="349" y="656"/>
      <point x="296" y="656" type="curve" smooth="yes"/>
      <point x="244" y="656"/>
      <point x="203" y="615"/>
      <point x="203" y="562" type="curve" smooth="yes"/>
      <point x="203" y="510"/>
      <point x="244" y="469"/>
    </contour>
    <contour>
      <point x="42" y="273" type="line"/>
      <point x="552" y="273" type="line"/>
      <point x="552" y="427" type="line"/>
      <point x="42" y="427" type="line"/>
    </contour>
  </outline>
</glyph>
<glyph name="oslash" format="1">
  <advance width="653"/>
  <unicode hex="00F8"/>
  <outline>
    <contour>
      <point x="25" y="0" type="line"/>
      <point x="117" y="0" type="line"/>
      <point x="628" y="558" type="line"/>
      <point x="536" y="558" type="line"/>
    </contour>
    <component base="o" xOffset="1"/>
  </outline>
</glyph>
<glyph name="Aogonek" format="1">
  <advance width="713"/>
  <unicode hex="0104"/>
  <outline>
    <contour>
      <point x="113" y="118" type="line"/>
      <point x="584" y="118" type="line"/>
      <point x="541" y="248" type="line"/>
      <point x="156" y="248" type="line"/>
    </contour>
    <contour>
      <point x="9" y="0" type="line"/>
      <point x="191" y="0" type="line"/>
      <point x="368" y="532" type="line"/>
      <point x="345" y="532" type="line"/>
      <point x="529" y="-25" type="line"/>
      <point x="525" y="0" type="line"/>
      <point x="493" y="-17"/>
      <point x="471" y="-46"/>
      <point x="471" y="-93" type="curve" smooth="yes"/>
      <point x="471" y="-173"/>
      <point x="536" y="-212"/>
      <point x="601" y="-212" type="curve" smooth="yes"/>
      <point x="744" y="-212" type="line"/>
      <point x="744" y="-119" type="line"/>
      <point x="649" y="-119" type="line" smooth="yes"/>
      <point x="614" y="-119"/>
      <point x="593" y="-123"/>
      <point x="593" y="-93" type="curve" smooth="yes"/>
      <point x="593" y="-63"/>
      <point x="614" y="-68"/>
      <point x="649" y="-68" type="curve" smooth="yes"/>
      <point x="704" y="-68" type="line"/>
      <point x="704" y="0" type="line"/>
      <point x="461" y="704" type="line"/>
      <point x="253" y="704" type="line"/>
    </contour>
  </outline>
</glyph>
<glyph name="dcroat" format="1">
  <advance width="698"/>
  <unicode hex="0111"/>
  <outline>
    <contour>
      <point x="376" y="591" type="line"/>
      <point x="679" y="591" type="line"/>
      <point x="679" y="673" type="line"/>
      <point x="376" y="673" type="line"/>
    </contour>
    <component base="d"/>
  </outline>
</glyph>
<glyph name="dotlessi" format="1">
  <advance width="321"/>
  <unicode hex="0131"/>
  <outline>
    <contour>
      <point x="289" y="10" type="move" name="ogonek"/>
    </contour>
    <contour>
      <point x="161" y="558" type="move" name="top"/>
    </contour>
    <contour>
      <point x="75" y="0" type="line"/>
      <point x="246" y="0" type="line"/>
      <point x="246" y="558" type="line"/>
      <point x="75" y="558" type="line"/>
    </contour>
  </outline>
</glyph>
<glyph name="Lslash" format="1">
  <advance width="479"/>
  <unicode hex="0141"/>
  <outline>
    <contour>
      <point x="20" y="239" type="line"/>
      <point x="309" y="309" type="line"/>
      <point x="309" y="473" type="line"/>
      <point x="20" y="403" type="line"/>
    </contour>
    <contour>
      <point x="75" y="702" type="line"/>
      <point x="75" y="0" type="line"/>
      <point x="459" y="0" type="line"/>
      <point x="459" y="130" type="line"/>
      <point x="246" y="130" type="line"/>
      <point x="246" y="702" type="line"/>
    </contour>
  </outline>
</glyph>
<glyph name="Tcedilla" format="1">
  <advance width="608"/>
  <unicode hex="0162"/>
  <outline>
    <contour>
      <point x="27" y="572" type="line"/>
      <point x="218" y="572" type="line"/>
      <point x="218" y="-85" type="line"/>
      <point x="321" y="-85" type="line" smooth="yes"/>
      <point x="355" y="-85"/>
      <point x="367" y="-94"/>
      <point x="367" y="-115" type="curve" smooth="yes"/>
      <point x="367" y="-136"/>
      <point x="355" y="-144"/>
      <point x="321" y="-144" type="curve" smooth="yes"/>
      <point x="166" y="-144" type="line"/>
      <point x="166" y="-237" type="line"/>
      <point x="359" y="-237" type="line" smooth="yes"/>
      <point x="433" y="-237"/>
      <point x="489" y="-195"/>
      <point x="489" y="-115" type="curve" smooth="yes"/>
      <point x="489" y="-34"/>
      <point x="431" y="1"/>
      <point x="356" y="0" type="curve"/>
      <point x="389" y="-14" type="line"/>
      <point x="389" y="572" type="line"/>
      <point x="581" y="572" type="line"/>
      <point x="581" y="702" type="line"/>
      <point x="27" y="702" type="line"/>
    </contour>
  </outline>
</glyph>
<glyph name="tcedilla" format="1">
  <advance width="415"/>
  <unicode hex="0163"/>
  <outline>
    <contour>
      <point x="89" y="184" type="line" smooth="yes"/>
      <point x="89" y="42"/>
      <point x="170" y="0"/>
      <point x="286" y="0" type="curve" smooth="yes"/>
      <point x="373" y="0" type="line"/>
      <point x="373" y="145" type="line"/>
      <point x="312" y="145" type="line" smooth="yes"/>
      <point x="274" y="145"/>
      <point x="260" y="158"/>
      <point x="260" y="184" type="curve" smooth="yes"/>
      <point x="260" y="694" type="line"/>
      <point x="89" y="694" type="line"/>
    </contour>
    <contour>
      <point x="372" y="416" type="line"/>
      <point x="372" y="558" type="line"/>
      <point x="37" y="558" type="line"/>
      <point x="37" y="416" type="line"/>
    </contour>
    <contour>
      <point x="267" y="76" type="line"/>
      <point x="164" y="76" type="line"/>
      <point x="164" y="-122" type="line"/>
      <point x="219" y="-122" type="line" smooth="yes"/>
      <point x="254" y="-122"/>
      <point x="275" y="-117"/>
      <point x="275" y="-147" type="curve" smooth="yes"/>
      <point x="275" y="-177"/>
      <point x="254" y="-173"/>
      <point x="219" y="-173" type="curve" smooth="yes"/>
      <point x="104" y="-173" type="line"/>
      <point x="104" y="-266" type="line"/>
      <point x="267" y="-266" type="line" smooth="yes"/>
      <point x="332" y="-266"/>
      <point x="397" y="-227"/>
      <point x="397" y="-147" type="curve" smooth="yes"/>
      <point x="397" y="-67"/>
      <point x="332" y="-37"/>
      <point x="267" y="-37" type="curve"/>
    </contour>
  </outline>
</glyph>
<glyph name="florin" format="1">
  <advance width="336"/>
  <unicode hex="0192"/>
  <outline>
    <contour>
      <point x="-13" y="416" type="line"/>
      <point x="281" y="416" type="line"/>
      <point x="295" y="558" type="line"/>
      <point x="1" y="558" type="line"/>
    </contour>
    <contour>
      <point x="56" y="579" type="curve" smooth="yes"/>
      <point x="-14" y="-82" type="line" smooth="yes"/>
      <point x="-17" y="-108"/>
      <point x="-28" y="-121"/>
      <point x="-50" y="-121" type="curve" smooth="yes"/>
      <point x="-67" y="-121" type="line"/>
      <point x="-81" y="-266" type="line"/>
      <point x="-64" y="-266" type="line" smooth="yes"/>
      <point x="52" y="-266"/>
      <point x="142" y="-225"/>
      <point x="157" y="-82" type="curve" smooth="yes"/>
      <point x="227" y="579" type="line" smooth="yes"/>
      <point x="232" y="624"/>
      <point x="251" y="638"/>
      <point x="296" y="638" type="curve"/>
      <point x="311" y="783" type="line"/>
      <point x="151" y="783"/>
      <point x="71" y="721"/>
    </contour>
  </outline>
</glyph>
<glyph name="circumflex" format="1">
  <advance width="330"/>
  <unicode hex="02C6"/>
  <outline>
    <contour>
      <point x="165" y="558" type="move" name="_top"/>
    </contour>
    <contour>
      <point x="320" y="712" type="line"/>
      <point x="165" y="796" type="line"/>
      <point x="10" y="712" type="line"/>
      <point x="10" y="594" type="line"/>
      <point x="165" y="681" type="line"/>
      <point x="320" y="594" type="line"/>
    </contour>
  </outline>
</glyph>
<glyph name="ring" format="1">
  <advance width="262"/>
  <unicode hex="02DA"/>
  <outline>
    <contour>
      <point x="131" y="558" type="move" name="_top"/>
    </contour>
    <contour>
      <point x="10" y="720" type="curve" smooth="yes"/>
      <point x="10" y="645"/>
      <point x="64" y="599"/>
      <point x="131" y="599" type="curve" smooth="yes"/>
      <point x="198" y="599"/>
      <point x="252" y="645"/>
      <point x="252" y="720" type="curve" smooth="yes"/>
      <point x="252" y="795"/>
      <point x="198" y="841"/>
      <point x="131" y="841" type="curve" smooth="yes"/>
      <point x="64" y="841"/>
      <point x="10" y="795"/>
    </contour>
    <contour>
      <point x="180" y="721" type="curve" smooth="yes"/>
      <point x="180" y="692"/>
      <point x="158" y="672"/>
      <point x="131" y="672" type="curve" smooth="yes"/>
      <point x="104" y="672"/>
      <point x="83" y="692"/>
      <point x="83" y="721" type="curve" smooth="yes"/>
      <point x="83" y="750"/>
      <point x="104" y="769"/>
      <point x="131" y="769" type="curve" smooth="yes"/>
      <point x="158" y="769"/>
      <point x="180" y="750"/>
    </contour>
  </outline>
</glyph>
<glyph name="ogonek" format="1">
  <advance width="293"/>
  <unicode hex="02DB"/>
  <outline>
    <contour>
      <point x="243" y="0" type="move" name="_ogonek"/>
    </contour>
    <contour>
      <point x="10" y="-93" type="curve" smooth="yes"/>
      <point x="10" y="-173"/>
      <point x="75" y="-212"/>
      <point x="140" y="-212" type="curve" smooth="yes"/>
      <point x="283" y="-212" type="line"/>
      <point x="283" y="-119" type="line"/>
      <point x="188" y="-119" type="line" smooth="yes"/>
      <point x="153" y="-119"/>
      <point x="132" y="-123"/>
      <point x="132" y="-93" type="curve" smooth="yes"/>
      <point x="132" y="-63"/>
      <point x="153" y="-68"/>
      <point x="188" y="-68" type="curve" smooth="yes"/>
      <point x="243" y="-68" type="line"/>
      <point x="243" y="17" type="line"/>
      <point x="140" y="17" type="line"/>
      <point x="75" y="17"/>
      <point x="10" y="-13"/>
    </contour>
  </outline>
</glyph>
<glyph name="tilde" format="1">
  <advance width="410"/>
  <unicode hex="02DC"/>
  <outline>
    <contour>
      <point x="205" y="558" type="move" name="_top"/>
    </contour>
    <contour>
      <point x="10" y="610" type="curve"/>
      <point x="92" y="610" type="line"/>
      <point x="97" y="641"/>
      <point x="113" y="655"/>
      <point x="136" y="655" type="curve" smooth="yes"/>
      <point x="176" y="655"/>
      <point x="207" y="610"/>
      <point x="267" y="610" type="curve" smooth="yes"/>
      <point x="335" y="610"/>
      <point x="383" y="653"/>
      <point x="400" y="758" type="curve"/>
      <point x="317" y="758" type="line"/>
      <point x="313" y="727"/>
      <point x="297" y="713"/>
      <point x="274" y="713" type="curve" smooth="yes"/>
      <point x="234" y="713"/>
      <point x="203" y="758"/>
      <point x="143" y="758" type="curve" smooth="yes"/>
      <point x="75" y="758"/>
      <point x="27" y="715"/>
    </contour>
  </outline>
</glyph>
<glyph name="hungarumlaut" format="1">
  <advance width="443"/>
  <unicode hex="02DD"/>
  <outline>
    <contour>
      <point x="172" y="558" type="move" name="_top"/>
    </contour>
    <contour>
      <point x="298" y="810" type="line"/>
      <point x="203" y="601" type="line"/>
      <point x="308" y="601" type="line"/>
      <point x="433" y="810" type="line"/>
    </contour>
    <contour>
      <point x="85" y="810" type="line"/>
      <point x="10" y="601" type="line"/>
      <point x="115" y="601" type="line"/>
      <point x="220" y="810" type="line"/>
    </contour>
  </outline>
</glyph>
<glyph name="pi" format="1">
  <advance width="707"/>
  <unicode hex="03C0"/>
  <outline>
    <contour>
      <point x="20" y="428" type="line"/>
      <point x="90" y="428" type="line"/>
      <point x="90" y="0" type="line"/>
      <point x="261" y="0" type="line"/>
      <point x="261" y="428" type="line"/>
      <point x="446" y="428" type="line"/>
      <point x="446" y="0" type="line"/>
      <point x="617" y="0" type="line"/>
      <point x="617" y="428" type="line"/>
      <point x="687" y="428" type="line"/>
      <point x="687" y="558" type="line"/>
      <point x="20" y="558" type="line"/>
    </contour>
  </outline>
</glyph>
<glyph name="dvCandrabindu" format="1">
  <advance width="0"/>
  <unicode hex="0901"/>
  <outline>
    <contour>
      <point x="-75" y="740" type="move" name="_abvm.e"/>
    </contour>
    <contour>
      <point x="73" y="1024" type="curve"/>
      <point x="-59" y="1024" type="line"/>
      <point x="-59" y="971"/>
      <point x="-95" y="928"/>
      <point x="-164" y="928" type="curve" smooth="yes"/>
      <point x="-233" y="928"/>
      <point x="-270" y="971"/>
      <point x="-270" y="1024" type="curve"/>
      <point x="-401" y="1024" type="line"/>
      <point x="-401" y="894"/>
      <point x="-321" y="810"/>
      <point x="-164" y="810" type="curve" smooth="yes"/>
      <point x="-7" y="810"/>
      <point x="73" y="894"/>
    </contour>
    <contour>
      <point x="-165" y="982" type="curve" smooth="yes"/>
      <point x="-127" y="982"/>
      <point x="-98" y="1011"/>
      <point x="-98" y="1048" type="curve" smooth="yes"/>
      <point x="-98" y="1085"/>
      <point x="-127" y="1115"/>
      <point x="-165" y="1115" type="curve" smooth="yes"/>
      <point x="-201" y="1115"/>
      <point x="-231" y="1085"/>
      <point x="-231" y="1048" type="curve" smooth="yes"/>
      <point x="-231" y="1011"/>
      <point x="-201" y="982"/>
    </contour>
  </outline>
</glyph>
<glyph name="dvI" format="1">
  <advance width="584"/>
  <unicode hex="0907"/>
  <outline>
    <contour>
      <point x="604" y="600" type="line"/>
      <point x="604" y="740" type="line"/>
      <point x="-20" y="740" type="line"/>
      <point x="-20" y="600" type="line"/>
    </contour>
    <contour>
      <point x="313" y="496" type="line"/>
      <point x="478" y="496" type="line"/>
      <point x="478" y="718" type="line"/>
      <point x="313" y="718" type="line"/>
    </contour>
    <contour>
      <point x="85" y="-85" type="line"/>
      <point x="240" y="-85" type="line"/>
      <point x="240" y="17" type="line"/>
      <point x="263" y="-7"/>
      <point x="310" y="-19"/>
      <point x="348" y="-19" type="curve" smooth="yes"/>
      <point x="461" y="-19"/>
      <point x="539" y="54"/>
      <point x="539" y="162" type="curve" smooth="yes"/>
      <point x="539" y="306"/>
      <point x="429" y="336"/>
      <point x="324" y="336" type="curve" smooth="yes"/>
      <point x="271" y="336"/>
      <point x="235" y="338"/>
      <point x="235" y="373" type="curve" smooth="yes"/>
      <point x="235" y="403"/>
      <point x="270" y="411"/>
      <point x="323" y="411" type="curve" smooth="yes"/>
      <point x="478" y="411" type="line"/>
      <point x="478" y="508" type="line"/>
      <point x="328" y="541" type="line"/>
      <point x="274" y="541" type="line" smooth="yes"/>
      <point x="165" y="541"/>
      <point x="69" y="494"/>
      <point x="69" y="384" type="curve" smooth="yes"/>
      <point x="69" y="228"/>
      <point x="197" y="211"/>
      <point x="288" y="211" type="curve" smooth="yes"/>
      <point x="342" y="211"/>
      <point x="379" y="201"/>
      <point x="379" y="159" type="curve" smooth="yes"/>
      <point x="379" y="124"/>
      <point x="352" y="107"/>
      <point x="314" y="107" type="curve" smooth="yes"/>
      <point x="268" y="107"/>
      <point x="240" y="133"/>
      <point x="240" y="179" type="curve"/>
      <point x="85" y="179" type="line"/>
    </contour>
  </outline>
</glyph>
<glyph name="dvU" format="1">
  <advance width="567"/>
  <unicode hex="0909"/>
  <outline>
    <contour>
      <point x="497" y="703" type="line"/>
      <point x="341" y="703" type="line"/>
      <point x="341" y="582" type="line" smooth="yes"/>
      <point x="341" y="496"/>
      <point x="327" y="456"/>
      <point x="253" y="456" type="curve" smooth="yes"/>
      <point x="216" y="456" type="line"/>
      <point x="216" y="456"/>
      <point x="216" y="313"/>
      <point x="216" y="313" type="curve"/>
      <point x="216" y="313"/>
      <point x="253" y="313"/>
      <point x="263" y="313" type="curve" smooth="yes"/>
      <point x="328" y="313"/>
      <point x="369" y="290"/>
      <point x="369" y="232" type="curve" smooth="yes"/>
      <point x="369" y="184"/>
      <point x="339" y="153"/>
      <point x="291" y="153" type="curve" smooth="yes"/>
      <point x="235" y="153"/>
      <point x="199" y="195"/>
      <point x="199" y="253" type="curve"/>
      <point x="45" y="253" type="line"/>
      <point x="45" y="102"/>
      <point x="143" y="9"/>
      <point x="289" y="9" type="curve" smooth="yes"/>
      <point x="428" y="9"/>
      <point x="522" y="94"/>
      <point x="522" y="229" type="curve" smooth="yes"/>
      <point x="522" y="308"/>
      <point x="476" y="365"/>
      <point x="412" y="387" type="curve"/>
      <point x="412" y="390" type="line"/>
      <point x="480" y="418"/>
      <point x="497" y="483"/>
      <point x="497" y="584" type="curve" smooth="yes"/>
    </contour>
    <contour>
      <point x="587" y="600" type="curve"/>
      <point x="587" y="740" type="line"/>
      <point x="-27" y="740" type="line"/>
      <point x="-27" y="600" type="line"/>
      <point x="-27" y="600"/>
      <point x="587" y="600"/>
    </contour>
  </outline>
</glyph>
<glyph name="dvvR" format="1">
  <advance width="1042"/>
  <unicode hex="090B"/>
  <outline>
    <contour>
      <point x="467" y="0" type="line"/>
      <point x="631" y="0" type="line"/>
      <point x="631" y="600" type="line"/>
      <point x="1062" y="600" type="line"/>
      <point x="1062" y="740" type="line"/>
      <point x="-20" y="740" type="line"/>
      <point x="-20" y="600" type="line"/>
      <point x="467" y="600" type="line"/>
    </contour>
    <contour>
      <point x="226" y="254" type="line"/>
      <point x="226" y="331"/>
      <point x="266" y="390"/>
      <point x="341" y="390" type="curve" smooth="yes"/>
      <point x="423" y="390"/>
      <point x="467" y="342"/>
      <point x="467" y="263" type="curve"/>
      <point x="544" y="217" type="line"/>
      <point x="548" y="383"/>
      <point x="489" y="528"/>
      <point x="312" y="528" type="curve" smooth="yes"/>
      <point x="153" y="528"/>
      <point x="63" y="414"/>
      <point x="63" y="254" type="curve"/>
    </contour>
    <contour>
      <point x="89" y="7" type="curve"/>
      <point x="89" y="0" type="line"/>
      <point x="89" y="0"/>
      <point x="304" y="0"/>
      <point x="304" y="0" type="curve"/>
      <point x="304" y="0"/>
      <point x="533" y="243"/>
      <point x="533" y="243" type="curve"/>
      <point x="533" y="243"/>
      <point x="454" y="339"/>
      <point x="454" y="339" type="curve"/>
      <point x="454" y="339"/>
      <point x="138" y="53"/>
    </contour>
    <contour>
      <point x="822" y="533" type="line"/>
      <point x="822" y="206" type="line"/>
      <point x="822" y="206"/>
      <point x="964" y="206"/>
      <point x="964" y="206" type="curve"/>
      <point x="964" y="533" type="line"/>
    </contour>
    <contour>
      <point x="957" y="309" type="line"/>
      <point x="916" y="309" type="line" smooth="yes"/>
      <point x="788" y="309"/>
      <point x="695" y="248"/>
      <point x="695" y="133" type="curve" smooth="yes"/>
      <point x="695" y="9"/>
      <point x="792" y="-57"/>
      <point x="924" y="-57" type="curve" smooth="yes"/>
      <point x="949" y="-57"/>
      <point x="976" y="-55"/>
      <point x="1003" y="-50" type="curve"/>
      <point x="1003" y="79" type="line"/>
      <point x="983" y="74"/>
      <point x="962" y="72"/>
      <point x="943" y="72" type="curve" smooth="yes"/>
      <point x="892" y="72"/>
      <point x="851" y="92"/>
      <point x="851" y="137" type="curve" smooth="yes"/>
      <point x="851" y="179"/>
      <point x="877" y="203"/>
      <point x="947" y="206" type="curve" smooth="yes"/>
      <point x="952" y="206"/>
      <point x="958" y="206"/>
      <point x="964" y="206" type="curve"/>
    </contour>
    <contour>
      <point x="774" y="334" type="line"/>
      <point x="918" y="334"/>
      <point x="964" y="372"/>
      <point x="964" y="513" type="curve"/>
      <point x="964" y="547" type="line"/>
      <point x="822" y="547" type="line"/>
      <point x="822" y="513" type="line"/>
      <point x="822" y="478"/>
      <point x="811" y="468"/>
      <point x="774" y="468" type="curve"/>
      <point x="590" y="468" type="line"/>
      <point x="590" y="334" type="line"/>
    </contour>
  </outline>
</glyph>
<glyph name="dvEcandra" format="1">
  <advance width="684"/>
  <unicode hex="090D"/>
  <outline>
    <contour>
      <point x="588" y="1024" type="curve"/>
      <point x="451" y="1024" type="line"/>
      <point x="451" y="971"/>
      <point x="420" y="930"/>
      <point x="351" y="930" type="curve"/>
      <point x="282" y="930"/>
      <point x="251" y="971"/>
      <point x="251" y="1024" type="curve"/>
      <point x="114" y="1024" type="line"/>
      <point x="114" y="894"/>
      <point x="185" y="810"/>
      <point x="351" y="810" type="curve"/>
      <point x="517" y="810"/>
      <point x="588" y="894"/>
    </contour>
    <component base="dvE"/>
  </outline>
</glyph>
<glyph name="dvE" format="1">
  <advance width="684"/>
  <unicode hex="090F"/>
  <outline>
    <contour>
      <point x="704" y="600" type="line"/>
      <point x="704" y="740" type="line"/>
      <point x="-20" y="740" type="line"/>
      <point x="-20" y="600" type="line"/>
    </contour>
    <contour>
      <point x="609" y="670" type="line"/>
      <point x="443" y="670" type="line"/>
      <point x="443" y="494" type="line" smooth="yes"/>
      <point x="443" y="442"/>
      <point x="422" y="423"/>
      <point x="365" y="426" type="curve"/>
      <point x="365" y="426"/>
      <point x="365" y="277"/>
      <point x="365" y="277" type="curve"/>
      <point x="530" y="271"/>
      <point x="609" y="338"/>
      <point x="609" y="494" type="curve"/>
    </contour>
    <contour>
      <point x="101" y="263" type="line"/>
      <point x="101" y="120"/>
      <point x="183" y="19"/>
      <point x="356" y="19" type="curve" smooth="yes"/>
      <point x="501" y="19"/>
      <point x="599" y="97"/>
      <point x="599" y="235" type="curve"/>
      <point x="439" y="235" type="line"/>
      <point x="439" y="185"/>
      <point x="407" y="159"/>
      <point x="353" y="159" type="curve" smooth="yes"/>
      <point x="300" y="159"/>
      <point x="267" y="189"/>
      <point x="267" y="255" type="curve" smooth="yes"/>
      <point x="267" y="723" type="line"/>
      <point x="100" y="723" type="line"/>
    </contour>
  </outline>
</glyph>
<glyph name="dvOcandra" format="1">
  <advance width="1202"/>
  <unicode hex="0911"/>
  <outline>
    <contour>
      <point x="1142" y="1024" type="curve"/>
      <point x="1005" y="1024" type="line"/>
      <point x="1005" y="971"/>
      <point x="974" y="930"/>
      <point x="905" y="930" type="curve"/>
      <point x="836" y="930"/>
      <point x="805" y="971"/>
      <point x="805" y="1024" type="curve"/>
      <point x="668" y="1024" type="line"/>
      <point x="668" y="894"/>
      <point x="739" y="810"/>
      <point x="905" y="810" type="curve"/>
      <point x="1071" y="810"/>
      <point x="1142" y="894"/>
    </contour>
    <component base="dvA" xOffset="23"/>
    <component base="dvmAA" xOffset="888"/>
  </outline>
</glyph>
<glyph name="dvGHA" format="1">
  <advance width="698"/>
  <unicode hex="0918"/>
  <outline>
    <contour>
      <point x="718" y="740" type="line"/>
      <point x="-20" y="740" type="line"/>
      <point x="-20" y="600" type="line"/>
      <point x="718" y="600" type="line"/>
    </contour>
    <contour>
      <point x="623" y="0" type="line"/>
      <point x="623" y="622" type="line"/>
      <point x="623" y="622"/>
      <point x="458" y="622"/>
      <point x="458" y="622" type="curve"/>
      <point x="458" y="0" type="line"/>
    </contour>
    <contour>
      <point x="506" y="262" type="curve"/>
      <point x="458" y="358" type="line"/>
      <point x="458" y="278"/>
      <point x="395" y="232"/>
      <point x="318" y="232" type="curve" smooth="yes"/>
      <point x="273" y="232"/>
      <point x="231" y="250"/>
      <point x="231" y="295" type="curve" smooth="yes"/>
      <point x="231" y="332"/>
      <point x="258" y="356"/>
      <point x="318" y="356" type="curve" smooth="yes"/>
      <point x="369" y="356" type="line"/>
      <point x="369" y="488" type="line"/>
      <point x="321" y="488" type="line" smooth="yes"/>
      <point x="253" y="488"/>
      <point x="243" y="533"/>
      <point x="243" y="602" type="curve" smooth="yes"/>
      <point x="243" y="655" type="line"/>
      <point x="78" y="618" type="line"/>
      <point x="78" y="602" type="line" smooth="yes"/>
      <point x="78" y="496"/>
      <point x="104" y="450"/>
      <point x="159" y="424" type="curve"/>
      <point x="159" y="418" type="line"/>
      <point x="110" y="397"/>
      <point x="66" y="350"/>
      <point x="66" y="278" type="curve" smooth="yes"/>
      <point x="66" y="155"/>
      <point x="184" y="98"/>
      <point x="283" y="98" type="curve" smooth="yes"/>
      <point x="406" y="98"/>
      <point x="482" y="153"/>
    </contour>
  </outline>
</glyph>
<glyph name="dvCA" format="1">
  <advance width="753"/>
  <unicode hex="091A"/>
  <outline>
    <contour>
      <point x="421" y="511" type="line"/>
      <point x="50" y="511" type="line"/>
      <point x="50" y="382" type="line"/>
      <point x="50" y="382"/>
      <point x="421" y="382"/>
      <point x="421" y="382" type="curve"/>
    </contour>
    <contour>
      <point x="513" y="369" type="line"/>
      <point x="513" y="279"/>
      <point x="469" y="218"/>
      <point x="391" y="218" type="curve" smooth="yes"/>
      <point x="333" y="218"/>
      <point x="289" y="246"/>
      <point x="289" y="302" type="curve" smooth="yes"/>
      <point x="289" y="355"/>
      <point x="332" y="382"/>
      <point x="381" y="382" type="curve"/>
      <point x="329" y="433" type="line"/>
      <point x="246" y="451"/>
      <point x="135" y="390"/>
      <point x="135" y="272" type="curve" smooth="yes"/>
      <point x="135" y="150"/>
      <point x="236" y="82"/>
      <point x="358" y="82" type="curve" smooth="yes"/>
      <point x="503" y="82"/>
      <point x="563" y="177"/>
      <point x="553" y="311" type="curve"/>
    </contour>
    <contour>
      <point x="513" y="0" type="line"/>
      <point x="678" y="0" type="line"/>
      <point x="678" y="600" type="line"/>
      <point x="773" y="600" type="line"/>
      <point x="773" y="740" type="line"/>
      <point x="-20" y="740" type="line"/>
      <point x="-20" y="600" type="line"/>
      <point x="513" y="600" type="line"/>
    </contour>
  </outline>
</glyph>
<glyph name="dvNYA" format="1">
  <advance width="877"/>
  <unicode hex="091E"/>
  <outline>
    <contour>
      <point x="638" y="0" type="line"/>
      <point x="802" y="0" type="line"/>
      <point x="802" y="600" type="line"/>
      <point x="897" y="600" type="line"/>
      <point x="897" y="740" type="line"/>
      <point x="-20" y="740" type="line"/>
      <point x="-20" y="600" type="line"/>
      <point x="638" y="600" type="line"/>
    </contour>
    <contour>
      <point x="728" y="232" type="line"/>
      <point x="728" y="372" type="line"/>
      <point x="470" y="372" type="line"/>
      <point x="470" y="232" type="line"/>
    </contour>
    <contour>
      <point x="296" y="542" type="curve" smooth="yes"/>
      <point x="160" y="542"/>
      <point x="71" y="469"/>
      <point x="56" y="357" type="curve"/>
      <point x="216" y="357" type="line"/>
      <point x="225" y="384"/>
      <point x="256" y="403"/>
      <point x="296" y="403" type="curve" smooth="yes"/>
      <point x="356" y="403"/>
      <point x="385" y="357"/>
      <point x="385" y="300" type="curve" smooth="yes"/>
      <point x="385" y="243"/>
      <point x="356" y="197"/>
      <point x="296" y="197" type="curve" smooth="yes"/>
      <point x="256" y="197"/>
      <point x="225" y="216"/>
      <point x="216" y="243" type="curve"/>
      <point x="56" y="243" type="line"/>
      <point x="71" y="131"/>
      <point x="160" y="58"/>
      <point x="296" y="58" type="curve" smooth="yes"/>
      <point x="445" y="58"/>
      <point x="541" y="152"/>
      <point x="541" y="300" type="curve"/>
      <point x="541" y="448"/>
      <point x="445" y="542"/>
    </contour>
  </outline>
</glyph>
<glyph name="dvTTA" format="1">
  <advance width="649"/>
  <unicode hex="091F"/>
  <outline>
    <contour>
      <point x="468" y="-99" type="move" name="blwm.u"/>
    </contour>
    <contour>
      <point x="436" y="-13" type="move" name="blwm.virama"/>
    </contour>
    <contour>
      <point x="460" y="740" type="move" name="abvm.e"/>
    </contour>
    <contour>
      <point x="460" y="404" type="line"/>
      <point x="460" y="600" type="line"/>
      <point x="669" y="600" type="line"/>
      <point x="669" y="740" type="line"/>
      <point x="-20" y="740" type="line"/>
      <point x="-20" y="600" type="line"/>
      <point x="296" y="600" type="line"/>
      <point x="296" y="542" type="line"/>
      <point x="152" y="526"/>
      <point x="52" y="432"/>
      <point x="52" y="279" type="curve" smooth="yes"/>
      <point x="52" y="116"/>
      <point x="171" y="18"/>
      <point x="341" y="18" type="curve" smooth="yes"/>
      <point x="510" y="18"/>
      <point x="618" y="112"/>
      <point x="618" y="281" type="curve"/>
      <point x="462" y="281" type="line"/>
      <point x="462" y="208"/>
      <point x="420" y="159"/>
      <point x="340" y="159" type="curve" smooth="yes"/>
      <point x="265" y="159"/>
      <point x="213" y="206"/>
      <point x="213" y="277" type="curve" smooth="yes"/>
      <point x="213" y="370"/>
      <point x="285" y="404"/>
      <point x="378" y="404" type="curve" smooth="yes"/>
    </contour>
  </outline>
</glyph>
<glyph name="dvTA" format="1">
  <advance width="701"/>
  <unicode hex="0924"/>
  <outline>
    <contour>
      <point x="353" y="129" type="line"/>
      <point x="259" y="129"/>
      <point x="224" y="172"/>
      <point x="224" y="239" type="curve"/>
      <point x="224" y="316"/>
      <point x="274" y="351"/>
      <point x="347" y="351" type="curve"/>
      <point x="361" y="351" type="line"/>
      <point x="462" y="351" type="line"/>
      <point x="462" y="0" type="line"/>
      <point x="626" y="0" type="line"/>
      <point x="626" y="600" type="line"/>
      <point x="721" y="600" type="line"/>
      <point x="721" y="740" type="line"/>
      <point x="-20" y="740" type="line"/>
      <point x="-20" y="600" type="line"/>
      <point x="462" y="600" type="line"/>
      <point x="462" y="491" type="line"/>
      <point x="365" y="491" type="line"/>
      <point x="344" y="491" type="line"/>
      <point x="190" y="491"/>
      <point x="59" y="427"/>
      <point x="59" y="239" type="curve" smooth="yes"/>
      <point x="59" y="67"/>
      <point x="169" y="0"/>
      <point x="321" y="0" type="curve"/>
      <point x="353" y="0" type="line"/>
    </contour>
  </outline>
</glyph>
<glyph name="dvTHA" format="1">
  <advance width="789"/>
  <unicode hex="0925"/>
  <outline>
    <contour>
      <point x="809" y="600" type="line"/>
      <point x="809" y="740" type="line"/>
      <point x="550" y="740" type="line"/>
      <point x="550" y="439" type="line" smooth="yes"/>
      <point x="550" y="296"/>
      <point x="475" y="218"/>
      <point x="368" y="218" type="curve" smooth="yes"/>
      <point x="268" y="218"/>
      <point x="224" y="277"/>
      <point x="232" y="347" type="curve"/>
      <point x="389" y="348"/>
      <point x="481" y="426"/>
      <point x="481" y="549" type="curve" smooth="yes"/>
      <point x="481" y="685"/>
      <point x="385" y="747"/>
      <point x="276" y="747" type="curve" smooth="yes"/>
      <point x="165" y="747"/>
      <point x="68" y="677"/>
      <point x="74" y="538" type="curve"/>
      <point x="223" y="538" type="line"/>
      <point x="220" y="581"/>
      <point x="239" y="607"/>
      <point x="273" y="607" type="curve" smooth="yes"/>
      <point x="303" y="607"/>
      <point x="324" y="588"/>
      <point x="324" y="552" type="curve" smooth="yes"/>
      <point x="324" y="491"/>
      <point x="263" y="468"/>
      <point x="176" y="468" type="curve" smooth="yes"/>
      <point x="62" y="468" type="line"/>
      <point x="30" y="233"/>
      <point x="134" y="78"/>
      <point x="344" y="78" type="curve" smooth="yes"/>
      <point x="450" y="78"/>
      <point x="520" y="126"/>
      <point x="550" y="175" type="curve"/>
      <point x="550" y="0" type="line"/>
      <point x="714" y="0" type="line"/>
      <point x="714" y="600" type="line"/>
    </contour>
  </outline>
</glyph>
<glyph name="dvYA" format="1">
  <advance width="758"/>
  <unicode hex="092F"/>
  <outline>
    <contour>
      <point x="216" y="611" type="line"/>
      <point x="216" y="584" type="line" smooth="yes"/>
      <point x="216" y="494"/>
      <point x="208" y="438"/>
      <point x="61" y="438" type="curve"/>
      <point x="49" y="230"/>
      <point x="140" y="78"/>
      <point x="342" y="78" type="curve" smooth="yes"/>
      <point x="493" y="78"/>
      <point x="568" y="176"/>
      <point x="561" y="295" type="curve"/>
      <point x="519" y="371" type="line"/>
      <point x="519" y="279"/>
      <point x="468" y="218"/>
      <point x="372" y="218" type="curve" smooth="yes"/>
      <point x="280" y="218"/>
      <point x="231" y="273"/>
      <point x="231" y="351" type="curve"/>
      <point x="352" y="367"/>
      <point x="377" y="434"/>
      <point x="377" y="577" type="curve" smooth="yes"/>
      <point x="377" y="611" type="line"/>
    </contour>
    <contour>
      <point x="519" y="600" type="line"/>
      <point x="519" y="0" type="line"/>
      <point x="683" y="0" type="line"/>
      <point x="683" y="600" type="line"/>
      <point x="778" y="600" type="line"/>
      <point x="778" y="740" type="line"/>
      <point x="-20" y="740" type="line"/>
      <point x="-20" y="600" type="line"/>
    </contour>
  </outline>
</glyph>
<glyph name="dvVA" format="1">
  <advance width="645"/>
  <unicode hex="0935"/>
  <outline>
    <contour>
      <point x="262" y="59" type="curve" smooth="yes"/>
      <point x="388" y="59"/>
      <point x="467" y="147"/>
      <point x="456" y="288" type="curve"/>
      <point x="413" y="303" type="line"/>
      <point x="413" y="238"/>
      <point x="372" y="195"/>
      <point x="307" y="195" type="curve" smooth="yes"/>
      <point x="240" y="195"/>
      <point x="197" y="240"/>
      <point x="197" y="303" type="curve" smooth="yes"/>
      <point x="197" y="366"/>
      <point x="240" y="411"/>
      <point x="307" y="411" type="curve" smooth="yes"/>
      <point x="372" y="411"/>
      <point x="413" y="369"/>
      <point x="413" y="304" type="curve"/>
      <point x="456" y="318" type="line"/>
      <point x="464" y="460"/>
      <point x="388" y="547"/>
      <point x="262" y="547" type="curve" smooth="yes"/>
      <point x="133" y="547"/>
      <point x="37" y="437"/>
      <point x="37" y="303" type="curve" smooth="yes"/>
      <point x="37" y="169"/>
      <point x="133" y="59"/>
    </contour>
    <contour>
      <point x="665" y="740" type="line"/>
      <point x="-20" y="740" type="line"/>
      <point x="-20" y="600" type="line"/>
      <point x="413" y="600" type="line"/>
      <point x="413" y="0" type="line"/>
      <point x="570" y="0" type="line"/>
      <point x="570" y="600" type="line"/>
      <point x="665" y="600" type="line"/>
    </contour>
  </outline>
</glyph>
<glyph name="dvmAA" format="1">
  <advance width="314"/>
  <unicode hex="093E"/>
  <outline>
    <contour>
      <point x="334" y="600" type="line"/>
      <point x="334" y="740" type="line"/>
      <point x="-20" y="740" type="line"/>
      <point x="-20" y="600" type="line"/>
      <point x="75" y="600" type="line"/>
      <point x="75" y="0" type="line"/>
      <point x="239" y="0" type="line"/>
      <point x="239" y="600" type="line"/>
    </contour>
  </outline>
</glyph>
<glyph name="dvmI" format="1">
  <advance width="314"/>
  <unicode hex="093F"/>
  <outline>
    <contour>
      <point x="755" y="729" type="curve" smooth="yes"/>
      <point x="755" y="697" type="line"/>
      <point x="917" y="697" type="line"/>
      <point x="917" y="742" type="line" smooth="yes"/>
      <point x="917" y="933"/>
      <point x="751" y="1034"/>
      <point x="497" y="1034" type="curve" smooth="yes"/>
      <point x="243" y="1034"/>
      <point x="77" y="933"/>
      <point x="77" y="742" type="curve" smooth="yes"/>
      <point x="77" y="697" type="line"/>
      <point x="239" y="697" type="line"/>
      <point x="239" y="729" type="line" smooth="yes"/>
      <point x="239" y="855"/>
      <point x="359" y="899"/>
      <point x="497" y="899" type="curve" smooth="yes"/>
      <point x="635" y="899"/>
      <point x="755" y="855"/>
    </contour>
    <contour>
      <point x="334" y="600" type="line"/>
      <point x="334" y="740" type="line"/>
      <point x="-20" y="740" type="line"/>
      <point x="-20" y="600" type="line"/>
      <point x="75" y="600" type="line"/>
      <point x="75" y="0" type="line"/>
      <point x="239" y="0" type="line"/>
      <point x="239" y="600" type="line"/>
    </contour>
  </outline>
</glyph>
<glyph name="dvmII" format="1">
  <advance width="314"/>
  <unicode hex="0940"/>
  <outline>
    <contour>
      <point x="-228" y="769" type="curve" smooth="yes"/>
      <point x="-228" y="697" type="line"/>
      <point x="-71" y="697" type="line"/>
      <point x="-71" y="765" type="line" smooth="yes"/>
      <point x="-71" y="849"/>
      <point x="-66" y="900"/>
      <point x="0" y="900" type="curve" smooth="yes"/>
      <point x="66" y="900"/>
      <point x="71" y="849"/>
      <point x="71" y="765" type="curve" smooth="yes"/>
      <point x="71" y="697" type="line"/>
      <point x="228" y="697" type="line"/>
      <point x="228" y="769" type="line" smooth="yes"/>
      <point x="228" y="923"/>
      <point x="179" y="1034"/>
      <point x="0" y="1034" type="curve" smooth="yes"/>
      <point x="-179" y="1034"/>
      <point x="-228" y="927"/>
    </contour>
    <contour>
      <point x="334" y="600" type="line"/>
      <point x="334" y="740" type="line"/>
      <point x="-20" y="740" type="line"/>
      <point x="-20" y="600" type="line"/>
      <point x="75" y="600" type="line"/>
      <point x="75" y="0" type="line"/>
      <point x="239" y="0" type="line"/>
      <point x="239" y="600" type="line"/>
    </contour>
  </outline>
</glyph>
<glyph name="dvmU" format="1">
  <advance width="0"/>
  <unicode hex="0941"/>
  <outline>
    <contour>
      <point x="-75" y="0" type="move" name="_blwm.u"/>
    </contour>
    <contour>
      <point x="-239" y="63" type="line"/>
      <point x="-72" y="76"/>
      <point x="13" y="2"/>
      <point x="13" y="-131" type="curve" smooth="yes"/>
      <point x="13" y="-250"/>
      <point x="-70" y="-324"/>
      <point x="-207" y="-324" type="curve" smooth="yes"/>
      <point x="-351" y="-324"/>
      <point x="-465" y="-259"/>
      <point x="-470" y="-90" type="curve"/>
      <point x="-324" y="-90" type="line"/>
      <point x="-321" y="-167"/>
      <point x="-275" y="-195"/>
      <point x="-211" y="-195" type="curve" smooth="yes"/>
      <point x="-157" y="-195"/>
      <point x="-128" y="-172"/>
      <point x="-128" y="-130" type="curve" smooth="yes"/>
      <point x="-128" y="-81"/>
      <point x="-158" y="-62"/>
      <point x="-239" y="-64" type="curve"/>
    </contour>
  </outline>
</glyph>
<glyph name="dvmUU" format="1">
  <advance width="0"/>
  <unicode hex="0942"/>
  <outline>
    <contour>
      <point x="-75" y="0" type="move" name="_blwm.u"/>
    </contour>
    <contour>
      <point x="-192" y="-316" type="line"/>
      <point x="-313" y="-326"/>
      <point x="-404" y="-265"/>
      <point x="-404" y="-141" type="curve" smooth="yes"/>
      <point x="-404" y="-12"/>
      <point x="-304" y="48"/>
      <point x="-191" y="48" type="curve" smooth="yes"/>
      <point x="53" y="48"/>
      <point x="82" y="-143"/>
      <point x="77" y="-308" type="curve"/>
      <point x="-60" y="-308" type="line"/>
      <point x="-54" y="-161"/>
      <point x="-77" y="-76"/>
      <point x="-193" y="-76" type="curve" smooth="yes"/>
      <point x="-237" y="-76"/>
      <point x="-277" y="-92"/>
      <point x="-277" y="-141" type="curve" smooth="yes"/>
      <point x="-277" y="-185"/>
      <point x="-239" y="-200"/>
      <point x="-192" y="-196" type="curve"/>
    </contour>
  </outline>
</glyph>
<glyph name="dvmvR" format="1">
  <advance width="0"/>
  <unicode hex="0943"/>
  <outline>
    <contour>
      <point x="-75" y="0" type="move" name="_blwm.u"/>
    </contour>
    <contour>
      <point x="-84" y="113" type="line"/>
      <point x="-94" y="114"/>
      <point x="-103" y="114"/>
      <point x="-113" y="114" type="curve" smooth="yes"/>
      <point x="-252" y="114"/>
      <point x="-331" y="41"/>
      <point x="-331" y="-73" type="curve" smooth="yes"/>
      <point x="-331" y="-204"/>
      <point x="-232" y="-264"/>
      <point x="-120" y="-264" type="curve" smooth="yes"/>
      <point x="-96" y="-264"/>
      <point x="-73" y="-261"/>
      <point x="-56" y="-255" type="curve"/>
      <point x="-56" y="-127" type="line"/>
      <point x="-67" y="-131"/>
      <point x="-83" y="-134"/>
      <point x="-96" y="-134" type="curve" smooth="yes"/>
      <point x="-146" y="-134"/>
      <point x="-175" y="-112"/>
      <point x="-175" y="-67" type="curve" smooth="yes"/>
      <point x="-175" y="-25"/>
      <point x="-150" y="0"/>
      <point x="-100" y="0" type="curve" smooth="yes"/>
      <point x="-95" y="0"/>
      <point x="-89" y="0"/>
      <point x="-84" y="0" type="curve"/>
    </contour>
  </outline>
</glyph>
<glyph name="dvmEcandra" format="1">
  <advance width="0"/>
  <unicode hex="0945"/>
  <outline>
    <contour>
      <point x="-75" y="740" type="move" name="_abvm.e"/>
    </contour>
    <contour>
      <point x="73" y="1024" type="curve"/>
      <point x="-64" y="1024" type="line"/>
      <point x="-64" y="971"/>
      <point x="-95" y="930"/>
      <point x="-164" y="930" type="curve"/>
      <point x="-233" y="930"/>
      <point x="-264" y="971"/>
      <point x="-264" y="1024" type="curve"/>
      <point x="-401" y="1024" type="line"/>
      <point x="-401" y="894"/>
      <point x="-330" y="810"/>
      <point x="-164" y="810" type="curve"/>
      <point x="2" y="810"/>
      <point x="73" y="894"/>
    </contour>
  </outline>
</glyph>
<glyph name="dvmAI" format="1">
  <advance width="0"/>
  <unicode hex="0948"/>
  <outline>
    <contour>
      <point x="-75" y="740" type="move" name="_abvm.e"/>
    </contour>
    <contour>
      <point x="-113" y="734" type="line"/>
      <point x="-294" y="896"/>
      <point x="-296" y="895"/>
      <point x="-436" y="896" type="curve" smooth="yes"/>
      <point x="-483" y="896" type="line"/>
      <point x="-483" y="796" type="line"/>
      <point x="-431" y="796" type="line" smooth="yes"/>
      <point x="-307" y="796"/>
      <point x="-301" y="796"/>
      <point x="-209" y="734" type="curve"/>
    </contour>
    <contour>
      <point x="-78" y="734" type="line"/>
      <point x="-237" y="1028"/>
      <point x="-272" y="1045"/>
      <point x="-436" y="1046" type="curve" smooth="yes"/>
      <point x="-483" y="1046" type="line"/>
      <point x="-483" y="946" type="line"/>
      <point x="-431" y="946" type="line" smooth="yes"/>
      <point x="-329" y="946"/>
      <point x="-286" y="946"/>
      <point x="-180" y="734" type="curve"/>
    </contour>
  </outline>
</glyph>
<glyph name="dvVirama" format="1">
  <advance width="0"/>
  <unicode hex="094D"/>
  <outline>
    <contour>
      <point x="-75" y="0" type="move" name="_blwm.virama"/>
    </contour>
    <contour>
      <point x="63" y="-271" type="line"/>
      <point x="-70" y="-54" type="line"/>
      <point x="-224" y="-54" type="line"/>
      <point x="-98" y="-271" type="line"/>
    </contour>
  </outline>
</glyph>
<glyph name="dvDDxA" format="1">
  <advance width="568"/>
  <unicode hex="095C"/>
  <outline>
    <contour>
      <point x="384" y="-360" type="move" name="blwm.u"/>
    </contour>
    <contour>
      <point x="399" y="-277" type="move" name="blwm.virama"/>
    </contour>
    <contour>
      <point x="475" y="740" type="move" name="abvm.e"/>
    </contour>
    <component base="dvDDA"/>
    <component base="dvNukta" xOffset="584" yOffset="8"/>
  </outline>
</glyph>
<glyph name="doubledanda" format="1">
  <advance width="609"/>
  <unicode hex="0965"/>
  <outline>
    <contour>
      <point x="140" y="740" type="line"/>
      <point x="140" y="0" type="line"/>
      <point x="304" y="0" type="line"/>
      <point x="304" y="740" type="line"/>
    </contour>
    <contour>
      <point x="415" y="740" type="line"/>
      <point x="415" y="0" type="line"/>
      <point x="579" y="0" type="line"/>
      <point x="579" y="740" type="line"/>
    </contour>
  </outline>
</glyph>
<glyph name="endash" format="1">
  <advance width="695"/>
  <unicode hex="2013"/>
  <outline>
    <contour>
      <point x="70" y="280" type="line"/>
      <point x="625" y="280" type="line"/>
      <point x="625" y="422" type="line"/>
      <point x="70" y="422" type="line"/>
    </contour>
  </outline>
</glyph>
<glyph name="daggerdbl" format="1">
  <advance width="654"/>
  <unicode hex="2021"/>
  <outline>
    <contour>
      <point x="604" y="558" type="line"/>
      <point x="395" y="545" type="line"/>
      <point x="412" y="789" type="line"/>
      <point x="241" y="789" type="line"/>
      <point x="258" y="545" type="line"/>
      <point x="50" y="558" type="line"/>
      <point x="50" y="428" type="line"/>
      <point x="258" y="441" type="line"/>
      <point x="258" y="82" type="line"/>
      <point x="50" y="95" type="line"/>
      <point x="50" y="-35" type="line"/>
      <point x="258" y="-22" type="line"/>
      <point x="241" y="-266" type="line"/>
      <point x="412" y="-266" type="line"/>
      <point x="395" y="-22" type="line"/>
      <point x="604" y="-35" type="line"/>
      <point x="604" y="95" type="line"/>
      <point x="395" y="82" type="line"/>
      <point x="395" y="441" type="line"/>
      <point x="604" y="428" type="line"/>
    </contour>
  </outline>
</glyph>
<glyph name="bullet" format="1">
  <advance width="501"/>
  <unicode hex="2022"/>
  <outline>
    <contour>
      <point x="250" y="183" type="curve" smooth="yes"/>
      <point x="335" y="183"/>
      <point x="401" y="249"/>
      <point x="401" y="333" type="curve" smooth="yes"/>
      <point x="401" y="418"/>
      <point x="335" y="484"/>
      <point x="250" y="484" type="curve" smooth="yes"/>
      <point x="166" y="484"/>
      <point x="100" y="418"/>
      <point x="100" y="333" type="curve" smooth="yes"/>
      <point x="100" y="249"/>
      <point x="166" y="183"/>
    </contour>
  </outline>
</glyph>
<glyph name="guilsinglleft" format="1">
  <advance width="337"/>
  <unicode hex="2039"/>
  <outline>
    <contour>
      <point x="200" y="295" type="line"/>
      <point x="287" y="470" type="line"/>
      <point x="129" y="470" type="line"/>
      <point x="45" y="295" type="line"/>
      <point x="129" y="120" type="line"/>
      <point x="287" y="120" type="line"/>
    </contour>
  </outline>
</glyph>
<glyph name="rupee" format="1">
  <advance width="1207"/>
  <unicode hex="20A8"/>
  <outline>
    <contour>
      <point x="436" y="487" type="curve" smooth="yes"/>
      <point x="436" y="437"/>
      <point x="404" y="403"/>
      <point x="352" y="403" type="curve" smooth="yes"/>
      <point x="246" y="403" type="line"/>
      <point x="246" y="572" type="line"/>
      <point x="352" y="572" type="line" smooth="yes"/>
      <point x="404" y="572"/>
      <point x="436" y="536"/>
    </contour>
    <contour>
      <point x="75" y="702" type="line"/>
      <point x="75" y="0" type="line"/>
      <point x="246" y="0" type="line"/>
      <point x="246" y="273" type="line"/>
      <point x="352" y="273" type="line" smooth="yes"/>
      <point x="558" y="273"/>
      <point x="610" y="406"/>
      <point x="610" y="487" type="curve" smooth="yes"/>
      <point x="610" y="598"/>
      <point x="524" y="702"/>
      <point x="352" y="702" type="curve" smooth="yes"/>
    </contour>
    <contour>
      <point x="242" y="315" type="line"/>
      <point x="424" y="0" type="line"/>
      <point x="624" y="0" type="line"/>
      <point x="435" y="315" type="line"/>
    </contour>
    <contour>
      <point x="662" y="390" type="curve" smooth="yes"/>
      <point x="662" y="197"/>
      <point x="977" y="262"/>
      <point x="977" y="174" type="curve" smooth="yes"/>
      <point x="977" y="147"/>
      <point x="948" y="126"/>
      <point x="908" y="126" type="curve" smooth="yes"/>
      <point x="868" y="126"/>
      <point x="841" y="139"/>
      <point x="836" y="177" type="curve"/>
      <point x="661" y="177" type="line"/>
      <point x="670" y="50"/>
      <point x="775" y="-7"/>
      <point x="907" y="-7" type="curve" smooth="yes"/>
      <point x="1039" y="-7"/>
      <point x="1141" y="64"/>
      <point x="1141" y="170" type="curve" smooth="yes"/>
      <point x="1141" y="369"/>
      <point x="826" y="304"/>
      <point x="826" y="390" type="curve" smooth="yes"/>
      <point x="826" y="417"/>
      <point x="851" y="431"/>
      <point x="893" y="431" type="curve" smooth="yes"/>
      <point x="936" y="431"/>
      <point x="960" y="421"/>
      <point x="964" y="381" type="curve"/>
      <point x="1139" y="381" type="line"/>
      <point x="1133" y="496"/>
      <point x="1033" y="564"/>
      <point x="903" y="564" type="curve" smooth="yes"/>
      <point x="743" y="564"/>
      <point x="662" y="483"/>
    </contour>
  </outline>
</glyph>
<glyph name="Omega.math" format="1">
  <advance width="788"/>
  <unicode hex="2126"/>
  <outline>
    <contour>
      <point x="35" y="353" type="curve" smooth="yes"/>
      <point x="35" y="240"/>
      <point x="76" y="139"/>
      <point x="192" y="88" type="curve"/>
      <point x="234" y="130" type="line"/>
      <point x="40" y="130" type="line"/>
      <point x="40" y="0" type="line"/>
      <point x="310" y="0" type="line"/>
      <point x="310" y="134" type="line"/>
      <point x="252" y="180"/>
      <point x="209" y="245"/>
      <point x="209" y="338" type="curve" smooth="yes"/>
      <point x="209" y="476"/>
      <point x="282" y="555"/>
      <point x="394" y="555" type="curve" smooth="yes"/>
      <point x="506" y="555"/>
      <point x="579" y="476"/>
      <point x="579" y="338" type="curve" smooth="yes"/>
      <point x="579" y="245"/>
      <point x="536" y="180"/>
      <point x="478" y="134" type="curve"/>
      <point x="478" y="0" type="line"/>
      <point x="748" y="0" type="line"/>
      <point x="748" y="130" type="line"/>
      <point x="554" y="130" type="line"/>
      <point x="596" y="88" type="line"/>
      <point x="712" y="139"/>
      <point x="753" y="240"/>
      <point x="753" y="353" type="curve" smooth="yes"/>
      <point x="753" y="564"/>
      <point x="594" y="712"/>
      <point x="394" y="712" type="curve" smooth="yes"/>
      <point x="194" y="712"/>
      <point x="35" y="564"/>
    </contour>
  </outline>
</glyph>
<glyph name="estimated" format="1">
  <advance width="748"/>
  <unicode hex="212E"/>
  <outline>
    <contour>
      <point x="684" y="134" type="curve"/>
      <point x="625" y="202" type="line"/>
      <point x="555" y="132"/>
      <point x="479" y="92"/>
      <point x="383" y="92" type="curve" smooth="yes"/>
      <point x="321" y="92"/>
      <point x="270" y="110"/>
      <point x="225" y="143" type="curve"/>
      <point x="225" y="320" type="line"/>
      <point x="713" y="320" type="line"/>
      <point x="713" y="383" type="line" smooth="yes"/>
      <point x="713" y="553"/>
      <point x="592" y="713"/>
      <point x="374" y="713" type="curve" smooth="yes"/>
      <point x="156" y="713"/>
      <point x="35" y="548"/>
      <point x="35" y="336" type="curve" smooth="yes"/>
      <point x="35" y="117"/>
      <point x="184" y="-7"/>
      <point x="383" y="-7" type="curve" smooth="yes"/>
      <point x="501" y="-7"/>
      <point x="600" y="44"/>
    </contour>
    <contour>
      <point x="225" y="408" type="line"/>
      <point x="225" y="567" type="line"/>
      <point x="263" y="599"/>
      <point x="311" y="617"/>
      <point x="374" y="617" type="curve" smooth="yes"/>
      <point x="432" y="617"/>
      <point x="484" y="603"/>
      <point x="521" y="574" type="curve"/>
      <point x="521" y="408" type="line"/>
    </contour>
  </outline>
</glyph>
<glyph name="Delta.math" format="1">
  <advance width="735"/>
  <unicode hex="2206"/>
  <outline>
    <contour>
      <point x="20" y="130" type="line"/>
      <point x="20" y="0" type="line"/>
      <point x="715" y="0" type="line"/>
      <point x="715" y="130" type="line"/>
      <point x="437" y="704" type="line"/>
      <point x="298" y="704" type="line"/>
    </contour>
    <contour>
      <point x="539" y="130" type="line"/>
      <point x="196" y="130" type="line"/>
      <point x="368" y="510" type="line"/>
    </contour>
  </outline>
</glyph>
<glyph name="summation" format="1">
  <advance width="536"/>
  <unicode hex="2211"/>
  <outline>
    <contour>
      <point x="40" y="505" type="line"/>
      <point x="275" y="334" type="line"/>
      <point x="40" y="149" type="line"/>
      <point x="40" y="-50" type="line"/>
      <point x="496" y="-50" type="line"/>
      <point x="496" y="80" type="line"/>
      <point x="129" y="80" type="line"/>
      <point x="128" y="30" type="line"/>
      <point x="438" y="273" type="line"/>
      <point x="438" y="403" type="line"/>
      <point x="128" y="624" type="line"/>
      <point x="159" y="574" type="line"/>
      <point x="496" y="574" type="line"/>
      <point x="496" y="704" type="line"/>
      <point x="40" y="704" type="line"/>
    </contour>
  </outline>
</glyph>
<glyph name="minus" format="1">
  <advance width="580"/>
  <unicode hex="2212"/>
  <outline>
    <contour>
      <point x="70" y="280" type="line"/>
      <point x="510" y="280" type="line"/>
      <point x="510" y="422" type="line"/>
      <point x="70" y="422" type="line"/>
    </contour>
  </outline>
</glyph>
<glyph name="integral" format="1">
  <advance width="292"/>
  <unicode hex="222B"/>
  <outline>
    <contour>
      <point x="17" y="-82" type="line" smooth="yes"/>
      <point x="14" y="-108"/>
      <point x="3" y="-121"/>
      <point x="-19" y="-121" type="curve" smooth="yes"/>
      <point x="-36" y="-121" type="line"/>
      <point x="-50" y="-266" type="line"/>
      <point x="-33" y="-266" type="line" smooth="yes"/>
      <point x="83" y="-266"/>
      <point x="173" y="-225"/>
      <point x="188" y="-82" type="curve" smooth="yes"/>
      <point x="275" y="758" type="line" smooth="yes"/>
      <point x="278" y="784"/>
      <point x="289" y="797"/>
      <point x="311" y="797" type="curve" smooth="yes"/>
      <point x="328" y="797" type="line"/>
      <point x="342" y="942" type="line"/>
      <point x="325" y="942" type="line" smooth="yes"/>
      <point x="209" y="942"/>
      <point x="119" y="901"/>
      <point x="104" y="758" type="curve" smooth="yes"/>
    </contour>
  </outline>
</glyph>
<glyph name="notequal" format="1">
  <advance width="730"/>
  <unicode hex="2260"/>
  <outline>
    <contour>
      <point x="110" y="65" type="line"/>
      <point x="110" y="65"/>
      <point x="206" y="65"/>
      <point x="206" y="65" type="curve"/>
      <point x="670" y="634" type="line"/>
      <point x="670" y="634"/>
      <point x="574" y="634"/>
      <point x="574" y="634" type="curve"/>
    </contour>
    <component base="equal"/>
  </outline>
</glyph>
<glyph name="lessequal" format="1">
  <advance width="548"/>
  <unicode hex="2264"/>
  <outline>
    <contour>
      <point x="282" y="389" type="line"/>
      <point x="282" y="383" type="line"/>
      <point x="483" y="571" type="line"/>
      <point x="269" y="571" type="line"/>
      <point x="65" y="386" type="line"/>
      <point x="269" y="201" type="line"/>
      <point x="483" y="201" type="line"/>
    </contour>
    <contour>
      <point x="79" y="0" type="line"/>
      <point x="477" y="0" type="line"/>
      <point x="477" y="131" type="line"/>
      <point x="79" y="131" type="line"/>
    </contour>
  </outline>
</glyph>
<glyph name="dottedcircle" format="1">
  <advance width="660"/>
  <unicode hex="25CC"/>
  <outline>
    <contour>
      <point x="139" y="517" type="curve" smooth="yes"/>
      <point x="139" y="491"/>
      <point x="157" y="472"/>
      <point x="183" y="472" type="curve" smooth="yes"/>
      <point x="209" y="472"/>
      <point x="227" y="491"/>
      <point x="227" y="517" type="curve" smooth="yes"/>
      <point x="227" y="542"/>
      <point x="209" y="561"/>
      <point x="183" y="561" type="curve" smooth="yes"/>
      <point x="157" y="561"/>
      <point x="139" y="542"/>
    </contour>
    <contour>
      <point x="57" y="407" type="curve" smooth="yes"/>
      <point x="57" y="382"/>
      <point x="77" y="363"/>
      <point x="103" y="363" type="curve" smooth="yes"/>
      <point x="127" y="363"/>
      <point x="147" y="382"/>
      <point x="147" y="407" type="curve" smooth="yes"/>
      <point x="147" y="432"/>
      <point x="127" y="451"/>
      <point x="103" y="451" type="curve" smooth="yes"/>
      <point x="77" y="451"/>
      <point x="57" y="432"/>
    </contour>
    <contour>
      <point x="44" y="281" type="curve" smooth="yes"/>
      <point x="44" y="256"/>
      <point x="63" y="238"/>
      <point x="88" y="238" type="curve" smooth="yes"/>
      <point x="114" y="238"/>
      <point x="132" y="256"/>
      <point x="132" y="281" type="curve" smooth="yes"/>
      <point x="132" y="307"/>
      <point x="114" y="326"/>
      <point x="88" y="326" type="curve" smooth="yes"/>
      <point x="63" y="326"/>
      <point x="44" y="307"/>
    </contour>
    <contour>
      <point x="96" y="165" type="curve" smooth="yes"/>
      <point x="96" y="139"/>
      <point x="114" y="121"/>
      <point x="140" y="121" type="curve" smooth="yes"/>
      <point x="165" y="121"/>
      <point x="184" y="139"/>
      <point x="184" y="165" type="curve" smooth="yes"/>
      <point x="184" y="190"/>
      <point x="165" y="209"/>
      <point x="140" y="209" type="curve" smooth="yes"/>
      <point x="114" y="209"/>
      <point x="96" y="190"/>
    </contour>
    <contour>
      <point x="197" y="90" type="curve" smooth="yes"/>
      <point x="197" y="64"/>
      <point x="216" y="44"/>
      <point x="242" y="44" type="curve" smooth="yes"/>
      <point x="267" y="44"/>
      <point x="286" y="64"/>
      <point x="286" y="90" type="curve" smooth="yes"/>
      <point x="286" y="114"/>
      <point x="267" y="134"/>
      <point x="242" y="134" type="curve" smooth="yes"/>
      <point x="216" y="134"/>
      <point x="197" y="114"/>
    </contour>
    <contour>
      <point x="324" y="74" type="curve" smooth="yes"/>
      <point x="324" y="48"/>
      <point x="342" y="30"/>
      <point x="368" y="30" type="curve" smooth="yes"/>
      <point x="394" y="30"/>
      <point x="413" y="48"/>
      <point x="413" y="74" type="curve" smooth="yes"/>
      <point x="413" y="100"/>
      <point x="394" y="118"/>
      <point x="368" y="118" type="curve" smooth="yes"/>
      <point x="342" y="118"/>
      <point x="324" y="100"/>
    </contour>
    <contour>
      <point x="445" y="127" type="curve" smooth="yes"/>
      <point x="445" y="101"/>
      <point x="464" y="83"/>
      <point x="489" y="83" type="curve" smooth="yes"/>
      <point x="514" y="83"/>
      <point x="534" y="101"/>
      <point x="534" y="127" type="curve" smooth="yes"/>
      <point x="534" y="152"/>
      <point x="514" y="171"/>
      <point x="489" y="171" type="curve" smooth="yes"/>
      <point x="464" y="171"/>
      <point x="445" y="152"/>
    </contour>
    <contour>
      <point x="518" y="225" type="curve" smooth="yes"/>
      <point x="518" y="200"/>
      <point x="537" y="181"/>
      <point x="563" y="181" type="curve" smooth="yes"/>
      <point x="587" y="181"/>
      <point x="606" y="200"/>
      <point x="606" y="225" type="curve" smooth="yes"/>
      <point x="606" y="251"/>
      <point x="587" y="270"/>
      <point x="563" y="270" type="curve" smooth="yes"/>
      <point x="537" y="270"/>
      <point x="518" y="251"/>
    </contour>
    <contour>
      <point x="528" y="359" type="curve" smooth="yes"/>
      <point x="528" y="333"/>
      <point x="546" y="315"/>
      <point x="572" y="315" type="curve" smooth="yes"/>
      <point x="597" y="315"/>
      <point x="616" y="333"/>
      <point x="616" y="359" type="curve" smooth="yes"/>
      <point x="616" y="385"/>
      <point x="597" y="403"/>
      <point x="572" y="403" type="curve" smooth="yes"/>
      <point x="546" y="403"/>
      <point x="528" y="385"/>
    </contour>
    <contour>
      <point x="478" y="477" type="curve" smooth="yes"/>
      <point x="478" y="452"/>
      <point x="497" y="433"/>
      <point x="522" y="433" type="curve" smooth="yes"/>
      <point x="548" y="433"/>
      <point x="566" y="452"/>
      <point x="566" y="477" type="curve" smooth="yes"/>
      <point x="566" y="503"/>
      <point x="548" y="522"/>
      <point x="522" y="522" type="curve" smooth="yes"/>
      <point x="497" y="522"/>
      <point x="478" y="503"/>
    </contour>
    <contour>
      <point x="383" y="545" type="curve" smooth="yes"/>
      <point x="383" y="521"/>
      <point x="402" y="501"/>
      <point x="428" y="501" type="curve" smooth="yes"/>
      <point x="453" y="501"/>
      <point x="471" y="521"/>
      <point x="471" y="545" type="curve" smooth="yes"/>
      <point x="471" y="571"/>
      <point x="453" y="590"/>
      <point x="428" y="590" type="curve" smooth="yes"/>
      <point x="402" y="590"/>
      <point x="383" y="571"/>
    </contour>
    <contour>
      <point x="257" y="560" type="curve" smooth="yes"/>
      <point x="257" y="534"/>
      <point x="275" y="516"/>
      <point x="301" y="516" type="curve" smooth="yes"/>
      <point x="327" y="516"/>
      <point x="345" y="534"/>
      <point x="345" y="560" type="curve" smooth="yes"/>
      <point x="345" y="586"/>
      <point x="327" y="604"/>
      <point x="301" y="604" type="curve" smooth="yes"/>
      <point x="275" y="604"/>
      <point x="257" y="586"/>
    </contour>
  </outline>
</glyph>
<glyph name="commaaccent" format="1">
  <advance width="171"/>
  <unicode hex="F6C3"/>
  <outline>
    <contour>
      <point x="78" y="0" type="move" name="_bottom"/>
    </contour>
    <contour>
      <point x="-40" y="-40" type="move" name="_topright"/>
    </contour>
    <contour>
      <point x="10" y="-40" type="line"/>
      <point x="10" y="-163" type="line"/>
      <point x="73" y="-163" type="line"/>
      <point x="73" y="-179" type="line" smooth="yes"/>
      <point x="73" y="-224"/>
      <point x="55" y="-245"/>
      <point x="21" y="-245" type="curve"/>
      <point x="21" y="-310" type="line"/>
      <point x="116" y="-310"/>
      <point x="161" y="-248"/>
      <point x="161" y="-158" type="curve" smooth="yes"/>
      <point x="161" y="-122"/>
      <point x="155" y="-82"/>
      <point x="141" y="-40" type="curve"/>
    </contour>
  </outline>
</glyph>
<glyph name="fi" format="1">
  <advance width="657"/>
  <unicode hex="FB01"/>
  <outline>
    <contour>
      <point x="77" y="0" type="line"/>
      <point x="248" y="0" type="line"/>
      <point x="248" y="579" type="line" smooth="yes"/>
      <point x="248" y="624"/>
      <point x="266" y="638"/>
      <point x="311" y="638" type="curve"/>
      <point x="311" y="783" type="line"/>
      <point x="151" y="783"/>
      <point x="77" y="721"/>
      <point x="77" y="579" type="curve" smooth="yes"/>
    </contour>
    <contour>
      <point x="496" y="592" type="curve" smooth="yes"/>
      <point x="552" y="592"/>
      <point x="596" y="636"/>
      <point x="596" y="692" type="curve" smooth="yes"/>
      <point x="596" y="749"/>
      <point x="552" y="793"/>
      <point x="496" y="793" type="curve" smooth="yes"/>
      <point x="440" y="793"/>
      <point x="396" y="749"/>
      <point x="396" y="692" type="curve" smooth="yes"/>
      <point x="396" y="636"/>
      <point x="440" y="592"/>
    </contour>
    <contour>
      <point x="25" y="558" type="line"/>
      <point x="25" y="416" type="line"/>
      <point x="411" y="416" type="line"/>
      <point x="411" y="0" type="line"/>
      <point x="582" y="0" type="line"/>
      <point x="582" y="558" type="line"/>
    </contour>
  </outline>
</glyph>
<glyph name=".notdef" format="1">
  <advance width="756"/>
  <outline>
    <contour>
      <point x="160" y="0" type="line"/>
      <point x="596" y="0" type="line"/>
      <point x="596" y="701" type="line"/>
      <point x="160" y="701" type="line"/>
    </contour>
    <contour>
      <point x="241" y="625" type="line"/>
      <point x="516" y="625" type="line"/>
      <point x="516" y="76" type="line"/>
      <point x="241" y="76" type="line"/>
    </contour>
  </outline>
</glyph>
<glyph name="dvAnusvara.amI" format="1">
  <advance width="0"/>
  <outline>
    <contour>
      <point x="-75" y="740" type="move" name="_abvm.i"/>
    </contour>
    <contour>
      <point x="4" y="808" type="curve" smooth="yes"/>
      <point x="27" y="808"/>
      <point x="46" y="826"/>
      <point x="46" y="849" type="curve" smooth="yes"/>
      <point x="46" y="872"/>
      <point x="27" y="891"/>
      <point x="4" y="891" type="curve" smooth="yes"/>
      <point x="-19" y="891"/>
      <point x="-37" y="872"/>
      <point x="-37" y="849" type="curve" smooth="yes"/>
      <point x="-37" y="826"/>
      <point x="-19" y="808"/>
    </contour>
  </outline>
</glyph>
<glyph name="dvAvagraha" format="1">
  <advance width="604"/>
  <outline>
    <contour>
      <point x="329" y="497" type="curve" smooth="yes"/>
      <point x="329" y="530"/>
      <point x="364" y="532"/>
      <point x="402" y="532" type="curve" smooth="yes"/>
      <point x="547" y="532" type="line"/>
      <point x="547" y="672" type="line"/>
      <point x="339" y="672" type="line" smooth="yes"/>
      <point x="229" y="672"/>
      <point x="148" y="621"/>
      <point x="148" y="527" type="curve" smooth="yes"/>
      <point x="148" y="368"/>
      <point x="339" y="275"/>
      <point x="339" y="213" type="curve" smooth="yes"/>
      <point x="339" y="186"/>
      <point x="308" y="185"/>
      <point x="268" y="185" type="curve"/>
      <point x="53" y="185" type="line"/>
      <point x="53" y="45" type="line"/>
      <point x="306" y="45" type="line"/>
      <point x="434" y="45"/>
      <point x="514" y="91"/>
      <point x="514" y="184" type="curve" smooth="yes"/>
      <point x="514" y="345"/>
      <point x="329" y="436"/>
    </contour>
  </outline>
</glyph>
<glyph name="dvB" format="1">
  <advance width="359"/>
  <outline>
    <contour>
      <point x="591" y="600" type="line"/>
      <point x="591" y="740" type="line"/>
      <point x="-20" y="740" type="line"/>
      <point x="-20" y="600" type="line"/>
    </contour>
    <contour>
      <point x="177" y="303" type="curve" smooth="yes"/>
      <point x="177" y="379"/>
      <point x="236" y="431"/>
      <point x="312" y="431" type="curve" smooth="yes"/>
      <point x="388" y="431"/>
      <point x="447" y="379"/>
      <point x="447" y="303" type="curve" smooth="yes"/>
      <point x="447" y="223"/>
      <point x="388" y="175"/>
      <point x="312" y="175" type="curve"/>
      <point x="236" y="175"/>
      <point x="177" y="223"/>
    </contour>
    <contour>
      <point x="414" y="183" type="line"/>
      <point x="500" y="234" type="line"/>
      <point x="164" y="459" type="line"/>
      <point x="104" y="390" type="line"/>
    </contour>
    <contour>
      <point x="35" y="303" type="curve" smooth="yes"/>
      <point x="35" y="145"/>
      <point x="155" y="54"/>
      <point x="312" y="54" type="curve" smooth="yes"/>
      <point x="467" y="54"/>
      <point x="589" y="145"/>
      <point x="589" y="303" type="curve" smooth="yes"/>
      <point x="589" y="460"/>
      <point x="466" y="552"/>
      <point x="313" y="552" type="curve"/>
      <point x="158" y="552"/>
      <point x="35" y="462"/>
    </contour>
  </outline>
</glyph>
<glyph name="dvBH_NA" format="1">
  <advance width="1389"/>
  <outline>
    <contour>
      <point x="355" y="286" type="line"/>
      <point x="355" y="233"/>
      <point x="340" y="196"/>
      <point x="290" y="196" type="curve" smooth="yes"/>
      <point x="250" y="196"/>
      <point x="220" y="220"/>
      <point x="220" y="261" type="curve" smooth="yes"/>
      <point x="220" y="312"/>
      <point x="262" y="332"/>
      <point x="313" y="332" type="curve" smooth="yes"/>
      <point x="755" y="332" type="line"/>
      <point x="755" y="466" type="line"/>
      <point x="311" y="466" type="line" smooth="yes"/>
      <point x="170" y="466"/>
      <point x="68" y="407"/>
      <point x="68" y="266" type="curve" smooth="yes"/>
      <point x="68" y="139"/>
      <point x="168" y="58"/>
      <point x="294" y="58" type="curve" smooth="yes"/>
      <point x="439" y="58"/>
      <point x="509" y="148"/>
      <point x="509" y="292" type="curve" smooth="yes"/>
      <point x="509" y="509" type="line" smooth="yes"/>
      <point x="509" y="654"/>
      <point x="458" y="750"/>
      <point x="307" y="750" type="curve" smooth="yes"/>
      <point x="149" y="750"/>
      <point x="99" y="652"/>
      <point x="101" y="512" type="curve"/>
      <point x="265" y="512" type="line"/>
      <point x="265" y="557"/>
      <point x="265" y="608"/>
      <point x="310" y="608" type="curve" smooth="yes"/>
      <point x="355" y="608"/>
      <point x="355" y="557"/>
      <point x="355" y="512" type="curve" smooth="yes"/>
    </contour>
    <contour>
      <point x="1150" y="0" type="line"/>
      <point x="1314" y="0" type="line"/>
      <point x="1314" y="600" type="line"/>
      <point x="1409" y="600" type="line"/>
      <point x="1409" y="740" type="line"/>
      <point x="559" y="740" type="line"/>
      <point x="559" y="600" type="line"/>
      <point x="1150" y="600" type="line"/>
      <point x="1150" y="489" type="line"/>
      <point x="853" y="489" type="line" smooth="yes"/>
      <point x="713" y="489"/>
      <point x="607" y="419"/>
      <point x="607" y="279" type="curve" smooth="yes"/>
      <point x="607" y="145"/>
      <point x="701" y="60"/>
      <point x="835" y="60" type="curve" smooth="yes"/>
      <point x="960" y="60"/>
      <point x="1045" y="127"/>
      <point x="1045" y="247" type="curve" smooth="yes"/>
      <point x="1045" y="288"/>
      <point x="1029" y="330"/>
      <point x="1010" y="351" type="curve"/>
      <point x="1150" y="351" type="line"/>
    </contour>
    <contour>
      <point x="834" y="349" type="curve" smooth="yes"/>
      <point x="882" y="349"/>
      <point x="908" y="324"/>
      <point x="908" y="277" type="curve" smooth="yes"/>
      <point x="908" y="231"/>
      <point x="882" y="200"/>
      <point x="834" y="200" type="curve" smooth="yes"/>
      <point x="788" y="200"/>
      <point x="755" y="231"/>
      <point x="755" y="277" type="curve" smooth="yes"/>
      <point x="755" y="325"/>
      <point x="788" y="349"/>
    </contour>
  </outline>
</glyph>
<glyph name="dvBH_RA" format="1">
  <advance width="893"/>
  <outline>
    <contour>
      <point x="806" y="-76" type="move" name="blwm.u"/>
    </contour>
    <contour>
      <point x="629" y="0" type="line"/>
      <point x="793" y="0" type="line"/>
      <point x="793" y="723" type="line"/>
      <point x="629" y="723" type="line"/>
    </contour>
    <contour>
      <point x="913" y="600" type="line"/>
      <point x="913" y="740" type="line"/>
      <point x="629" y="740" type="line"/>
      <point x="629" y="600" type="line"/>
    </contour>
    <contour>
      <point x="345" y="299" type="line"/>
      <point x="345" y="246"/>
      <point x="330" y="209"/>
      <point x="280" y="209" type="curve" smooth="yes"/>
      <point x="240" y="209"/>
      <point x="210" y="233"/>
      <point x="210" y="274" type="curve" smooth="yes"/>
      <point x="210" y="325"/>
      <point x="252" y="345"/>
      <point x="303" y="345" type="curve" smooth="yes"/>
      <point x="775" y="345" type="line"/>
      <point x="775" y="479" type="line"/>
      <point x="301" y="479" type="line" smooth="yes"/>
      <point x="160" y="479"/>
      <point x="58" y="420"/>
      <point x="58" y="279" type="curve" smooth="yes"/>
      <point x="58" y="152"/>
      <point x="158" y="71"/>
      <point x="284" y="71" type="curve" smooth="yes"/>
      <point x="429" y="71"/>
      <point x="499" y="161"/>
      <point x="499" y="305" type="curve" smooth="yes"/>
      <point x="499" y="509" type="line"/>
      <point x="499" y="654"/>
      <point x="448" y="750"/>
      <point x="297" y="750" type="curve" smooth="yes"/>
      <point x="139" y="750"/>
      <point x="89" y="652"/>
      <point x="91" y="512" type="curve"/>
      <point x="255" y="512" type="line"/>
      <point x="255" y="557"/>
      <point x="255" y="608"/>
      <point x="300" y="608" type="curve" smooth="yes"/>
      <point x="345" y="608"/>
      <point x="345" y="557"/>
      <point x="345" y="512" type="curve" smooth="yes"/>
    </contour>
    <contour>
      <point x="305" y="-93" type="curve"/>
      <point x="305" y="-93"/>
      <point x="463" y="-93"/>
      <point x="463" y="-93" type="curve"/>
      <point x="463" y="-93"/>
      <point x="726" y="249"/>
      <point x="726" y="249" type="curve"/>
      <point x="726" y="249"/>
      <point x="641" y="306"/>
      <point x="641" y="306" type="curve"/>
      <point x="630" y="290"/>
      <point x="305" y="-93"/>
    </contour>
  </outline>
</glyph>
<glyph name="dvBH_R_YA" format="1">
  <advance width="1288"/>
  <outline>
    <contour>
      <point x="355" y="296" type="line"/>
      <point x="355" y="243"/>
      <point x="340" y="206"/>
      <point x="290" y="206" type="curve" smooth="yes"/>
      <point x="250" y="206"/>
      <point x="220" y="230"/>
      <point x="220" y="271" type="curve" smooth="yes"/>
      <point x="220" y="322"/>
      <point x="262" y="342"/>
      <point x="313" y="342" type="curve" smooth="yes"/>
      <point x="731" y="342" type="line"/>
      <point x="731" y="476" type="line"/>
      <point x="311" y="476" type="line" smooth="yes"/>
      <point x="170" y="476"/>
      <point x="68" y="417"/>
      <point x="68" y="276" type="curve" smooth="yes"/>
      <point x="68" y="149"/>
      <point x="168" y="68"/>
      <point x="294" y="68" type="curve" smooth="yes"/>
      <point x="439" y="68"/>
      <point x="509" y="158"/>
      <point x="509" y="302" type="curve" smooth="yes"/>
      <point x="509" y="509" type="line" smooth="yes"/>
      <point x="509" y="654"/>
      <point x="458" y="750"/>
      <point x="307" y="750" type="curve" smooth="yes"/>
      <point x="149" y="750"/>
      <point x="99" y="652"/>
      <point x="101" y="512" type="curve"/>
      <point x="265" y="512" type="line"/>
      <point x="265" y="557"/>
      <point x="265" y="608"/>
      <point x="310" y="608" type="curve" smooth="yes"/>
      <point x="355" y="608"/>
      <point x="355" y="557"/>
      <point x="355" y="512" type="curve" smooth="yes"/>
    </contour>
    <contour>
      <point x="329" y="-83" type="curve"/>
      <point x="329" y="-83"/>
      <point x="517" y="-83"/>
      <point x="517" y="-83" type="curve"/>
      <point x="517" y="-83"/>
      <point x="741" y="151"/>
      <point x="741" y="151" type="curve"/>
      <point x="741" y="151"/>
      <point x="731" y="314"/>
      <point x="731" y="314" type="curve"/>
      <point x="720" y="298"/>
      <point x="329" y="-83"/>
    </contour>
    <contour>
      <point x="746" y="611" type="line"/>
      <point x="746" y="579" type="line" smooth="yes"/>
      <point x="746" y="476"/>
      <point x="745" y="476"/>
      <point x="599" y="476" type="curve"/>
      <point x="568" y="236"/>
      <point x="670" y="78"/>
      <point x="872" y="78" type="curve" smooth="yes"/>
      <point x="1023" y="78"/>
      <point x="1092" y="177"/>
      <point x="1091" y="305" type="curve"/>
      <point x="1049" y="381" type="line"/>
      <point x="1049" y="289"/>
      <point x="998" y="218"/>
      <point x="902" y="218" type="curve" smooth="yes"/>
      <point x="806" y="218"/>
      <point x="759" y="280"/>
      <point x="763" y="361" type="curve"/>
      <point x="878" y="374"/>
      <point x="907" y="429"/>
      <point x="907" y="572" type="curve" smooth="yes"/>
      <point x="907" y="611" type="line"/>
    </contour>
    <contour>
      <point x="1049" y="600" type="line"/>
      <point x="1049" y="0" type="line"/>
      <point x="1213" y="0" type="line"/>
      <point x="1213" y="600" type="line"/>
      <point x="1308" y="600" type="line"/>
      <point x="1308" y="740" type="line"/>
      <point x="587" y="740" type="line"/>
      <point x="587" y="600" type="line"/>
    </contour>
  </outline>
</glyph>
<glyph name="dvBH_VA" format="1">
  <advance width="1181"/>
  <outline>
    <contour>
      <point x="334" y="286" type="line"/>
      <point x="334" y="233"/>
      <point x="319" y="196"/>
      <point x="269" y="196" type="curve" smooth="yes"/>
      <point x="229" y="196"/>
      <point x="199" y="220"/>
      <point x="199" y="261" type="curve" smooth="yes"/>
      <point x="199" y="312"/>
      <point x="241" y="332"/>
      <point x="292" y="332" type="curve" smooth="yes"/>
      <point x="704" y="332" type="line"/>
      <point x="704" y="466" type="line"/>
      <point x="290" y="466" type="line" smooth="yes"/>
      <point x="149" y="466"/>
      <point x="47" y="407"/>
      <point x="47" y="266" type="curve" smooth="yes"/>
      <point x="47" y="139"/>
      <point x="147" y="58"/>
      <point x="273" y="58" type="curve" smooth="yes"/>
      <point x="418" y="58"/>
      <point x="488" y="148"/>
      <point x="488" y="292" type="curve" smooth="yes"/>
      <point x="488" y="509" type="line" smooth="yes"/>
      <point x="488" y="654"/>
      <point x="437" y="750"/>
      <point x="286" y="750" type="curve" smooth="yes"/>
      <point x="128" y="750"/>
      <point x="78" y="652"/>
      <point x="80" y="512" type="curve"/>
      <point x="244" y="512" type="line"/>
      <point x="244" y="557"/>
      <point x="244" y="608"/>
      <point x="289" y="608" type="curve" smooth="yes"/>
      <point x="334" y="608"/>
      <point x="334" y="557"/>
      <point x="334" y="512" type="curve" smooth="yes"/>
    </contour>
    <contour>
      <point x="798" y="59" type="curve" smooth="yes"/>
      <point x="924" y="59"/>
      <point x="1003" y="147"/>
      <point x="992" y="288" type="curve"/>
      <point x="949" y="303" type="line"/>
      <point x="949" y="238"/>
      <point x="908" y="195"/>
      <point x="843" y="195" type="curve" smooth="yes"/>
      <point x="776" y="195"/>
      <point x="733" y="240"/>
      <point x="733" y="303" type="curve" smooth="yes"/>
      <point x="733" y="366"/>
      <point x="776" y="411"/>
      <point x="843" y="411" type="curve" smooth="yes"/>
      <point x="908" y="411"/>
      <point x="949" y="369"/>
      <point x="949" y="304" type="curve"/>
      <point x="992" y="318" type="line"/>
      <point x="1000" y="460"/>
      <point x="924" y="547"/>
      <point x="798" y="547" type="curve" smooth="yes"/>
      <point x="669" y="547"/>
      <point x="573" y="437"/>
      <point x="573" y="303" type="curve" smooth="yes"/>
      <point x="573" y="169"/>
      <point x="669" y="59"/>
    </contour>
    <contour>
      <point x="1201" y="740" type="line"/>
      <point x="556" y="740" type="line"/>
      <point x="556" y="600" type="line"/>
      <point x="949" y="600" type="line"/>
      <point x="949" y="0" type="line"/>
      <point x="1106" y="0" type="line"/>
      <point x="1106" y="600" type="line"/>
      <point x="1201" y="600" type="line"/>
    </contour>
  </outline>
</glyph>
<glyph name="dvB_BHA" format="1">
  <advance width="1248"/>
  <outline>
    <contour>
      <point x="592" y="600" type="line"/>
      <point x="657" y="740" type="line"/>
      <point x="-20" y="740" type="line"/>
      <point x="-20" y="600" type="line"/>
    </contour>
    <contour>
      <point x="36" y="303" type="curve" smooth="yes"/>
      <point x="36" y="145"/>
      <point x="152" y="52"/>
      <point x="309" y="52" type="curve" smooth="yes"/>
      <point x="460" y="52"/>
      <point x="570" y="140"/>
      <point x="570" y="303" type="curve" smooth="yes"/>
      <point x="570" y="460"/>
      <point x="453" y="552"/>
      <point x="310" y="552" type="curve" smooth="yes"/>
      <point x="155" y="552"/>
      <point x="36" y="462"/>
    </contour>
    <contour>
      <point x="178" y="303" type="curve" smooth="yes"/>
      <point x="178" y="379"/>
      <point x="237" y="431"/>
      <point x="313" y="431" type="curve" smooth="yes"/>
      <point x="389" y="431"/>
      <point x="448" y="379"/>
      <point x="448" y="303" type="curve" smooth="yes"/>
      <point x="448" y="223"/>
      <point x="389" y="175"/>
      <point x="313" y="175" type="curve" smooth="yes"/>
      <point x="237" y="175"/>
      <point x="178" y="223"/>
    </contour>
    <contour>
      <point x="415" y="183" type="line"/>
      <point x="501" y="234" type="line"/>
      <point x="165" y="459" type="line"/>
      <point x="105" y="390" type="line"/>
    </contour>
    <contour>
      <point x="1008" y="0" type="line"/>
      <point x="1172" y="0" type="line"/>
      <point x="1172" y="723" type="line"/>
      <point x="1008" y="723" type="line"/>
    </contour>
    <contour>
      <point x="1267" y="600" type="line"/>
      <point x="1267" y="740" type="line"/>
      <point x="1008" y="740" type="line"/>
      <point x="1008" y="600" type="line"/>
    </contour>
    <contour>
      <point x="645" y="528" type="line"/>
      <point x="645" y="571"/>
      <point x="652" y="608"/>
      <point x="690" y="608" type="curve" smooth="yes"/>
      <point x="728" y="608"/>
      <point x="735" y="571"/>
      <point x="735" y="528" type="curve" smooth="yes"/>
      <point x="735" y="296" type="line" smooth="yes"/>
      <point x="735" y="243"/>
      <point x="720" y="206"/>
      <point x="670" y="206" type="curve" smooth="yes"/>
      <point x="630" y="206"/>
      <point x="600" y="230"/>
      <point x="600" y="271" type="curve" smooth="yes"/>
      <point x="600" y="322"/>
      <point x="642" y="342"/>
      <point x="693" y="342" type="curve" smooth="yes"/>
      <point x="1165" y="342" type="line"/>
      <point x="1165" y="476" type="line"/>
      <point x="691" y="476" type="line" smooth="yes"/>
      <point x="550" y="476"/>
      <point x="448" y="417"/>
      <point x="448" y="276" type="curve" smooth="yes"/>
      <point x="448" y="149"/>
      <point x="548" y="68"/>
      <point x="674" y="68" type="curve" smooth="yes"/>
      <point x="819" y="68"/>
      <point x="889" y="158"/>
      <point x="889" y="302" type="curve" smooth="yes"/>
      <point x="889" y="514" type="line" smooth="yes"/>
      <point x="889" y="654"/>
      <point x="834" y="750"/>
      <point x="691" y="750" type="curve" smooth="yes"/>
      <point x="543" y="750"/>
      <point x="491" y="670"/>
      <point x="491" y="528" type="curve"/>
    </contour>
  </outline>
</glyph>
<glyph name="dvB_DHA" format="1">
  <advance width="1112"/>
  <outline>
    <contour>
      <point x="592" y="600" type="line"/>
      <point x="592" y="740" type="line"/>
      <point x="-20" y="740" type="line"/>
      <point x="-20" y="600" type="line"/>
    </contour>
    <contour>
      <point x="415" y="183" type="line"/>
      <point x="501" y="234" type="line"/>
      <point x="165" y="459" type="line"/>
      <point x="105" y="390" type="line"/>
    </contour>
    <contour>
      <point x="448" y="288" type="line"/>
      <point x="440" y="216"/>
      <point x="384" y="175"/>
      <point x="313" y="175" type="curve" smooth="yes"/>
      <point x="237" y="175"/>
      <point x="178" y="223"/>
      <point x="178" y="303" type="curve" smooth="yes"/>
      <point x="178" y="383"/>
      <point x="238" y="431"/>
      <point x="318" y="431" type="curve" smooth="yes"/>
      <point x="339" y="431"/>
      <point x="360" y="428"/>
      <point x="383" y="421" type="curve"/>
      <point x="383" y="540" type="line"/>
      <point x="357" y="547"/>
      <point x="325" y="550"/>
      <point x="299" y="550" type="curve" smooth="yes"/>
      <point x="136" y="550"/>
      <point x="36" y="447"/>
      <point x="36" y="303" type="curve" smooth="yes"/>
      <point x="36" y="145"/>
      <point x="150" y="52"/>
      <point x="307" y="52" type="curve" smooth="yes"/>
      <point x="445" y="52"/>
      <point x="550" y="125"/>
      <point x="567" y="261" type="curve"/>
    </contour>
    <component base="dvDHA" xOffset="371"/>
  </outline>
</glyph>
<glyph name="dvB_JHA" format="1">
  <advance width="1268"/>
  <outline>
    <contour>
      <point x="485" y="600" type="line"/>
      <point x="485" y="740" type="line"/>
      <point x="-20" y="740" type="line"/>
      <point x="-20" y="600" type="line"/>
    </contour>
    <contour>
      <point x="378" y="193" type="line"/>
      <point x="464" y="244" type="line"/>
      <point x="198" y="469" type="line"/>
      <point x="138" y="400" type="line"/>
    </contour>
    <contour>
      <point x="461" y="385" type="line"/>
      <point x="448" y="287"/>
      <point x="399" y="210"/>
      <point x="299" y="210" type="curve" smooth="yes"/>
      <point x="239" y="210"/>
      <point x="178" y="243"/>
      <point x="178" y="312" type="curve" smooth="yes"/>
      <point x="178" y="401"/>
      <point x="250" y="422"/>
      <point x="324" y="422" type="curve" smooth="yes"/>
      <point x="343" y="422"/>
      <point x="366" y="419"/>
      <point x="382" y="416" type="curve"/>
      <point x="382" y="543" type="line"/>
      <point x="347" y="550"/>
      <point x="319" y="553"/>
      <point x="289" y="553" type="curve" smooth="yes"/>
      <point x="124" y="553"/>
      <point x="29" y="454"/>
      <point x="29" y="320" type="curve" smooth="yes"/>
      <point x="29" y="162"/>
      <point x="159" y="83"/>
      <point x="291" y="83" type="curve" smooth="yes"/>
      <point x="446" y="83"/>
      <point x="555" y="186"/>
      <point x="555" y="344" type="curve"/>
    </contour>
    <contour>
      <point x="1288" y="600" type="line"/>
      <point x="1288" y="740" type="line"/>
      <point x="370" y="740" type="line"/>
      <point x="370" y="600" type="line"/>
    </contour>
    <contour>
      <point x="1029" y="0" type="line"/>
      <point x="1193" y="0" type="line"/>
      <point x="1193" y="723" type="line"/>
      <point x="1029" y="723" type="line"/>
    </contour>
    <contour>
      <point x="704" y="496" type="line"/>
      <point x="869" y="496" type="line"/>
      <point x="869" y="708" type="line"/>
      <point x="704" y="708" type="line"/>
    </contour>
    <contour>
      <point x="486" y="126" type="line"/>
      <point x="486" y="-127" type="line"/>
      <point x="641" y="-127" type="line"/>
      <point x="641" y="-14" type="line"/>
      <point x="660" y="-34"/>
      <point x="707" y="-48"/>
      <point x="744" y="-48" type="curve" smooth="yes"/>
      <point x="860" y="-48"/>
      <point x="923" y="15"/>
      <point x="923" y="117" type="curve" smooth="yes"/>
      <point x="923" y="154"/>
      <point x="909" y="179"/>
      <point x="899" y="189" type="curve"/>
      <point x="1072" y="189" type="line"/>
      <point x="1092" y="319" type="line"/>
      <point x="703" y="319" type="line" smooth="yes"/>
      <point x="656" y="319"/>
      <point x="626" y="329"/>
      <point x="626" y="361" type="curve" smooth="yes"/>
      <point x="626" y="391"/>
      <point x="661" y="401"/>
      <point x="714" y="401" type="curve" smooth="yes"/>
      <point x="869" y="401" type="line"/>
      <point x="869" y="498" type="line"/>
      <point x="719" y="531" type="line"/>
      <point x="665" y="531" type="line" smooth="yes"/>
      <point x="556" y="531"/>
      <point x="460" y="482"/>
      <point x="460" y="372" type="curve" smooth="yes"/>
      <point x="460" y="216"/>
      <point x="586" y="193"/>
      <point x="677" y="193" type="curve" smooth="yes"/>
      <point x="740" y="193"/>
      <point x="780" y="184"/>
      <point x="780" y="139" type="curve" smooth="yes"/>
      <point x="780" y="104"/>
      <point x="759" y="78"/>
      <point x="714" y="78" type="curve" smooth="yes"/>
      <point x="668" y="78"/>
      <point x="644" y="98"/>
      <point x="641" y="126" type="curve"/>
    </contour>
  </outline>
</glyph>
<glyph name="dvB_J_YA" format="1">
  <advance width="1704"/>
  <outline>
    <contour>
      <point x="522" y="600" type="line"/>
      <point x="522" y="740" type="line"/>
      <point x="-20" y="740" type="line"/>
      <point x="-20" y="600" type="line"/>
    </contour>
    <contour>
      <point x="1208" y="600" type="line"/>
      <point x="1208" y="740" type="line"/>
      <point x="311" y="740" type="line"/>
      <point x="311" y="600" type="line"/>
    </contour>
    <contour>
      <point x="1465" y="600" type="line"/>
      <point x="1465" y="0" type="line"/>
      <point x="1629" y="0" type="line"/>
      <point x="1629" y="600" type="line"/>
      <point x="1724" y="600" type="line"/>
      <point x="1724" y="740" type="line"/>
      <point x="926" y="740" type="line"/>
      <point x="926" y="600" type="line"/>
    </contour>
    <contour>
      <point x="1162" y="611" type="line"/>
      <point x="1162" y="584" type="line" smooth="yes"/>
      <point x="1162" y="481"/>
      <point x="1161" y="476"/>
      <point x="1015" y="476" type="curve"/>
      <point x="984" y="236"/>
      <point x="1086" y="78"/>
      <point x="1288" y="78" type="curve" smooth="yes"/>
      <point x="1439" y="78"/>
      <point x="1508" y="177"/>
      <point x="1507" y="305" type="curve"/>
      <point x="1465" y="381" type="line"/>
      <point x="1465" y="289"/>
      <point x="1414" y="218"/>
      <point x="1318" y="218" type="curve" smooth="yes"/>
      <point x="1222" y="218"/>
      <point x="1175" y="280"/>
      <point x="1179" y="361" type="curve"/>
      <point x="1300" y="377"/>
      <point x="1323" y="434"/>
      <point x="1323" y="577" type="curve" smooth="yes"/>
      <point x="1323" y="611" type="line"/>
    </contour>
    <contour>
      <point x="1114" y="476" type="line"/>
      <point x="697" y="476" type="line"/>
      <point x="697" y="345" type="line"/>
      <point x="1114" y="345" type="line"/>
    </contour>
    <contour>
      <point x="629" y="75" type="curve" smooth="yes"/>
      <point x="773" y="75"/>
      <point x="844" y="157"/>
      <point x="844" y="309" type="curve" smooth="yes"/>
      <point x="844" y="476" type="line"/>
      <point x="683" y="476" type="line"/>
      <point x="683" y="336" type="line" smooth="yes"/>
      <point x="683" y="262"/>
      <point x="676" y="215"/>
      <point x="616" y="215" type="curve" smooth="yes"/>
      <point x="572" y="215"/>
      <point x="545" y="240"/>
      <point x="545" y="282" type="curve" smooth="yes"/>
      <point x="545" y="418" type="line"/>
      <point x="545" y="418"/>
      <point x="406" y="418"/>
      <point x="406" y="418" type="curve"/>
      <point x="406" y="418"/>
      <point x="406" y="345"/>
      <point x="406" y="345" type="curve"/>
      <point x="406" y="219"/>
      <point x="443" y="75"/>
    </contour>
    <contour>
      <point x="431" y="262" type="line"/>
      <point x="422" y="194"/>
      <point x="382" y="154"/>
      <point x="312" y="154" type="curve" smooth="yes"/>
      <point x="236" y="154"/>
      <point x="177" y="202"/>
      <point x="177" y="282" type="curve" smooth="yes"/>
      <point x="177" y="358"/>
      <point x="231" y="412"/>
      <point x="311" y="412" type="curve" smooth="yes"/>
      <point x="365" y="412"/>
      <point x="405" y="390"/>
      <point x="424" y="354" type="curve"/>
      <point x="545" y="418" type="line"/>
      <point x="498" y="490"/>
      <point x="417" y="531"/>
      <point x="303" y="531" type="curve" smooth="yes"/>
      <point x="158" y="531"/>
      <point x="35" y="441"/>
      <point x="35" y="282" type="curve" smooth="yes"/>
      <point x="35" y="124"/>
      <point x="151" y="33"/>
      <point x="304" y="33" type="curve" smooth="yes"/>
      <point x="422" y="33"/>
      <point x="517" y="87"/>
      <point x="553" y="185" type="curve"/>
    </contour>
    <contour>
      <point x="399" y="162" type="line"/>
      <point x="485" y="213" type="line"/>
      <point x="164" y="438" type="line"/>
      <point x="104" y="369" type="line"/>
    </contour>
  </outline>
</glyph>
<glyph name="dvB_L_YA" format="1">
  <advance width="1758"/>
  <outline>
    <contour>
      <point x="1223" y="600" type="line"/>
      <point x="1316" y="740" type="line"/>
      <point x="365" y="740" type="line"/>
      <point x="365" y="600" type="line"/>
    </contour>
    <contour>
      <point x="1218" y="322" type="line"/>
      <point x="1201" y="438"/>
      <point x="1141" y="515"/>
      <point x="1023" y="515" type="curve" smooth="yes"/>
      <point x="940" y="515"/>
      <point x="883" y="477"/>
      <point x="854" y="415" type="curve"/>
      <point x="823" y="477"/>
      <point x="763" y="515"/>
      <point x="675" y="515" type="curve" smooth="yes"/>
      <point x="549" y="515"/>
      <point x="448" y="435"/>
      <point x="448" y="269" type="curve" smooth="yes"/>
      <point x="448" y="101"/>
      <point x="561" y="-1"/>
      <point x="755" y="13" type="curve"/>
      <point x="755" y="155" type="line"/>
      <point x="672" y="150"/>
      <point x="613" y="178"/>
      <point x="613" y="270" type="curve" smooth="yes"/>
      <point x="613" y="330"/>
      <point x="639" y="371"/>
      <point x="697" y="371" type="curve" smooth="yes"/>
      <point x="784" y="371"/>
      <point x="785" y="280"/>
      <point x="777" y="206" type="curve"/>
      <point x="927" y="206" type="line"/>
      <point x="920" y="263"/>
      <point x="915" y="372"/>
      <point x="1001" y="372" type="curve" smooth="yes"/>
      <point x="1039" y="372"/>
      <point x="1061" y="351"/>
      <point x="1067" y="322" type="curve"/>
    </contour>
    <contour>
      <point x="592" y="600" type="line"/>
      <point x="657" y="740" type="line"/>
      <point x="-20" y="740" type="line"/>
      <point x="-20" y="600" type="line"/>
    </contour>
    <contour>
      <point x="36" y="303" type="curve" smooth="yes"/>
      <point x="36" y="145"/>
      <point x="152" y="52"/>
      <point x="309" y="52" type="curve" smooth="yes"/>
      <point x="460" y="52"/>
      <point x="560" y="146"/>
      <point x="560" y="303" type="curve" smooth="yes"/>
      <point x="560" y="460"/>
      <point x="453" y="552"/>
      <point x="310" y="552" type="curve" smooth="yes"/>
      <point x="155" y="552"/>
      <point x="36" y="462"/>
    </contour>
    <contour>
      <point x="178" y="303" type="curve" smooth="yes"/>
      <point x="178" y="379"/>
      <point x="237" y="431"/>
      <point x="313" y="431" type="curve" smooth="yes"/>
      <point x="389" y="431"/>
      <point x="448" y="379"/>
      <point x="448" y="303" type="curve" smooth="yes"/>
      <point x="448" y="223"/>
      <point x="389" y="175"/>
      <point x="313" y="175" type="curve" smooth="yes"/>
      <point x="237" y="175"/>
      <point x="178" y="223"/>
    </contour>
    <contour>
      <point x="415" y="183" type="line"/>
      <point x="501" y="234" type="line"/>
      <point x="165" y="459" type="line"/>
      <point x="105" y="390" type="line"/>
    </contour>
    <component base="dvYA" xOffset="1000"/>
  </outline>
</glyph>
<glyph name="dvB_R" format="1">
  <advance width="359"/>
  <outline>
    <contour>
      <point x="591" y="600" type="line"/>
      <point x="591" y="740" type="line"/>
      <point x="-20" y="740" type="line"/>
      <point x="-20" y="600" type="line"/>
    </contour>
    <contour>
      <point x="35" y="303" type="curve" smooth="yes"/>
      <point x="35" y="145"/>
      <point x="155" y="64"/>
      <point x="312" y="64" type="curve" smooth="yes"/>
      <point x="467" y="64"/>
      <point x="569" y="196"/>
      <point x="569" y="303" type="curve" smooth="yes"/>
      <point x="569" y="452"/>
      <point x="456" y="552"/>
      <point x="303" y="552" type="curve"/>
      <point x="160" y="552"/>
      <point x="35" y="462"/>
    </contour>
    <contour>
      <point x="177" y="303" type="curve" smooth="yes"/>
      <point x="177" y="379"/>
      <point x="236" y="431"/>
      <point x="312" y="431" type="curve" smooth="yes"/>
      <point x="388" y="431"/>
      <point x="447" y="379"/>
      <point x="447" y="303" type="curve" smooth="yes"/>
      <point x="447" y="223"/>
      <point x="388" y="175"/>
      <point x="312" y="175" type="curve"/>
      <point x="236" y="175"/>
      <point x="177" y="223"/>
    </contour>
    <contour>
      <point x="414" y="183" type="line"/>
      <point x="500" y="234" type="line"/>
      <point x="164" y="459" type="line"/>
      <point x="104" y="390" type="line"/>
    </contour>
    <contour>
      <point x="166" y="-41" type="line"/>
      <point x="166" y="-46" type="line"/>
      <point x="166" y="-46"/>
      <point x="321" y="-46"/>
      <point x="321" y="-46" type="curve"/>
      <point x="321" y="-46"/>
      <point x="503" y="148"/>
      <point x="503" y="148" type="curve"/>
      <point x="503" y="148"/>
      <point x="350" y="125"/>
      <point x="350" y="125" type="curve"/>
    </contour>
  </outline>
</glyph>
<glyph name="dvB_TA" format="1">
  <advance width="1087"/>
  <outline>
    <contour>
      <point x="591" y="600" type="line"/>
      <point x="591" y="740" type="line"/>
      <point x="-20" y="740" type="line"/>
      <point x="-20" y="600" type="line"/>
    </contour>
    <contour>
      <point x="414" y="183" type="line"/>
      <point x="500" y="234" type="line"/>
      <point x="164" y="459" type="line"/>
      <point x="104" y="390" type="line"/>
    </contour>
    <contour>
      <point x="35" y="303" type="curve" smooth="yes"/>
      <point x="35" y="145"/>
      <point x="151" y="52"/>
      <point x="308" y="52" type="curve" smooth="yes"/>
      <point x="459" y="52"/>
      <point x="569" y="140"/>
      <point x="569" y="303" type="curve" smooth="yes"/>
      <point x="569" y="460"/>
      <point x="452" y="552"/>
      <point x="309" y="552" type="curve"/>
      <point x="154" y="552"/>
      <point x="35" y="462"/>
    </contour>
    <contour>
      <point x="177" y="303" type="curve" smooth="yes"/>
      <point x="177" y="379"/>
      <point x="236" y="431"/>
      <point x="312" y="431" type="curve" smooth="yes"/>
      <point x="388" y="431"/>
      <point x="447" y="379"/>
      <point x="447" y="303" type="curve" smooth="yes"/>
      <point x="447" y="223"/>
      <point x="388" y="175"/>
      <point x="312" y="175" type="curve"/>
      <point x="236" y="175"/>
      <point x="177" y="223"/>
    </contour>
    <component base="dvTA" xOffset="386"/>
  </outline>
</glyph>
<glyph name="dvC_MA" format="1">
  <advance width="1300"/>
  <outline>
    <contour>
      <point x="1061" y="0" type="line"/>
      <point x="1225" y="0" type="line"/>
      <point x="1225" y="723" type="line"/>
      <point x="1061" y="723" type="line"/>
    </contour>
    <contour>
      <point x="1320" y="600" type="line"/>
      <point x="1320" y="740" type="line"/>
      <point x="420" y="740" type="line"/>
      <point x="420" y="600" type="line"/>
    </contour>
    <contour>
      <point x="782" y="286" type="line"/>
      <point x="782" y="233"/>
      <point x="767" y="196"/>
      <point x="717" y="196" type="curve" smooth="yes"/>
      <point x="677" y="196"/>
      <point x="647" y="220"/>
      <point x="647" y="261" type="curve" smooth="yes"/>
      <point x="647" y="312"/>
      <point x="689" y="332"/>
      <point x="740" y="332" type="curve" smooth="yes"/>
      <point x="1212" y="332" type="line"/>
      <point x="1212" y="466" type="line"/>
      <point x="738" y="466" type="line" smooth="yes"/>
      <point x="597" y="466"/>
      <point x="495" y="407"/>
      <point x="495" y="266" type="curve" smooth="yes"/>
      <point x="495" y="139"/>
      <point x="595" y="58"/>
      <point x="721" y="58" type="curve" smooth="yes"/>
      <point x="866" y="58"/>
      <point x="936" y="148"/>
      <point x="936" y="292" type="curve" smooth="yes"/>
      <point x="936" y="652" type="line"/>
      <point x="936" y="652"/>
      <point x="782" y="652"/>
      <point x="782" y="652" type="curve"/>
    </contour>
    <contour>
      <point x="658" y="740" type="line"/>
      <point x="-27" y="740" type="line"/>
      <point x="-27" y="600" type="line"/>
      <point x="-27" y="600"/>
      <point x="658" y="600"/>
      <point x="658" y="600" type="curve"/>
    </contour>
    <contour>
      <point x="444" y="511" type="line"/>
      <point x="43" y="511" type="line"/>
      <point x="43" y="382" type="line"/>
      <point x="43" y="382"/>
      <point x="444" y="382"/>
      <point x="444" y="382" type="curve"/>
    </contour>
    <contour>
      <point x="499" y="309" type="line"/>
      <point x="485" y="259"/>
      <point x="460" y="219"/>
      <point x="396" y="219" type="curve" smooth="yes"/>
      <point x="341" y="219"/>
      <point x="300" y="245"/>
      <point x="300" y="300" type="curve" smooth="yes"/>
      <point x="300" y="353"/>
      <point x="343" y="382"/>
      <point x="392" y="382" type="curve"/>
      <point x="348" y="444" type="line"/>
      <point x="235" y="439"/>
      <point x="145" y="376"/>
      <point x="145" y="272" type="curve" smooth="yes"/>
      <point x="145" y="142"/>
      <point x="259" y="76"/>
      <point x="379" y="76" type="curve" smooth="yes"/>
      <point x="523" y="76"/>
      <point x="596" y="177"/>
      <point x="595" y="306" type="curve"/>
    </contour>
  </outline>
</glyph>
<glyph name="dvC_R" format="1">
  <advance width="410"/>
  <outline>
    <contour>
      <point x="215" y="-45" type="curve"/>
      <point x="215" y="-52" type="line"/>
      <point x="215" y="-52"/>
      <point x="383" y="-52"/>
      <point x="383" y="-52" type="curve"/>
      <point x="383" y="-52"/>
      <point x="585" y="157"/>
      <point x="585" y="157" type="curve"/>
      <point x="585" y="157"/>
      <point x="399" y="124"/>
      <point x="399" y="124" type="curve"/>
      <point x="389" y="110"/>
      <point x="246" y="-21"/>
    </contour>
    <contour>
      <point x="665" y="740" type="line"/>
      <point x="-20" y="740" type="line"/>
      <point x="-20" y="600" type="line"/>
      <point x="-20" y="600"/>
      <point x="665" y="600"/>
      <point x="665" y="600" type="curve"/>
    </contour>
    <contour>
      <point x="421" y="511" type="line"/>
      <point x="50" y="511" type="line"/>
      <point x="50" y="382" type="line"/>
      <point x="50" y="382"/>
      <point x="421" y="382"/>
      <point x="421" y="382" type="curve"/>
    </contour>
    <contour>
      <point x="511" y="369" type="line"/>
      <point x="511" y="283"/>
      <point x="482" y="218"/>
      <point x="396" y="218" type="curve" smooth="yes"/>
      <point x="337" y="218"/>
      <point x="289" y="244"/>
      <point x="289" y="302" type="curve" smooth="yes"/>
      <point x="289" y="355"/>
      <point x="332" y="382"/>
      <point x="381" y="382" type="curve"/>
      <point x="341" y="433" type="line"/>
      <point x="227" y="438"/>
      <point x="135" y="382"/>
      <point x="135" y="278" type="curve" smooth="yes"/>
      <point x="135" y="143"/>
      <point x="261" y="82"/>
      <point x="396" y="82" type="curve" smooth="yes"/>
      <point x="581" y="82"/>
      <point x="656" y="217"/>
      <point x="656" y="369" type="curve"/>
    </contour>
  </outline>
</glyph>
<glyph name="dvC_RA" format="1">
  <advance width="753"/>
  <outline>
    <contour>
      <point x="421" y="382" type="line"/>
      <point x="421" y="382"/>
      <point x="50" y="382"/>
      <point x="50" y="382" type="curve"/>
      <point x="50" y="511" type="line"/>
      <point x="421" y="511" type="line"/>
    </contour>
    <contour>
      <point x="553" y="324" type="line"/>
      <point x="563" y="190"/>
      <point x="503" y="92"/>
      <point x="358" y="92" type="curve" smooth="yes"/>
      <point x="232" y="92"/>
      <point x="135" y="149"/>
      <point x="135" y="272" type="curve" smooth="yes"/>
      <point x="135" y="390"/>
      <point x="246" y="451"/>
      <point x="329" y="433" type="curve"/>
      <point x="381" y="382" type="line"/>
      <point x="332" y="382"/>
      <point x="289" y="355"/>
      <point x="289" y="302" type="curve" smooth="yes"/>
      <point x="289" y="246"/>
      <point x="333" y="218"/>
      <point x="391" y="218" type="curve" smooth="yes"/>
      <point x="469" y="218"/>
      <point x="513" y="279"/>
      <point x="513" y="369" type="curve"/>
    </contour>
    <contour>
      <point x="523" y="166" type="curve"/>
      <point x="523" y="166"/>
      <point x="354" y="-52"/>
      <point x="354" y="-52" type="curve"/>
      <point x="354" y="-52"/>
      <point x="178" y="-52"/>
      <point x="178" y="-52" type="curve"/>
      <point x="178" y="-52"/>
      <point x="339" y="131"/>
      <point x="350" y="147" type="curve"/>
      <point x="350" y="147"/>
      <point x="523" y="166"/>
    </contour>
    <contour>
      <point x="-20" y="740" type="line"/>
      <point x="773" y="740" type="line"/>
      <point x="773" y="600" type="line"/>
      <point x="678" y="600" type="line"/>
      <point x="678" y="0" type="line"/>
      <point x="513" y="0" type="line"/>
      <point x="513" y="600" type="line"/>
      <point x="-20" y="600" type="line"/>
    </contour>
  </outline>
</glyph>
<glyph name="dvC_YA" format="1">
  <advance width="1207"/>
  <outline>
    <contour>
      <point x="665" y="611" type="line"/>
      <point x="665" y="584" type="line" smooth="yes"/>
      <point x="665" y="494"/>
      <point x="657" y="438"/>
      <point x="510" y="438" type="curve"/>
      <point x="498" y="230"/>
      <point x="589" y="78"/>
      <point x="791" y="78" type="curve" smooth="yes"/>
      <point x="942" y="78"/>
      <point x="1017" y="176"/>
      <point x="1010" y="295" type="curve"/>
      <point x="968" y="371" type="line"/>
      <point x="968" y="279"/>
      <point x="917" y="218"/>
      <point x="821" y="218" type="curve" smooth="yes"/>
      <point x="729" y="218"/>
      <point x="680" y="273"/>
      <point x="680" y="351" type="curve"/>
      <point x="801" y="367"/>
      <point x="826" y="434"/>
      <point x="826" y="577" type="curve" smooth="yes"/>
      <point x="826" y="611" type="line"/>
    </contour>
    <contour>
      <point x="968" y="600" type="line"/>
      <point x="968" y="0" type="line"/>
      <point x="1132" y="0" type="line"/>
      <point x="1132" y="600" type="line"/>
      <point x="1227" y="600" type="line"/>
      <point x="1227" y="740" type="line"/>
      <point x="429" y="740" type="line"/>
      <point x="429" y="600" type="line"/>
    </contour>
    <contour>
      <point x="665" y="740" type="line"/>
      <point x="-20" y="740" type="line"/>
      <point x="-20" y="600" type="line"/>
      <point x="-20" y="600"/>
      <point x="665" y="600"/>
      <point x="665" y="600" type="curve"/>
    </contour>
    <contour>
      <point x="421" y="511" type="line"/>
      <point x="50" y="511" type="line"/>
      <point x="50" y="382" type="line"/>
      <point x="50" y="382"/>
      <point x="421" y="382"/>
      <point x="421" y="382" type="curve"/>
    </contour>
    <contour>
      <point x="511" y="365" type="line"/>
      <point x="509" y="262"/>
      <point x="467" y="219"/>
      <point x="403" y="219" type="curve" smooth="yes"/>
      <point x="348" y="219"/>
      <point x="307" y="245"/>
      <point x="307" y="300" type="curve" smooth="yes"/>
      <point x="307" y="353"/>
      <point x="350" y="382"/>
      <point x="399" y="382" type="curve"/>
      <point x="355" y="444" type="line"/>
      <point x="242" y="439"/>
      <point x="155" y="376"/>
      <point x="155" y="272" type="curve" smooth="yes"/>
      <point x="155" y="142"/>
      <point x="267" y="79"/>
      <point x="387" y="79" type="curve" smooth="yes"/>
      <point x="529" y="79"/>
      <point x="606" y="161"/>
      <point x="620" y="290" type="curve"/>
    </contour>
  </outline>
</glyph>
<glyph name="dvDA_mvR" format="1">
  <advance width="581"/>
  <outline>
    <contour>
      <point x="540" y="182" type="curve"/>
      <point x="402" y="182" type="line"/>
      <point x="402" y="134"/>
      <point x="376" y="104"/>
      <point x="314" y="104" type="curve" smooth="yes"/>
      <point x="263" y="104"/>
      <point x="233" y="122"/>
      <point x="233" y="155" type="curve" smooth="yes"/>
      <point x="233" y="186"/>
      <point x="256" y="205"/>
      <point x="309" y="205" type="curve" smooth="yes"/>
      <point x="356" y="205" type="line"/>
      <point x="356" y="327" type="line"/>
      <point x="329" y="327" type="line" smooth="yes"/>
      <point x="264" y="327"/>
      <point x="230" y="335"/>
      <point x="230" y="374" type="curve" smooth="yes"/>
      <point x="230" y="420"/>
      <point x="291" y="421"/>
      <point x="355" y="421" type="curve" smooth="yes"/>
      <point x="467" y="421" type="line"/>
      <point x="467" y="600" type="line"/>
      <point x="601" y="600" type="line"/>
      <point x="601" y="740" type="line"/>
      <point x="-20" y="740" type="line"/>
      <point x="-20" y="600" type="line"/>
      <point x="302" y="600" type="line"/>
      <point x="302" y="538" type="line"/>
      <point x="292" y="538" type="line" smooth="yes"/>
      <point x="173" y="538"/>
      <point x="65" y="510"/>
      <point x="65" y="393" type="curve" smooth="yes"/>
      <point x="65" y="330"/>
      <point x="108" y="282"/>
      <point x="166" y="268" type="curve"/>
      <point x="166" y="262" type="line"/>
      <point x="101" y="247"/>
      <point x="66" y="199"/>
      <point x="66" y="141" type="curve" smooth="yes"/>
      <point x="66" y="23"/>
      <point x="195" y="-19"/>
      <point x="314" y="-19" type="curve" smooth="yes"/>
      <point x="466" y="-19"/>
      <point x="540" y="47"/>
    </contour>
  </outline>
</glyph>
<glyph name="dvDD" format="1">
  <advance width="568"/>
  <outline>
    <contour>
      <point x="588" y="600" type="line"/>
      <point x="588" y="740" type="line"/>
      <point x="-20" y="740" type="line"/>
      <point x="-20" y="600" type="line"/>
    </contour>
    <contour>
      <point x="310" y="496" type="line"/>
      <point x="475" y="496" type="line"/>
      <point x="475" y="718" type="line"/>
      <point x="310" y="718" type="line"/>
    </contour>
    <contour>
      <point x="54" y="179" type="line"/>
      <point x="60" y="50"/>
      <point x="167" y="-20"/>
      <point x="305" y="-20" type="curve" smooth="yes"/>
      <point x="451" y="-20"/>
      <point x="538" y="51"/>
      <point x="538" y="162" type="curve" smooth="yes"/>
      <point x="538" y="304"/>
      <point x="426" y="336"/>
      <point x="321" y="336" type="curve"/>
      <point x="268" y="336"/>
      <point x="232" y="338"/>
      <point x="232" y="373" type="curve" smooth="yes"/>
      <point x="232" y="403"/>
      <point x="267" y="411"/>
      <point x="320" y="411" type="curve" smooth="yes"/>
      <point x="475" y="411" type="line"/>
      <point x="475" y="508" type="line"/>
      <point x="325" y="541" type="line"/>
      <point x="271" y="541" type="line" smooth="yes"/>
      <point x="162" y="541"/>
      <point x="66" y="494"/>
      <point x="66" y="384" type="curve" smooth="yes"/>
      <point x="66" y="228"/>
      <point x="194" y="210"/>
      <point x="285" y="210" type="curve" smooth="yes"/>
      <point x="344" y="210"/>
      <point x="376" y="199"/>
      <point x="376" y="159" type="curve" smooth="yes"/>
      <point x="376" y="122"/>
      <point x="346" y="107"/>
      <point x="305" y="107" type="curve" smooth="yes"/>
      <point x="256" y="107"/>
      <point x="220" y="130"/>
      <point x="216" y="179" type="curve"/>
    </contour>
    <contour>
      <point x="531" y="-280" type="line"/>
      <point x="398" y="-63" type="line"/>
      <point x="244" y="-63" type="line"/>
      <point x="370" y="-280" type="line"/>
    </contour>
  </outline>
</glyph>
<glyph name="dvDDH_DDHA" format="1">
  <advance width="656"/>
  <outline>
    <contour>
      <point x="507" y="-399" type="move" name="blwm.u"/>
    </contour>
    <contour>
      <point x="444" y="-327" type="move" name="blwm.virama"/>
    </contour>
    <contour>
      <point x="500" y="740" type="move" name="abvm.e"/>
    </contour>
    <contour>
      <point x="271" y="237" type="curve"/>
      <point x="391" y="237" type="line"/>
      <point x="392" y="257"/>
      <point x="402" y="276"/>
      <point x="430" y="276" type="curve" smooth="yes"/>
      <point x="452" y="276"/>
      <point x="467" y="262"/>
      <point x="467" y="236" type="curve" smooth="yes"/>
      <point x="467" y="197"/>
      <point x="428" y="181"/>
      <point x="370" y="181" type="curve" smooth="yes"/>
      <point x="272" y="181"/>
      <point x="221" y="216"/>
      <point x="221" y="299" type="curve" smooth="yes"/>
      <point x="221" y="395"/>
      <point x="308" y="433"/>
      <point x="385" y="434" type="curve"/>
      <point x="365" y="556" type="line"/>
      <point x="197" y="556"/>
      <point x="80" y="454"/>
      <point x="80" y="305" type="curve" smooth="yes"/>
      <point x="80" y="141"/>
      <point x="212" y="68"/>
      <point x="368" y="68" type="curve" smooth="yes"/>
      <point x="513" y="68"/>
      <point x="601" y="124"/>
      <point x="601" y="236" type="curve" smooth="yes"/>
      <point x="601" y="332"/>
      <point x="531" y="393"/>
      <point x="430" y="393" type="curve" smooth="yes"/>
      <point x="303" y="393"/>
      <point x="265" y="305"/>
    </contour>
    <contour>
      <point x="336" y="611" type="line"/>
      <point x="336" y="434" type="line"/>
      <point x="500" y="434" type="line"/>
      <point x="500" y="611" type="line"/>
    </contour>
    <contour>
      <point x="677" y="600" type="line"/>
      <point x="677" y="740" type="line"/>
      <point x="-20" y="740" type="line"/>
      <point x="-20" y="600" type="line"/>
    </contour>
    <contour>
      <point x="271" y="-129" type="curve"/>
      <point x="391" y="-129" type="line"/>
      <point x="392" y="-109"/>
      <point x="402" y="-90"/>
      <point x="430" y="-90" type="curve" smooth="yes"/>
      <point x="452" y="-90"/>
      <point x="467" y="-104"/>
      <point x="467" y="-130" type="curve" smooth="yes"/>
      <point x="467" y="-169"/>
      <point x="428" y="-185"/>
      <point x="370" y="-185" type="curve" smooth="yes"/>
      <point x="272" y="-185"/>
      <point x="221" y="-150"/>
      <point x="221" y="-67" type="curve" smooth="yes"/>
      <point x="221" y="29"/>
      <point x="308" y="67"/>
      <point x="385" y="68" type="curve"/>
      <point x="365" y="155" type="line"/>
      <point x="197" y="155"/>
      <point x="80" y="88"/>
      <point x="80" y="-61" type="curve" smooth="yes"/>
      <point x="80" y="-225"/>
      <point x="212" y="-308"/>
      <point x="368" y="-308" type="curve" smooth="yes"/>
      <point x="513" y="-308"/>
      <point x="601" y="-242"/>
      <point x="601" y="-130" type="curve" smooth="yes"/>
      <point x="601" y="-34"/>
      <point x="531" y="27"/>
      <point x="430" y="27" type="curve" smooth="yes"/>
      <point x="303" y="27"/>
      <point x="265" y="-61"/>
    </contour>
  </outline>
</glyph>
<glyph name="dvDDH_RA" format="1">
  <advance width="644"/>
  <outline>
    <contour>
      <point x="488" y="-223" type="move" name="blwm.u"/>
    </contour>
    <contour>
      <point x="442" y="-158" type="move" name="blwm.virama"/>
    </contour>
    <contour>
      <point x="494" y="740" type="move" name="abvm.e"/>
    </contour>
    <component base="dvDDHA"/>
    <component base="dvRashtrasign" xOffset="698" yOffset="-37"/>
  </outline>
</glyph>
<glyph name="dvDD_VA" format="1">
  <advance width="589"/>
  <outline>
    <contour>
      <point x="527" y="-320" type="move" name="blwm.u"/>
    </contour>
    <contour>
      <point x="527" y="-314" type="move" name="blwm.virama"/>
    </contour>
    <contour>
      <point x="493" y="740" type="move" name="abvm.e"/>
    </contour>
    <contour>
      <point x="73" y="209" type="line"/>
      <point x="84" y="87"/>
      <point x="188" y="41"/>
      <point x="323" y="41" type="curve" smooth="yes"/>
      <point x="469" y="41"/>
      <point x="556" y="96"/>
      <point x="556" y="207" type="curve" smooth="yes"/>
      <point x="556" y="341"/>
      <point x="438" y="360"/>
      <point x="333" y="360" type="curve" smooth="yes"/>
      <point x="280" y="360"/>
      <point x="250" y="361"/>
      <point x="250" y="390" type="curve" smooth="yes"/>
      <point x="250" y="420"/>
      <point x="285" y="423"/>
      <point x="338" y="423" type="curve" smooth="yes"/>
      <point x="493" y="423" type="line"/>
      <point x="493" y="518" type="line"/>
      <point x="343" y="551" type="line"/>
      <point x="289" y="551" type="line" smooth="yes"/>
      <point x="180" y="551"/>
      <point x="84" y="509"/>
      <point x="84" y="399" type="curve" smooth="yes"/>
      <point x="84" y="256"/>
      <point x="212" y="240"/>
      <point x="303" y="240" type="curve" smooth="yes"/>
      <point x="362" y="240"/>
      <point x="394" y="236"/>
      <point x="394" y="202" type="curve" smooth="yes"/>
      <point x="394" y="168"/>
      <point x="364" y="157"/>
      <point x="323" y="157" type="curve" smooth="yes"/>
      <point x="278" y="157"/>
      <point x="240" y="174"/>
      <point x="235" y="209" type="curve"/>
    </contour>
    <contour>
      <point x="609" y="600" type="line"/>
      <point x="609" y="740" type="line"/>
      <point x="-20" y="740" type="line"/>
      <point x="-20" y="600" type="line"/>
    </contour>
    <contour>
      <point x="328" y="506" type="line"/>
      <point x="493" y="506" type="line"/>
      <point x="493" y="718" type="line"/>
      <point x="328" y="718" type="line"/>
    </contour>
    <contour>
      <point x="527" y="147" type="line"/>
      <point x="382" y="147" type="line"/>
      <point x="382" y="-293" type="line"/>
      <point x="527" y="-293" type="line"/>
    </contour>
    <contour>
      <point x="293" y="136" type="line"/>
      <point x="197" y="136"/>
      <point x="68" y="89"/>
      <point x="68" y="-45" type="curve" smooth="yes"/>
      <point x="68" y="-175"/>
      <point x="171" y="-238"/>
      <point x="271" y="-238" type="curve" smooth="yes"/>
      <point x="391" y="-238"/>
      <point x="430" y="-149"/>
      <point x="421" y="-20" type="curve"/>
      <point x="382" y="11" type="line"/>
      <point x="382" y="-57"/>
      <point x="366" y="-108"/>
      <point x="301" y="-108" type="curve" smooth="yes"/>
      <point x="251" y="-108"/>
      <point x="217" y="-79"/>
      <point x="217" y="-34" type="curve" smooth="yes"/>
      <point x="217" y="32"/>
      <point x="277" y="43"/>
      <point x="329" y="43" type="curve"/>
    </contour>
  </outline>
</glyph>
